<?xml version="1.0" standalone="no"?>
<!DOCTYPE svg PUBLIC "-//W3C//DTD SVG 1.1//EN" "http://www.w3.org/Graphics/SVG/1.1/DTD/svg11.dtd" >
<svg xmlns="http://www.w3.org/2000/svg" xmlns:xlink="http://www.w3.org/1999/xlink" version="1.1">
<metadata></metadata>
<defs>
<font id="tuborg_serifbold" horiz-adv-x="1024" >
<font-face units-per-em="2048" ascent="1638" descent="-410" />
<missing-glyph horiz-adv-x="368" />
<glyph unicode="&#xfb01;" horiz-adv-x="915" d="M20 8v111q0 25 19 35l51 28v477l-51 29q-19 10 -19 35v108q0 3 3 6t6 3h61v59q0 240 137.5 397.5t341.5 157.5q83 0 135 -38t52 -97q0 -54 -36.5 -88.5t-90.5 -34.5q-35 0 -77 25.5t-77 51t-53 25.5q-62 0 -62 -157v-301h428q19 0 28 -9t9 -32v-617l52 -28q18 -9 18 -35 v-111q0 -8 -8 -8h-393q-9 0 -9 8v111q0 25 19 35l51 28v482h-195v-482l66 -35q18 -9 18 -34v-105q0 -8 -8 -8h-407q-9 0 -9 8z" />
<glyph unicode="&#xfb02;" horiz-adv-x="915" d="M20 8v111q0 25 19 35l51 28v477l-51 29q-19 10 -19 35v108q0 3 3 6t6 3h61v59q0 238 131 396.5t318 158.5q105 0 145 -65l74 51q31 20 49 12t18 -39v-1231l52 -28q18 -9 18 -35v-111q0 -8 -8 -8h-393q-9 0 -9 8v111q0 25 19 35l51 28v1016q-30 7 -61.5 32t-55.5 46.5 t-37 21.5q-23 0 -32 -34.5t-9 -122.5v-301h136q8 0 8 -9v-159q0 -8 -8 -8h-136v-482l66 -35q18 -9 18 -34v-105q0 -8 -8 -8h-407q-9 0 -9 8z" />
<glyph unicode="&#xfb03;" horiz-adv-x="1380" d="M20 8v111q0 25 19 35l51 28v477l-51 29q-19 10 -19 35v108q0 3 3 6t6 3h61v59q0 238 131 396.5t318 158.5q81 0 123.5 -37t42.5 -98v-10q132 145 329 145q83 0 135 -38t52 -97q0 -54 -36.5 -88.5t-90.5 -34.5q-35 0 -77 25.5t-77 51t-53 25.5q-62 0 -62 -157v-301h428 q19 0 28 -9t9 -32v-617l51 -28q19 -10 19 -35v-111q0 -8 -8 -8h-394q-8 0 -8 8v111q0 25 19 35l51 28v482h-195v-482l66 -35q18 -9 18 -34v-105q0 -8 -8 -8h-407q-9 0 -9 8v111q0 25 19 35l51 28v482h-195v-482l66 -35q18 -9 18 -34v-105q0 -8 -8 -8h-407q-9 0 -9 8z M360 840h195v59q0 174 76 307q-27 -10 -53 -10q-28 0 -57 16t-48.5 35t-39.5 35t-32 16q-23 0 -32 -34.5t-9 -122.5v-301z" />
<glyph unicode="&#xfb04;" horiz-adv-x="1380" d="M20 8v111q0 25 19 35l51 28v477l-51 29q-19 10 -19 35v108q0 3 3 6t6 3h61v59q0 238 131 396.5t318 158.5q81 0 123.5 -37t42.5 -98v-2q127 137 299 137q105 0 145 -65l74 51q31 20 49 12t18 -39v-1231l51 -28q19 -10 19 -35v-111q0 -8 -8 -8h-394q-8 0 -8 8v111 q0 25 19 35l51 28v1016q-30 7 -61.5 32t-55.5 46.5t-37 21.5q-23 0 -32 -34.5t-9 -122.5v-301h136q8 0 8 -9v-159q0 -8 -8 -8h-136v-482l66 -35q18 -9 18 -34v-105q0 -8 -8 -8h-407q-9 0 -9 8v111q0 25 19 35l51 28v482h-195v-482l66 -35q18 -9 18 -34v-105q0 -8 -8 -8h-407 q-9 0 -9 8zM360 840h195v59q0 167 72 305q-21 -8 -49 -8t-57 16t-48.5 35t-39.5 35t-32 16q-23 0 -32 -34.5t-9 -122.5v-301z" />
<glyph horiz-adv-x="0" />
<glyph horiz-adv-x="0" />
<glyph horiz-adv-x="682" />
<glyph unicode="&#xd;" horiz-adv-x="368" />
<glyph unicode=" "  horiz-adv-x="368" />
<glyph unicode="&#x09;" horiz-adv-x="368" />
<glyph unicode="&#xa0;" horiz-adv-x="368" />
<glyph unicode="!" horiz-adv-x="589" d="M125 1425q0 9 8 9h324q8 0 8 -9l-62 -987q0 -8 -8 -8h-200q-9 0 -9 8zM129 145q0 69 48 117.5t118 48.5q69 0 117.5 -48.5t48.5 -117.5q0 -70 -48.5 -117.5t-117.5 -47.5q-71 0 -118.5 47.5t-47.5 117.5z" />
<glyph unicode="&#x22;" horiz-adv-x="880" d="M102 1417q-3 17 11 17h249q11 0 9 -17l-52 -569q0 -8 -8 -8h-151q-8 0 -8 8zM512 1417q-3 17 10 17h250q10 0 8 -17l-51 -569q0 -8 -8 -8h-152q-8 0 -8 8z" />
<glyph unicode="#" d="M61 418v180q0 8 9 8h135l39 221h-174q-3 0 -6 3t-3 6v180q0 8 9 8h209l71 401q0 9 8 9h181q8 0 8 -9l-72 -401h180l72 401q0 9 8 9h180q3 0 6 -3t3 -6l-72 -401h102q9 0 9 -8v-180q0 -3 -3 -6t-6 -3h-137l-39 -221h176q9 0 9 -8v-180q0 -8 -9 -8h-211l-71 -402 q0 -8 -8 -8h-181q-8 0 -8 8l72 402h-180l-72 -402q0 -8 -8 -8h-181q-8 0 -8 8l72 402h-100q-9 0 -9 8zM401 606h181l39 221h-181z" />
<glyph unicode="$" d="M27 303q0 86 41.5 131t103.5 45q53 0 95 -32.5t42 -92.5q0 -67 -41 -102q11 -20 48.5 -40t86.5 -30v426q-47 21 -78 36t-74 39.5t-70.5 47t-59 55.5t-49 68.5t-29.5 82t-12 99.5q0 158 103.5 268t289.5 140v125q0 8 8 8h168q8 0 8 -8v-119q157 -14 266 -99.5t109 -211.5 q0 -86 -41.5 -131t-103.5 -45q-54 0 -96 32t-42 92q0 68 41 103q-15 15 -52 35.5t-81 29.5v-421q49 -22 79 -36t75 -38.5t73 -45.5t60.5 -52.5t50.5 -64t30.5 -75t12.5 -90.5q0 -175 -107.5 -293t-293.5 -149v-172q0 -8 -8 -8h-168q-9 0 -9 8v166q-164 18 -270 104.5 t-106 214.5zM309 1102q0 -98 115 -172v315q-58 -18 -86.5 -56t-28.5 -87zM588 188q108 36 108 168q0 93 -108 160v-328z" />
<glyph unicode="%" horiz-adv-x="1660" d="M51 1049q0 194 90.5 299.5t241.5 105.5q152 0 243 -105.5t91 -299.5q0 -192 -91.5 -298t-242.5 -106t-241.5 105.5t-90.5 298.5zM289 1049q0 -129 19.5 -183.5t74.5 -54.5t74.5 54.5t19.5 183.5q0 130 -19.5 184.5t-74.5 54.5t-74.5 -54.5t-19.5 -184.5zM485 -6l469 1452 q3 8 11 8h198q4 0 6.5 -3.5t-0.5 -10.5l-469 -1452q-3 -8 -10 -8h-198q-4 0 -7 3.5t0 10.5zM940 383q0 194 91 299.5t243 105.5t244 -106t92 -299q0 -192 -92 -297.5t-244 -105.5q-151 0 -242.5 105.5t-91.5 297.5zM1180 383q0 -129 19.5 -183.5t74.5 -54.5t74.5 54.5 t19.5 183.5q0 130 -19.5 185t-74.5 55t-74.5 -55t-19.5 -185z" />
<glyph unicode="&#x26;" horiz-adv-x="1374" d="M53 381q0 140 76.5 243.5t249.5 202.5q-90 141 -90 277q0 69 23.5 130t70.5 111.5t128 79.5t187 29q87 0 157.5 -21t125.5 -64.5t85 -118.5t30 -177v-72q0 -43 -39 -43h-264q-3 0 -6 3t-3 6v96q0 23 4 31t21 20l29 21v12q0 47 -35 75.5t-94 28.5q-56 0 -87.5 -34 t-31.5 -95q0 -46 22 -94.5t74 -118.5l250 -340q63 126 63 203v59q0 3 3 6t6 3h342q8 0 8 -9v-108q0 -24 -19 -35q-25 -18 -49.5 -40.5t-56 -61.5t-46 -57.5t-57 -77t-51.5 -70.5l41 -49q101 -119 158 -150l51 -28q19 -10 19 -35v-111q0 -8 -9 -8h-335q-18 0 -27 12l-103 138 q-94 -83 -186.5 -126.5t-216.5 -43.5q-106 0 -189 36.5t-131.5 95.5t-73 128t-24.5 141zM354 426q0 -76 45.5 -128t128.5 -52q60 0 114.5 28t92.5 66l-231 313q-67 -47 -108.5 -105t-41.5 -122z" />
<glyph unicode="'" horiz-adv-x="471" d="M102 1417q-3 17 11 17h249q11 0 9 -17l-52 -569q0 -8 -8 -8h-151q-8 0 -8 8z" />
<glyph unicode="(" horiz-adv-x="774" d="M123 637q0 158 36 295.5t94 236.5t138.5 180.5t163 133t174.5 86.5q14 5 14 -10v-164q0 -8 -6 -11q-152 -75 -251 -278t-99 -471q0 -269 99.5 -472t250.5 -278q6 -3 6 -10v-164q0 -15 -14 -10q-92 35 -174.5 86.5t-163 133t-138.5 181.5t-94 238t-36 297z" />
<glyph unicode=")" horiz-adv-x="774" d="M31 -125q0 7 6 10q151 75 250.5 278t99.5 472q0 268 -99 471t-251 278q-6 3 -6 11v164q0 15 14 10q92 -35 174.5 -86.5t163 -133t138.5 -180.5t94 -236.5t36 -295.5q0 -159 -36 -297t-94 -238t-138.5 -181.5t-163 -133t-174.5 -86.5q-14 -5 -14 10v164z" />
<glyph unicode="*" horiz-adv-x="663" d="M23 1149l51 154q0 7 10 0l201 -103l-39 221q0 13 8 13h160q7 0 4 -13l-39 -221l203 103q8 2 10 -3l51 -153q0 -8 -8 -8l-225 -29l161 -164q6 -9 0 -12l-129 -94q-8 -5 -12 4l-98 205l-103 -203q-6 -8 -10 -4l-129 92q-6 8 0 14l164 162l-223 29q-12 3 -8 10z" />
<glyph unicode="+" d="M61 535v200q0 8 9 8h333v375q0 8 9 8h200q9 0 9 -8v-375h333q9 0 9 -8v-200q0 -3 -3 -6t-6 -3h-333v-374q0 -3 -3 -6t-6 -3h-200q-3 0 -6 3t-3 6v374h-333q-3 0 -6 3t-3 6z" />
<glyph unicode="," horiz-adv-x="471" d="M61 -205q-8 12 9 25q100 72 116 168q-52 13 -84 56.5t-32 100.5q0 69 48 117.5t120 48.5q70 0 115.5 -49.5t45.5 -142.5q0 -132 -75.5 -240t-186.5 -178q-9 -6 -20 10z" />
<glyph unicode="-" horiz-adv-x="491" d="M49 395v201q0 8 8 8h377q8 0 8 -8v-201q0 -8 -8 -8h-377q-8 0 -8 8z" />
<glyph unicode="." horiz-adv-x="471" d="M70 145q0 69 48 117.5t118 48.5q69 0 117 -48.5t48 -117.5q0 -70 -48 -117.5t-117 -47.5q-71 0 -118.5 47.5t-47.5 117.5z" />
<glyph unicode="/" horiz-adv-x="688" d="M1.5 -16.5q-2.5 3.5 0.5 10.5l469 1452q3 8 10 8h199q4 0 6.5 -3.5t-0.5 -10.5l-469 -1452q-3 -8 -10 -8h-199q-4 0 -6.5 3.5z" />
<glyph unicode="0" d="M47 709q0 174 25 306.5t67 214.5t103.5 133.5t126.5 71t145 19.5q79 0 144 -19.5t125.5 -70.5t102 -132t66.5 -212t25 -303q0 -167 -23.5 -295t-64 -210.5t-100.5 -135.5t-128 -74.5t-151 -21.5q-85 0 -153 22t-127 74.5t-98.5 135t-62 208t-22.5 289.5zM367 715 q0 -154 6.5 -252t23 -163.5t43.5 -92.5t70 -27t70.5 26.5t44.5 92t23.5 165t6.5 257.5q0 154 -6.5 251t-23 162.5t-44 92t-71.5 26.5q-42 0 -69 -25.5t-44 -90t-23.5 -164.5t-6.5 -258z" />
<glyph unicode="1" horiz-adv-x="741" d="M82 1116v98q0 36 33 43q159 33 211 144q16 33 49 33h135q20 0 28.5 -8.5t8.5 -32.5v-1196l112 -43q19 -10 19 -35v-111q0 -8 -8 -8h-561q-9 0 -9 8v111q0 25 19 35l133 51v868h-129q-21 0 -31 9.5t-10 33.5z" />
<glyph unicode="2" d="M68 41v162q0 55 7 99.5t27 85.5t40.5 71.5t63 71t78.5 70.5t101 81l57 43q98 73 151.5 153t53.5 193q0 180 -145 180q-69 0 -104.5 -37.5t-35.5 -97.5v-45l29 -20q16 -10 20.5 -21.5t4.5 -38.5v-88q0 -8 -8 -8h-299q-37 0 -37 41v92q0 207 122 316.5t334 109.5 q192 0 310 -105t118 -294q0 -175 -71.5 -268t-287.5 -256q-6 -5 -9 -7l-49 -37q-112 -85 -146.5 -139t-34.5 -127v-22h228q66 0 92 20.5t41 81.5l29 111q6 23 16.5 32t34.5 9h133q8 0 8 -9v-436q0 -8 -8 -8h-826q-20 0 -29 8.5t-9 32.5z" />
<glyph unicode="3" d="M43 416v78q0 24 9.5 32.5t29.5 8.5h291q8 0 8 -9v-100q0 -22 -5 -30t-24 -19l-26 -15v-47q0 -63 47 -99t127 -36q86 0 128 56t42 176q0 122 -45.5 168.5t-159.5 46.5h-19q-21 0 -29.5 8t-8.5 31v147q0 24 8.5 33.5t29.5 9.5h27q174 0 174 209q0 186 -155 186 q-69 0 -112.5 -36.5t-43.5 -84.5v-12l29 -20q17 -12 20.5 -19.5t3.5 -31.5v-97q0 -8 -8 -8h-277q-20 0 -29 9.5t-9 33.5v72q0 101 35 179t97 124.5t141 70t171 23.5q192 0 313 -95t121 -272q0 -235 -248 -325v-4q37 -11 72 -27.5t75 -46.5t69.5 -67t49 -93.5t19.5 -122.5 q0 -86 -30 -160.5t-88 -133.5t-153 -93t-216 -34q-451 0 -451 436z" />
<glyph unicode="4" d="M29 406v118q130 401 407 873q11 20 23.5 28.5t36.5 8.5h266q20 0 32 -4t17 -13.5t6.5 -17t1.5 -21.5v-790h125q21 0 30 -9t9 -32v-141q0 -22 -9 -30.5t-30 -8.5h-125v-170l113 -43q18 -9 18 -35v-111q0 -8 -8 -8h-547q-8 0 -8 8v111q0 25 19 35l133 49v164h-469 q-21 0 -31 8.5t-10 30.5zM260 588h279v608q-2 -4 -27 -52.5t-31.5 -61t-30.5 -59.5t-33.5 -66.5t-31 -63.5t-32 -68t-27.5 -62t-27 -64t-21 -56t-18 -55z" />
<glyph unicode="5" d="M68 373v80q0 24 9 32.5t29 8.5h267q22 0 31.5 -8.5t9.5 -32.5v-95q0 -22 -4.5 -30.5t-22.5 -18.5l-27 -14v-8q0 -42 32.5 -74.5t103.5 -32.5q87 0 121 63t34 226q0 150 -37.5 210t-126.5 60q-101 0 -149 -88h-215q-39 0 -39 41l16 733q0 9 9 9h763q3 0 6 -3t3 -6v-229 q0 -8 -9 -8h-544l-13 -346q103 112 265 112q84 0 151 -28t109.5 -74.5t71 -110t40 -129.5t11.5 -139q0 -71 -10 -133t-40 -130.5t-79 -117t-134.5 -80.5t-197.5 -32q-105 0 -186 27.5t-126.5 69t-74.5 97t-38 103t-9 96.5z" />
<glyph unicode="6" d="M49 696q0 388 130 573t384 185q182 0 280.5 -107t98.5 -276v-51q0 -24 -9 -32.5t-30 -8.5h-252q-20 0 -28.5 8.5t-8.5 32.5v49q0 25 4.5 34t24.5 25l37 31q0 40 -29 67t-94 27q-37 0 -65 -9t-52.5 -33t-39.5 -65t-24 -105.5t-9 -153.5v-62q51 39 104 60.5t125 21.5 q177 0 281 -116.5t104 -311.5q0 -141 -52.5 -253t-158 -179t-248.5 -67q-249 0 -361 176t-112 540zM373 442q0 -258 149 -258q158 0 158 260q0 126 -41 192t-115 66q-80 0 -115.5 -63t-35.5 -197z" />
<glyph unicode="7" d="M72 991v434q0 9 8 9h899q8 0 8 -9v-235q-172 -241 -269 -543.5t-97 -605.5q0 -41 -43 -41h-256q-18 0 -26.5 6t-8.5 23q0 151 64 378.5t168 446.5t210 340h-336q-49 0 -68.5 -21t-33.5 -79l-19 -68q-8 -29 -15.5 -36t-33.5 -7h-143q-8 0 -8 8z" />
<glyph unicode="8" d="M43 381q0 78 22.5 142t61.5 106t85.5 68.5t100.5 39.5v8q-46 12 -85.5 35.5t-74.5 61t-55 96t-20 131.5q0 95 35 170t96 121t139.5 70t169.5 24q189 0 307.5 -98.5t118.5 -284.5q0 -75 -20 -134t-55 -96.5t-75 -60t-87 -35.5v-10q118 -25 196 -117.5t78 -240.5 q0 -100 -39 -178t-106 -124.5t-150 -70.5t-176 -24q-73 0 -140 14t-127 45.5t-104 77.5t-70 114t-26 150zM358 408q0 -125 39 -176.5t115 -51.5q78 0 118 53t40 177q0 121 -39.5 174t-118.5 53q-77 0 -115.5 -52.5t-38.5 -176.5zM381 1036q0 -54 8.5 -93t20.5 -60.5t31 -34 t35.5 -16t37.5 -3.5q27 0 47 7t41 27.5t32 65t11 111.5q0 64 -10.5 108t-30 66t-41.5 30.5t-51 8.5q-131 0 -131 -217z" />
<glyph unicode="9" d="M35 954q0 141 53.5 253t161 179.5t252.5 67.5q246 0 355.5 -176t109.5 -541q0 -391 -125.5 -574t-382.5 -183q-187 0 -288 107t-101 275v52q0 24 9 32.5t30 8.5h249q20 0 28.5 -8.5t8.5 -32.5v-52q0 -25 -3.5 -34t-24.5 -25l-33 -27q0 -40 32 -68t101 -28 q65 0 102.5 28.5t58.5 109.5t21 229v67q-51 -39 -104 -60.5t-125 -21.5q-177 0 -281 115t-104 307zM336 991q0 -126 41 -192t115 -66q80 0 115.5 63t35.5 197q0 258 -149 258q-158 0 -158 -260z" />
<glyph unicode=":" horiz-adv-x="471" d="M70 145q0 69 48 117.5t118 48.5q69 0 117 -48.5t48 -117.5q0 -70 -48 -117.5t-117 -47.5q-71 0 -118.5 47.5t-47.5 117.5zM70 616q0 69 48 117.5t118 48.5q69 0 117 -48.5t48 -117.5q0 -70 -48 -117.5t-117 -47.5q-71 0 -118.5 47.5t-47.5 117.5z" />
<glyph unicode=";" horiz-adv-x="471" d="M61 -205q-8 12 9 25q100 72 116 168q-52 13 -84 56.5t-32 100.5q0 69 48 117.5t120 48.5q70 0 115.5 -49.5t45.5 -142.5q0 -132 -75.5 -240t-186.5 -178q-9 -6 -20 10zM70 616q0 69 48 117.5t118 48.5q69 0 117 -48.5t48 -117.5q0 -70 -48 -117.5t-117 -47.5 q-71 0 -118.5 47.5t-47.5 117.5z" />
<glyph unicode="&#x3c;" d="M61 539v200q0 8 9 11l880 407q5 3 9 0.5t4 -6.5v-203q0 -9 -9 -12l-653 -299l653 -297q9 -3 9 -12v-201q0 -12 -13 -8l-880 407q-9 3 -9 13z" />
<glyph unicode="=" d="M61 330v200q0 3 3 6t6 3h884q3 0 6 -3t3 -6v-200q0 -8 -9 -8h-884q-9 0 -9 8zM61 739v201q0 8 9 8h884q9 0 9 -8v-201q0 -8 -9 -8h-884q-9 0 -9 8z" />
<glyph unicode="&#x3e;" d="M61 127v201q0 9 9 12l653 297l-653 299q-9 3 -9 12v203q0 4 4 6.5t9 -0.5l880 -407q9 -3 9 -11v-200q0 -10 -9 -13l-880 -407q-13 -4 -13 8z" />
<glyph unicode="?" d="M72 936v92q0 205 122 315.5t326 110.5q206 0 321 -108t115 -275q0 -64 -18.5 -121t-47.5 -99t-64.5 -80.5t-71.5 -72t-65 -66.5t-47.5 -71t-18.5 -78v-45q0 -8 -9 -8h-174q-20 0 -29.5 8.5t-9.5 32.5v18q0 79 25.5 147.5t61.5 118t72 97t61.5 106.5t25.5 125 q0 168 -139 168q-70 0 -108 -38t-38 -97v-26l29 -21q16 -10 20.5 -21.5t4.5 -37.5v-107q0 -8 -8 -8h-299q-37 0 -37 41zM346 145q0 69 48 117.5t118 48.5q69 0 117.5 -48.5t48.5 -117.5q0 -70 -48.5 -117.5t-117.5 -47.5q-71 0 -118.5 47.5t-47.5 117.5z" />
<glyph unicode="@" horiz-adv-x="1605" d="M61 412q0 210 105.5 380.5t280 263.5t378.5 93q200 0 365 -90t259.5 -244.5t94.5 -339.5q0 -116 -39 -210.5t-105.5 -156t-154 -95t-186.5 -33.5q-76 0 -112.5 24t-49.5 88q-24 -39 -79 -74.5t-134 -35.5q-125 0 -204 107t-79 329q0 117 23.5 205t65 138.5t91.5 74.5 t109 24q71 0 123 -31.5t82 -72.5v43q0 23 9 32t28 9h285q8 0 8 -9v-108q0 -25 -19 -35l-51 -29v-483q0 -49 39 -49q27 0 62 22t70 62t59 108.5t24 149.5q0 110 -44 212.5t-120 180t-186 124t-234 46.5q-170 0 -308.5 -83.5t-216 -225.5t-77.5 -311t78 -311.5t216 -226 t306 -83.5q152 0 287 74l57 -109q-158 -82 -344 -82q-152 0 -291 55t-243 151t-166 235t-62 297zM680 424q0 -102 13.5 -161.5t34 -79t52.5 -19.5q61 0 105 76v381q-50 57 -105 57q-33 0 -53.5 -19.5t-33.5 -77t-13 -157.5z" />
<glyph unicode="A" horiz-adv-x="1169" d="M0 8v111q0 26 18 35l72 30l268 1055l-96 41q-18 9 -18 35v110q0 9 8 9h463q23 0 31.5 -7t13.5 -26l321 -1217l72 -30q18 -9 18 -35v-111q0 -8 -8 -8h-491q-8 0 -8 8v111q0 26 18 35l92 39l-49 204h-354l-49 -204l92 -39q18 -9 18 -35v-111q0 -8 -8 -8h-416q-8 0 -8 8z M422 600h254l-125 533z" />
<glyph unicode="B" horiz-adv-x="1071" d="M33 8v111q0 26 18 35l92 39v1048l-92 39q-18 9 -18 35v110q0 9 8 9h526q114 0 201 -29.5t138 -81.5t76.5 -117t25.5 -141q0 -125 -62.5 -207t-167.5 -123v-6q123 -36 183.5 -113.5t60.5 -232.5q0 -211 -116 -297t-363 -86h-502q-8 0 -8 8zM446 199h70q112 0 157.5 47 t45.5 170q0 114 -46 165.5t-171 51.5h-56v-434zM446 827h48q120 0 169.5 44t49.5 165q0 113 -48.5 157t-170.5 44h-48v-410z" />
<glyph unicode="C" horiz-adv-x="1005" d="M61 692q0 146 13 260t44.5 210.5t82 159t127.5 97.5t180 35q86 0 135.5 -29t83.5 -75l23 63q7 21 34 21h136q8 0 8 -9v-452q0 -8 -8 -8h-154q-24 0 -34 9.5t-13 31.5q-5 41 -10 69t-16.5 62t-27.5 54t-42.5 34t-61.5 14q-40 0 -68.5 -11.5t-48 -41t-31.5 -65.5t-18 -99.5 t-8 -128t-2 -164.5v-207q0 -82 6.5 -138.5t23 -102t47 -67t77.5 -21.5q78 0 114.5 51.5t36.5 154.5v93q0 36 43 36h170q23 0 32 -9t9 -27v-78q0 -224 -103 -329t-306 -105q-169 0 -271 68t-152.5 224.5t-50.5 419.5z" />
<glyph unicode="D" horiz-adv-x="1116" d="M33 8v111q0 26 18 35l92 39v1048l-92 39q-18 9 -18 35v110q0 9 8 9h569q108 0 187 -35.5t138.5 -116.5t89.5 -221t30 -340q0 -177 -21 -304.5t-58.5 -208t-99.5 -127t-133 -64t-170 -17.5h-532q-8 0 -8 8zM446 199h140q91 0 124 118t33 402q0 89 -2 149.5t-7 124.5 t-16 104.5t-28 74.5t-43 49.5t-61 15.5h-140v-1038z" />
<glyph unicode="E" horiz-adv-x="1046" d="M33 8v111q0 26 18 35l92 39v1048l-92 39q-18 9 -18 35v110q0 9 8 9h924q8 0 8 -9v-434q0 -8 -8 -8h-117q-27 0 -38 9t-17 32l-25 104q-15 60 -36 84.5t-70 24.5h-216v-401h93l36 112q6 21 16 28t30 7h110q8 0 8 -8v-461q0 -8 -8 -8h-110q-20 0 -30 6.5t-16 26.5l-36 112 h-93v-452h148q79 0 119.5 27t58.5 96l29 120q12 43 49 43h127q8 0 8 -8v-469q0 -8 -8 -8h-936q-8 0 -8 8z" />
<glyph unicode="F" horiz-adv-x="1054" d="M33 8v111q0 26 18 35l92 39v1048l-92 39q-18 9 -18 35v110q0 9 8 9h969q8 0 8 -9v-434q0 -8 -8 -8h-121q-27 0 -38 9t-17 32l-25 104q-15 59 -36.5 84t-70.5 25h-256v-442h134l36 112q6 21 16 28t30 7h110q8 0 8 -8v-461q0 -8 -8 -8h-110q-20 0 -30 6.5t-16 26.5l-36 112 h-134v-411l113 -45q19 -10 19 -35v-111q0 -8 -9 -8h-528q-8 0 -8 8z" />
<glyph unicode="G" horiz-adv-x="1060" d="M61 692q0 146 13 260t44.5 210.5t82 159t127.5 97.5t180 35q86 0 135.5 -29t83.5 -75l23 63q7 21 34 21h136q8 0 8 -9v-432q0 -8 -8 -8h-154q-24 0 -34 9.5t-13 31.5q-12 101 -44.5 158t-103.5 57q-40 0 -69.5 -12t-50 -40.5t-33.5 -67t-20.5 -99.5t-10 -128.5 t-2.5 -164.5q0 -173 9 -277.5t32.5 -162.5t54.5 -77t84 -19q87 0 123.5 66.5t36.5 193.5v57l-96 41q-19 6 -19 35v137q0 8 8 8h326q25 0 37.5 -9t15 -19.5t2.5 -28.5v-305q0 -57 21 -78v-35q-193 -276 -485 -276q-81 0 -147.5 20t-115 55t-85.5 87t-60.5 111.5t-38.5 133 t-21 147t-6 158.5z" />
<glyph unicode="H" horiz-adv-x="1226" d="M33 8v111q0 26 18 35l92 39v1048l-92 39q-18 9 -18 35v110q0 9 8 9h508q8 0 8 -9v-110q0 -26 -18 -35l-93 -39v-389h334v389l-92 39q-18 9 -18 35v110q0 9 8 9h508q8 0 8 -9v-110q0 -26 -18 -35l-93 -39v-1048l93 -39q18 -9 18 -35v-111q0 -8 -8 -8h-508q-8 0 -8 8v111 q0 26 18 35l92 39v436h-334v-436l93 -39q18 -9 18 -35v-111q0 -8 -8 -8h-508q-8 0 -8 8z" />
<glyph unicode="I" horiz-adv-x="589" d="M33 8v111q0 26 18 35l92 39v1048l-92 39q-18 9 -18 35v110q0 9 8 9h508q8 0 8 -9v-110q0 -26 -18 -35l-93 -39v-1048l93 -39q18 -9 18 -35v-111q0 -8 -8 -8h-508q-8 0 -8 8z" />
<glyph unicode="J" horiz-adv-x="942" d="M20 365q0 68 25 215q5 22 12 28t29 6h250q8 0 8 -8v-190q0 -21 -4.5 -31t-22.5 -18l-26 -15q-4 -28 -4 -47q0 -51 24 -92t80 -41q109 0 109 133v936l-92 39q-19 10 -19 35v110q0 9 8 9h508q8 0 8 -9v-110q0 -26 -18 -35l-92 -39v-827q0 -434 -400 -434q-177 0 -280 97.5 t-103 287.5z" />
<glyph unicode="K" horiz-adv-x="1210" d="M33 8v111q0 26 18 35l92 39v1048l-92 39q-18 9 -18 35v110q0 9 8 9h508q8 0 8 -9v-110q0 -26 -18 -35l-93 -39v-424l347 426l-86 37q-19 10 -19 35v110q0 9 8 9h469q3 0 6 -3t3 -6v-110q0 -25 -19 -35l-92 -39l-295 -334l338 -710l86 -43q18 -9 18 -35v-111q0 -8 -8 -8 h-540q-9 0 -9 8v111q0 25 19 35l86 36l-201 476l-111 -125v-348l93 -39q18 -9 18 -35v-111q0 -8 -8 -8h-508q-8 0 -8 8z" />
<glyph unicode="L" horiz-adv-x="970" d="M33 8v111q0 26 18 35l92 39v1048l-92 39q-18 9 -18 35v110q0 9 8 9h508q8 0 8 -9v-110q0 -26 -18 -35l-93 -39v-1042h101q79 0 119.5 27t58.5 96l29 120q12 43 49 43h127q8 0 8 -8v-469q0 -8 -8 -8h-889q-8 0 -8 8z" />
<glyph unicode="M" horiz-adv-x="1521" d="M33 8v111q0 26 18 35l92 39v1048l-92 39q-18 9 -18 35v110q0 9 8 9h481q28 0 36.5 -8t14.5 -35l185 -799l180 799q4 17 5.5 21.5t6 12t12 8.5t21.5 1h498q8 0 8 -9v-110q0 -25 -19 -35l-92 -39v-1048l92 -39q19 -10 19 -35v-111q0 -8 -8 -8h-508q-8 0 -8 8v111 q0 26 18 35l92 39v952l-262 -1100q-7 -29 -18 -37t-41 -8h-70q-30 0 -41 8t-18 37l-256 1077v-929l92 -39q18 -9 18 -35v-111q0 -8 -8 -8h-430q-8 0 -8 8z" />
<glyph unicode="N" horiz-adv-x="1187" d="M33 8v111q0 26 18 35l92 39v1048l-92 39q-18 9 -18 35v110q0 9 8 9h383q40 0 59 -48l336 -837v692l-92 39q-18 9 -18 35v110q0 9 8 9h430q8 0 8 -9v-110q0 -26 -18 -35l-93 -39v-1233q0 -8 -8 -8h-245q-22 0 -34 8.5t-20 28.5l-368 899v-743l92 -39q18 -9 18 -35v-111 q0 -8 -8 -8h-430q-8 0 -8 8z" />
<glyph unicode="O" horiz-adv-x="1122" d="M61 713q0 183 23.5 315.5t64 214t105.5 129.5t137 65t170 17q97 0 169 -17t137 -65t106 -129.5t64.5 -214t23.5 -315.5q0 -173 -22 -300.5t-61.5 -210t-103 -132.5t-138.5 -70t-175 -20q-104 0 -179.5 19.5t-138.5 68.5t-101.5 132t-59.5 210t-21 303zM385 711 q0 -302 34.5 -409t141.5 -107q43 0 72.5 16.5t49.5 51.5t31.5 98.5t16 146.5t4.5 207q0 128 -4.5 212t-15.5 148t-32 98t-51 50t-75 16q-53 0 -85.5 -23.5t-52.5 -87t-27 -160t-7 -257.5z" />
<glyph unicode="P" horiz-adv-x="1071" d="M33 8v111q0 26 18 35l92 39v1048l-92 39q-18 9 -18 35v110q0 9 8 9h598q179 0 277 -121t98 -324q0 -109 -25 -192t-63 -131t-91.5 -78.5t-102 -40.5t-101.5 -10h-185v-340l117 -41q19 -10 19 -35v-113q0 -8 -9 -8h-532q-8 0 -8 8zM446 731h84q102 0 141.5 70t39.5 194 q0 116 -38 176t-143 60h-84v-500z" />
<glyph unicode="Q" horiz-adv-x="1122" d="M61 713q0 183 23.5 315.5t64 214t105.5 129.5t137 65t170 17q97 0 169 -17t137 -65t106 -129.5t64.5 -214t23.5 -315.5q0 -283 -56.5 -443.5t-168.5 -228.5q67 -78 174 -78q50 0 90 19q12 6 17 1t5 -24v-182q0 -22 -20 -31q-68 -29 -139 -29q-111 0 -206 69.5t-153 195.5 q-14 -2 -43 -2q-104 0 -179.5 19.5t-138.5 68.5t-101.5 132t-59.5 210t-21 303zM385 711q0 -302 34.5 -409t141.5 -107q43 0 72.5 16.5t49.5 51.5t31.5 98.5t16 146.5t4.5 207q0 128 -4.5 212t-15.5 148t-32 98t-51 50t-75 16q-53 0 -85.5 -23.5t-52.5 -87t-27 -160 t-7 -257.5z" />
<glyph unicode="R" horiz-adv-x="1124" d="M33 8v111q0 26 18 35l92 39v1048l-92 39q-18 9 -18 35v110q0 9 8 9h496q66 0 118 -5t109 -19t98.5 -41t76 -68t52 -104.5t17.5 -145.5q0 -291 -248 -363v-4q33 -9 60 -27t43.5 -36.5t34 -53.5t26 -57.5t24.5 -69.5l88 -254l56 -22q19 -9 25.5 -18.5t6.5 -26.5v-111 q0 -8 -8 -8h-297q-22 0 -33.5 8.5t-17.5 28.5l-135 440q-16 49 -46 72.5t-85 23.5h-56v-380l93 -39q18 -9 18 -35v-111q0 -8 -8 -8h-508q-8 0 -8 8zM446 778h43q113 0 164.5 49.5t51.5 169.5q0 74 -10.5 119t-37.5 71t-65.5 35t-102.5 9h-43v-453z" />
<glyph unicode="S" horiz-adv-x="1015" d="M57 8v510q0 8 9 8h153q33 0 41.5 -8.5t13.5 -38.5q5 -40 11.5 -72t23.5 -76t40.5 -73.5t64 -50.5t92.5 -21q72 0 121 40t49 120q0 49 -21 88t-57 67t-82 53t-97.5 48.5t-102.5 49.5t-97 61.5t-82 79t-57 106t-21 139.5q0 190 117 303t291 113q139 0 231 -104l23 63 q7 21 35 21h135q8 0 8 -9v-452q0 -8 -8 -8h-150q-33 0 -43 7t-14 36q-20 104 -44 148q-49 89 -151 89q-67 0 -112 -34t-45 -111q0 -40 22 -74.5t59 -61t85 -52.5t101 -52.5t105.5 -56t100.5 -68.5t85 -85.5t59 -111.5t22 -141q0 -110 -39 -193t-104.5 -130.5t-141.5 -70.5 t-160 -23q-73 0 -129.5 20.5t-80 41t-48.5 50.5l-39 -74q-6 -11 -11.5 -14.5t-18.5 -3.5h-133q-9 0 -9 8z" />
<glyph unicode="T" horiz-adv-x="1130" d="M53 973v473q0 8 8 8h29q39 -20 90 -20h770q51 0 90 20h29q8 0 8 -8v-473q0 -8 -8 -8h-131q-49 0 -55 43l-17 120q-5 34 -8 50t-12 33t-24 22.5t-40 5.5h-65v-1046l92 -39q18 -9 18 -35v-111q0 -8 -8 -8h-508q-8 0 -8 8v111q0 25 19 35l92 39v1046h-66q-47 0 -61 -23 t-23 -88l-16 -120q-6 -43 -55 -43h-132q-8 0 -8 8z" />
<glyph unicode="U" horiz-adv-x="1173" d="M33 1315v110q0 9 8 9h508q8 0 8 -9v-110q0 -26 -18 -35l-93 -39v-866q0 -93 47 -136.5t128 -43.5q78 0 128 45t50 141v860l-92 39q-19 10 -19 35v110q0 9 8 9h437q8 0 8 -9v-110q0 -25 -19 -35l-92 -39v-885q0 -189 -119 -282.5t-313 -93.5q-235 0 -345 97.5t-110 272.5 v891l-92 39q-18 9 -18 35z" />
<glyph unicode="V" horiz-adv-x="1148" d="M0 1315v110q0 9 8 9h512q8 0 8 -9v-110q0 -26 -18 -35l-92 -39l188 -872l193 872l-92 39q-19 10 -19 35v110q0 9 8 9h445q8 0 8 -9v-110q0 -25 -19 -35l-92 -39l-282 -1196q-7 -29 -19 -37t-43 -8h-225q-30 0 -41 8t-18 37l-299 1196l-93 39q-18 9 -18 35z" />
<glyph unicode="W" horiz-adv-x="1570" d="M0 1315v110q0 9 8 9h479q3 0 6 -3t3 -6v-110q0 -25 -19 -35l-92 -39l139 -729l154 731l-80 37q-18 9 -18 35v110q0 9 8 9h465q8 0 8 -9v-110q0 -25 -19 -35l-84 -37l160 -731l137 729l-92 39q-18 9 -18 35v110q0 9 8 9h410q8 0 8 -9v-110q0 -25 -19 -35l-73 -31 l-254 -1204q-6 -28 -18 -36.5t-44 -8.5h-133q-31 0 -42 8t-17 37l-176 856l-168 -856q-6 -29 -17.5 -37t-42.5 -8h-133q-32 0 -42.5 8t-16.5 37l-287 1206l-70 29q-18 9 -18 35z" />
<glyph unicode="X" horiz-adv-x="1107" d="M0 8v111q0 26 18 35l82 36l301 531l-280 520l-92 39q-19 10 -19 35v110q0 9 8 9h514q3 0 6 -3t3 -6v-110q0 -25 -19 -35l-92 -39l158 -295l153 295l-92 39q-18 9 -18 35v110q0 9 8 9h451q8 0 8 -9v-110q0 -25 -19 -35l-84 -37l-290 -512l292 -538l93 -39q18 -9 18 -35 v-111q0 -8 -8 -8h-514q-8 0 -8 8v111q0 26 18 35l92 39l-170 311l-160 -311l93 -39q18 -9 18 -35v-111q0 -8 -8 -8h-453q-8 0 -8 8z" />
<glyph unicode="Y" horiz-adv-x="1148" d="M0 1315v110q0 9 8 9h512q8 0 8 -9v-110q0 -26 -18 -35l-86 -37l190 -471l197 469l-92 39q-19 10 -19 35v110q0 3 3 6t6 3h432q8 0 8 -9v-110q0 -25 -19 -35l-77 -29l-326 -749v-309l92 -39q19 -10 19 -35v-111q0 -8 -9 -8h-507q-9 0 -9 8v111q0 25 19 35l92 39v329 l-328 725l-78 33q-18 9 -18 35z" />
<glyph unicode="Z" d="M61 8v174q0 22 15 47l561 1008h-238q-49 0 -70.5 -21t-37.5 -77l-33 -113q-8 -25 -19 -34t-38 -9h-119q-8 0 -8 8v434q0 9 8 9h862q8 0 8 -9v-174q0 -19 -14 -47l-537 -1005h172q80 0 120.5 27t58.5 96l28 120q12 43 49 43h127q9 0 9 -8v-469q0 -8 -9 -8h-886q-9 0 -9 8z " />
<glyph unicode="[" horiz-adv-x="686" d="M143 -258v1786q0 8 9 8h485q8 0 8 -8v-160q0 -8 -8 -8h-236v-1450h236q8 0 8 -8v-160q0 -8 -8 -8h-485q-9 0 -9 8z" />
<glyph unicode="\" horiz-adv-x="688" d="M1.5 1450.5q2.5 3.5 6.5 3.5h199q7 0 10 -8l469 -1452q3 -7 0.5 -10.5t-6.5 -3.5h-199q-7 0 -10 8l-469 1452q-3 7 -0.5 10.5z" />
<glyph unicode="]" horiz-adv-x="686" d="M41 -98q0 8 8 8h236v1450h-236q-8 0 -8 8v160q0 8 8 8h486q8 0 8 -8v-1786q0 -8 -8 -8h-486q-8 0 -8 8v160z" />
<glyph unicode="^" horiz-adv-x="614" d="M23 852l174 573q3 9 12 9h201q7 0 10 -9l172 -573q3 -5 0.5 -8.5t-6.5 -3.5h-121q-9 0 -12 8l-146 387l-145 -387q-3 -8 -12 -8h-119q-12 0 -8 12z" />
<glyph unicode="_" horiz-adv-x="704" d="M-8 -139q0 8 8 8h705q8 0 8 -8v-201q0 -8 -8 -8h-705q-8 0 -8 8v201z" />
<glyph unicode="`" horiz-adv-x="450" d="M-48.5 1428.5q1.5 5.5 7.5 5.5h225q10 0 13 -9l118 -389q4 -12 -8 -12h-143q-9 0 -12 8l-199 385q-3 6 -1.5 11.5z" />
<glyph unicode="a" horiz-adv-x="786" d="M25 195q0 94 61.5 155t214.5 109l125 39v102q0 121 -113 121q-31 0 -71 -14q39 -36 39 -89q0 -46 -36 -78t-83 -32q-49 0 -82 34t-33 81q0 85 99.5 161t244.5 76t225 -87t80 -236v-338q0 -49 52 -49q18 0 18 -15v-117q0 -7 -6 -10q-72 -28 -152 -28q-140 0 -166 118 q-75 -118 -206 -118q-38 0 -73.5 11.5t-67.5 35t-51 67t-19 101.5zM266 236q0 -44 23 -66.5t57 -22.5q44 0 80 41v158l-64 -10q-96 -16 -96 -100z" />
<glyph unicode="b" horiz-adv-x="917" d="M20 1317v108q0 3 3 6t6 3h295q18 0 27 -9t9 -32v-607q84 74 209 74q143 0 222 -105t79 -327q0 -101 -24.5 -180.5t-64 -129t-93.5 -81.5t-109 -44.5t-116 -12.5q-373 0 -373 415v858l-51 29q-19 10 -19 35zM360 408q0 -105 12.5 -160t34.5 -71.5t62 -16.5q63 0 93 54.5 t30 207.5q0 83 -9.5 136.5t-29 78t-40 33t-50.5 8.5q-27 0 -57.5 -18t-45.5 -39v-213z" />
<glyph unicode="c" horiz-adv-x="743" d="M47 406q0 215 109 334.5t286 119.5q130 0 201.5 -69t71.5 -168q0 -62 -40.5 -108t-103.5 -46q-53 0 -87.5 26.5t-34.5 79.5q0 66 49 99q-31 24 -68 24q-113 0 -113 -151v-162q0 -110 41 -163.5t115 -53.5q95 0 158 59q17 17 31 0l59 -67q12 -14 0 -29 q-123 -151 -299 -151q-157 0 -266 114.5t-109 311.5z" />
<glyph unicode="d" horiz-adv-x="890" d="M47 418q0 117 23.5 205t65 138.5t92.5 74.5t110 24q112 0 192 -90v483l-51 29q-18 9 -18 35v108q0 9 8 9h295q19 0 28 -9t9 -32v-1194q0 -28 13 -38.5t38 -10.5q18 0 18 -15v-117q0 -7 -6 -10q-72 -28 -145 -28q-160 0 -178 126q-22 -46 -79 -86t-140 -40 q-124 0 -199.5 107.5t-75.5 330.5zM326 424q0 -147 26 -203.5t74 -56.5q64 0 104 72v385q-23 28 -44 41.5t-54 13.5q-34 0 -55.5 -18.5t-36 -76t-14.5 -157.5z" />
<glyph unicode="e" horiz-adv-x="800" d="M47 406q0 199 103.5 326.5t283.5 127.5q100 0 174 -43.5t109 -110t35 -143.5q0 -94 -47 -146t-144 -52h-244q-1 -96 40.5 -146.5t121.5 -50.5q100 0 180 68q14 11 25 0l64 -74q14 -14 4 -29q-128 -153 -326 -153q-166 0 -272.5 110.5t-106.5 315.5zM315 496h99 q102 0 102 102q0 39 -27 66.5t-69 27.5q-44 0 -74.5 -36.5t-30.5 -104.5v-55z" />
<glyph unicode="f" horiz-adv-x="483" d="M20 8v111q0 25 19 35l51 28v477l-51 29q-19 10 -19 35v108q0 3 3 6t6 3h61v59q0 238 131 396.5t318 158.5q81 0 123.5 -37t42.5 -98q0 -54 -36.5 -88.5t-90.5 -34.5q-28 0 -57 16t-48.5 35t-39.5 35t-32 16q-23 0 -32 -34.5t-9 -122.5v-301h136q8 0 8 -9v-159q0 -8 -8 -8 h-136v-482l66 -35q18 -9 18 -34v-105q0 -8 -8 -8h-407q-9 0 -9 8z" />
<glyph unicode="g" horiz-adv-x="798" d="M35.5 -13.5q-9.5 23.5 1.5 40.5l113 290q-107 79 -107 230q0 134 85 218t230 93q0 129 63 203t165 74q72 0 113.5 -35.5t41.5 -95.5q0 -51 -29 -84t-81 -33q-41 0 -68 21t-35 50q-32 -8 -32 -108q120 -26 188 -108.5t68 -196.5q0 -137 -99.5 -218t-265.5 -81 q-57 0 -98 10l-33 -92q108 14 174 14q375 0 375 -248q0 -138 -108 -218.5t-304 -80.5q-168 0 -258 56t-90 137q0 48 33 79t90 31q50 0 81.5 -24.5t31.5 -69.5q0 -10 -7 -45q15 -9 55 -15.5t74 -6.5q69 0 110.5 30t41.5 74q0 94 -211 94q-43 0 -152 -4t-114 -4 q-33 0 -42.5 23.5zM307 551q0 -160 92 -160q93 0 93 160t-93 160q-46 0 -69 -37.5t-23 -122.5z" />
<glyph unicode="h" horiz-adv-x="886" d="M20 8v111q0 25 19 35l51 28v1071l-51 29q-19 10 -19 35v108q0 3 3 6t6 3h295q18 0 27 -9t9 -32v-639q25 28 46 46.5t67.5 39t99.5 20.5q111 0 167.5 -77.5t56.5 -198.5v-402l51 -28q18 -9 18 -35v-111q0 -8 -8 -8h-381q-8 0 -8 8v115q0 26 18 35l39 18v414q0 80 -71 80 q-26 0 -52.5 -17t-42.5 -35v-442l39 -18q19 -10 19 -35v-115q0 -8 -8 -8h-381q-9 0 -9 8z" />
<glyph unicode="i" horiz-adv-x="450" d="M20 8v111q0 25 19 35l51 28v477l-51 29q-19 10 -19 35v108q0 3 3 6t6 3h295q18 0 27 -9t9 -32v-617l52 -28q18 -9 18 -35v-111q0 -8 -8 -8h-393q-9 0 -9 8zM61 1180q0 66 44.5 110.5t111.5 44.5q66 0 111 -44.5t45 -110.5q0 -67 -45 -111.5t-111 -44.5q-67 0 -111.5 44 t-44.5 112z" />
<glyph unicode="j" horiz-adv-x="425" d="M-188 -254q0 45 28 76t72 31q34 0 73.5 -27t53.5 -27q16 0 25.5 7t17.5 37t8 85v731l-51 29q-19 10 -19 35v108q0 3 3 6t6 3h295q18 0 27 -9t9 -32v-613q0 -112 -29.5 -207.5t-75 -157.5t-101.5 -106.5t-109 -64t-98 -19.5q-54 0 -94.5 31.5t-40.5 83.5zM61 1180 q0 66 44.5 110.5t111.5 44.5q66 0 111 -44.5t45 -110.5q0 -67 -45 -111.5t-111 -44.5q-67 0 -111.5 44t-44.5 112z" />
<glyph unicode="k" horiz-adv-x="878" d="M20 8v111q0 25 19 35l51 28v1071l-51 29q-19 10 -19 35v108q0 3 3 6t6 3h295q18 0 27 -9t9 -32v-889l109 112q32 33 42.5 62.5t10.5 77.5v75q0 9 8 9h310q8 0 8 -9v-110q0 -25 -19 -35l-59 -29l-174 -153l221 -324l43 -26q19 -10 19 -35v-111q0 -8 -9 -8h-170 q-56 0 -85.5 13t-53.5 53l-201 335v-219l52 -28q18 -9 18 -35v-111q0 -8 -8 -8h-393q-9 0 -9 8z" />
<glyph unicode="l" horiz-adv-x="450" d="M20 8v111q0 25 19 35l51 28v1071l-51 29q-19 10 -19 35v108q0 3 3 6t6 3h295q18 0 27 -9t9 -32v-1211l52 -28q18 -9 18 -35v-111q0 -8 -8 -8h-393q-9 0 -9 8z" />
<glyph unicode="m" horiz-adv-x="1314" d="M20 8v111q0 25 19 35l51 28v477l-51 29q-19 10 -19 35v108q0 3 3 6t6 3h284q19 0 28 -9t9 -32v-58q93 119 221 119q72 0 122.5 -36t74.5 -97q51 63 107 98t129 35q111 0 166 -77.5t55 -198.5v-402l51 -28q18 -9 18 -35v-111q0 -8 -8 -8h-381q-8 0 -8 8v115q0 26 18 35 l39 18v414q0 80 -69 80q-54 0 -92 -54v-440l38 -18q19 -10 19 -35v-115q0 -8 -8 -8h-369q-8 0 -8 8v115q0 26 18 35l39 18v414q0 80 -69 80q-26 0 -53 -16.5t-40 -35.5v-442l39 -18q19 -10 19 -35v-115q0 -8 -8 -8h-381q-9 0 -9 8z" />
<glyph unicode="n" horiz-adv-x="886" d="M20 8v111q0 25 19 35l51 28v477l-51 29q-19 10 -19 35v108q0 3 3 6t6 3h284q19 0 28 -9t9 -32v-58q97 119 223 119q111 0 167.5 -77.5t56.5 -198.5v-402l51 -28q18 -9 18 -35v-111q0 -8 -8 -8h-381q-8 0 -8 8v115q0 26 18 35l39 18v414q0 80 -71 80q-49 0 -95 -52v-442 l39 -18q19 -10 19 -35v-115q0 -8 -8 -8h-381q-9 0 -9 8z" />
<glyph unicode="o" horiz-adv-x="868" d="M47 420q0 214 101 327t286 113t286 -113t101 -327t-101 -327t-286 -113t-286 113t-101 327zM317 420q0 -141 24.5 -200.5t92.5 -59.5t92.5 59.5t24.5 200.5t-24.5 200.5t-92.5 59.5t-92.5 -59.5t-24.5 -200.5z" />
<glyph unicode="p" horiz-adv-x="905" d="M20 -229q0 25 19 34l51 29v825l-51 29q-19 10 -19 35v108q0 3 3 6t6 3h284q19 0 28 -9t9 -32v-58q26 42 84 80.5t129 38.5q59 0 110.5 -24t93.5 -73.5t66.5 -135.5t24.5 -199q0 -115 -28 -204t-74 -140.5t-101 -77.5t-114 -26q-66 0 -114.5 31t-66.5 61v-238l66 -35 q18 -9 18 -35v-104q0 -8 -8 -8h-407q-9 0 -9 8v111zM360 219q44 -55 103 -55q117 0 117 258q0 82 -10.5 136t-30 78.5t-38.5 33t-44 8.5q-27 0 -54.5 -15t-42.5 -34v-410z" />
<glyph unicode="q" horiz-adv-x="890" d="M47 418q0 117 23.5 205t65 138.5t92.5 74.5t110 24q69 0 121.5 -31.5t81.5 -72.5v43q0 23 9 32t28 9h284q8 0 8 -9v-108q0 -26 -18 -35l-51 -29v-825l51 -29q18 -9 18 -34v-111q0 -8 -8 -8h-407q-9 0 -9 8v104q0 26 19 35l65 35v258q-23 -35 -80.5 -72.5t-132.5 -37.5 q-116 0 -193 108t-77 328zM326 424q0 -102 13.5 -161.5t34 -79t52.5 -19.5q60 0 104 76v381q-50 57 -104 57q-33 0 -53.5 -19.5t-33.5 -77t-13 -157.5z" />
<glyph unicode="r" horiz-adv-x="694" d="M20 8v111q0 25 19 35l51 28v477l-51 29q-19 10 -19 35v108q0 3 3 6t6 3h295q18 0 27 -9t9 -32v-58q81 119 189 119q63 0 102 -39t39 -102q0 -64 -39 -106t-96 -42q-50 0 -83.5 31.5t-39.5 75.5q-42 -7 -72 -45v-451l66 -35q18 -9 18 -34v-105q0 -8 -8 -8h-407q-9 0 -9 8z " />
<glyph unicode="s" horiz-adv-x="718" d="M35 170q0 65 41.5 100t89.5 35q47 0 81 -23.5t34 -66.5q0 -45 -21 -74q36 -18 82 -18q38 0 64 22t26 60q0 35 -28 61.5t-69.5 43.5t-90 41t-90 51.5t-69.5 78t-28 117.5q0 125 94.5 193.5t241.5 68.5q108 0 189.5 -56t81.5 -140q0 -53 -35.5 -86t-83.5 -33q-39 0 -73 25 t-34 61t31 76q-28 20 -82 20q-33 0 -56.5 -21t-23.5 -57q0 -43 39.5 -75.5t95.5 -56t112.5 -52t96 -80t39.5 -123.5q0 -121 -93.5 -201.5t-264.5 -80.5q-137 0 -217 53t-80 137z" />
<glyph unicode="t" horiz-adv-x="538" d="M20 723v108q0 3 3 6t6 3h71v286q0 41 37 41h182q21 0 31 -9t10 -32v-286h136q8 0 8 -9v-159q0 -8 -8 -8h-136v-412q0 -90 68 -90q32 0 66 24q9 7 18.5 2.5t9.5 -20.5v-55q0 -27 -16 -43q-90 -90 -203 -90q-110 0 -161.5 78.5t-51.5 201.5v399l-51 29q-19 10 -19 35z" />
<glyph unicode="u" horiz-adv-x="890" d="M20 723v108q0 3 3 6t6 3h295q18 0 27 -9t9 -32v-537q0 -41 21.5 -66.5t58.5 -25.5q50 0 90 45v444l-51 29q-18 9 -18 35v108q0 9 8 9h295q19 0 28 -9t9 -32v-598q0 -21 8 -32.5t17 -14.5t26 -4q18 0 18 -15v-117q0 -7 -6 -10q-21 -11 -65.5 -19.5t-85.5 -8.5 q-71 0 -115.5 31.5t-54.5 90.5q-88 -122 -226 -122q-115 0 -171 77t-56 199v403l-51 29q-19 10 -19 35z" />
<glyph unicode="v" horiz-adv-x="780" d="M0 723v108q0 9 8 9h369q8 0 8 -9v-104q0 -29 -23 -39l-32 -12l88 -440l96 440l-37 12q-22 9 -22 39v104q0 9 8 9h309q8 0 8 -9v-108q0 -26 -18 -35l-51 -29l-160 -651q-3 -8 -10 -8h-308q-9 0 -12 12l-151 647l-52 29q-18 9 -18 35z" />
<glyph unicode="w" horiz-adv-x="1210" d="M0 723v108q0 9 8 9h367q8 0 8 -9v-104q0 -29 -23 -39l-30 -12l88 -440l80 366q10 47 10 125v104q0 9 8 9h240q8 0 8 -9v-104q0 -76 10 -123l74 -368l96 440l-31 12q-22 9 -22 39v104q0 9 8 9h303q8 0 8 -9v-108q0 -26 -18 -35l-51 -29l-160 -651q-3 -8 -10 -8h-256 q-10 0 -13 12l-106 451l-96 -455q-3 -8 -11 -8h-256q-9 0 -12 12l-151 647l-52 29q-18 9 -18 35z" />
<glyph unicode="x" horiz-adv-x="765" d="M0 8v111q0 26 18 35l52 28l161 236l-161 241l-47 27q-19 10 -19 35v110q0 9 8 9h385q3 0 6 -3t3 -6v-96q0 -25 -19 -35l-31 -14l90 -141l80 139l-37 16q-18 9 -18 35v96q0 9 8 9h275q8 0 8 -9v-110q0 -25 -19 -35l-51 -29l-157 -235l161 -240l52 -28q18 -9 18 -35v-111 q0 -8 -8 -8h-398q-8 0 -8 8v96q0 26 19 35l37 17l-86 137l-82 -137l36 -17q19 -9 19 -35v-96q0 -8 -8 -8h-279q-8 0 -8 8z" />
<glyph unicode="y" horiz-adv-x="780" d="M0 -221q0 56 35 88.5t80 32.5q33 0 83 -22.5t70 -22.5q34 0 54 21t34 77l13 47h-136q-9 0 -12 12l-151 647l-52 29q-18 9 -18 35v108q0 9 8 9h373q8 0 8 -9v-104q0 -33 -22 -39l-37 -12l90 -457l94 457l-37 12q-22 6 -22 39v104q0 9 8 9h309q8 0 8 -9v-108q0 -26 -18 -35 l-51 -29l-164 -677q-38 -159 -130.5 -255t-228.5 -96q-89 0 -138.5 41t-49.5 107z" />
<glyph unicode="z" horiz-adv-x="753" d="M29 8v133q0 13 8 21l403 514h-139q-39 0 -53 -11.5t-25 -46.5l-10 -32q-8 -25 -19 -34t-38 -9h-107q-8 0 -8 8v280q0 9 8 9h653q3 0 6 -3t3 -6v-133q0 -11 -9 -20l-389 -510h117q60 0 84 17t35 59l8 32q7 23 16.5 31t36.5 8h107q8 0 8 -8v-299q0 -8 -8 -8h-680q-8 0 -8 8 z" />
<glyph unicode="{" horiz-adv-x="686" d="M51 582v198q0 8 8 8h37q129 0 129 203v148q0 116 21.5 191.5t73 122t128.5 65t195 18.5h14q9 0 9 -8v-160q0 -8 -9 -8h-14q-83 0 -121.5 -53t-38.5 -158v-176q0 -92 -51 -171.5t-129 -115.5v-10q78 -36 129 -115.5t51 -171.5v-268q0 -105 38.5 -158t121.5 -53h14 q9 0 9 -8v-160q0 -8 -9 -8h-14q-118 0 -195 18.5t-128.5 65t-73 122t-21.5 191.5v240q0 98 -32.5 150t-96.5 52h-37q-8 0 -8 9z" />
<glyph unicode="|" horiz-adv-x="589" d="M186 -258v1786q0 8 9 8h200q8 0 8 -8v-1786q0 -8 -8 -8h-200q-9 0 -9 8z" />
<glyph unicode="}" horiz-adv-x="686" d="M20 -98q0 8 9 8h14q83 0 121.5 53t38.5 158v268q0 92 51 171.5t129 115.5v10q-78 36 -129 115.5t-51 171.5v176q0 105 -38.5 158t-121.5 53h-14q-9 0 -9 8v160q0 8 9 8h14q118 0 195 -18.5t128.5 -65t73 -122t21.5 -191.5v-148q0 -203 129 -203h37q8 0 8 -8v-198 q0 -9 -8 -9h-37q-64 0 -96.5 -52t-32.5 -150v-240q0 -116 -21.5 -191.5t-73 -122t-128.5 -65t-195 -18.5h-14q-9 0 -9 8v160z" />
<glyph unicode="~" d="M61 514v145q0 22 9 31q38 38 107.5 72.5t129.5 34.5q63 0 219 -51.5t219 -51.5q85 0 201 105q4 5 10.5 4t6.5 -8v-146q0 -22 -9 -31q-116 -122 -237 -122q-59 0 -215 51t-223 51q-55 0 -108.5 -26.5t-92.5 -61.5q-4 -5 -10.5 -4t-6.5 8z" />
<glyph unicode="&#xa1;" horiz-adv-x="589" d="M125 -586l61 987q0 3 3 6t6 3h200q8 0 8 -9l62 -987q0 -8 -8 -8h-324q-8 0 -8 8zM129 694q0 70 47.5 118t118.5 48q69 0 117.5 -48t48.5 -118q0 -69 -48.5 -117.5t-117.5 -48.5q-70 0 -118 48.5t-48 117.5z" />
<glyph unicode="&#xa2;" horiz-adv-x="788" d="M41 1047q0 161 80.5 263t216.5 132v127q0 8 8 8h176q8 0 8 -8v-121q109 -18 166.5 -79.5t57.5 -143.5q0 -64 -35.5 -102t-95.5 -38q-48 0 -81.5 28.5t-33.5 76.5q0 63 41 88q-28 14 -96 14q-158 0 -158 -223v-43q0 -121 41 -173t117 -52q64 0 96 16q-41 29 -41 88 q0 49 34 78t83 29q61 0 95 -38t34 -106q0 -80 -58 -140.5t-166 -80.5v-127q0 -8 -8 -8h-176q-8 0 -8 8v127q-138 26 -217.5 125.5t-79.5 274.5z" />
<glyph unicode="&#xa3;" d="M33 8v111q0 26 18 35l92 39v397h-102q-8 0 -8 8v209q0 8 8 8h102v203q0 227 108 331.5t343 104.5q203 0 295 -108t92 -324v-53q0 -41 -37 -41h-258q-8 0 -8 8v88q0 27 4 38t20 21l29 21v24q0 123 -139 123q-146 0 -146 -180v-256h285q8 0 8 -8v-209q0 -8 -8 -8h-285v-391 h148q79 0 119.5 27t58.5 96l29 120q12 43 49 43h127q8 0 8 -8v-469q0 -8 -8 -8h-936q-8 0 -8 8z" />
<glyph unicode="&#xa4;" d="M86 412q0 18 10 30l68 68q-47 86 -47 192q0 121 57 207l-78 76q-10 12 -10 31t10 31l86 83q12 12 30 11t30 -13l77 -77q90 49 193 49q100 0 190 -51l82 79q12 12 31 12t31 -12l84 -81q12 -12 11 -31t-13 -31l-78 -80q57 -93 57 -203q0 -108 -49 -190l72 -70 q12 -12 12 -29.5t-12 -29.5l-84 -86q-12 -11 -30 -11t-30 11l-69 68q-89 -56 -205 -56t-205 53l-65 -65q-12 -11 -30 -11t-30 11l-86 84q-10 13 -10 31zM309 700q0 -85 60 -144.5t145 -59.5t145 59.5t60 144.5t-60 145t-145 60t-145 -60t-60 -145z" />
<glyph unicode="&#xa5;" horiz-adv-x="1148" d="M0 1315v110q0 9 8 9h512q8 0 8 -9v-110q0 -26 -18 -35l-86 -37l184 -455l191 453l-92 39q-19 10 -19 35v110q0 9 8 9h445q8 0 8 -9v-110q0 -25 -19 -35l-77 -29l-176 -405h180q8 0 8 -8v-201q0 -8 -8 -8h-275l-49 -111h324q8 0 8 -8v-201q0 -8 -8 -8h-330v-108l92 -39 q19 -10 19 -35v-111q0 -8 -9 -8h-507q-9 0 -9 8v111q0 25 19 35l92 39v108h-334q-8 0 -8 8v201q0 8 8 8h336l-51 111h-285q-8 0 -8 8v201q0 8 8 8h186l-180 401l-78 33q-18 9 -18 35z" />
<glyph unicode="&#xa6;" horiz-adv-x="589" d="M186 -258v762q0 8 9 8h200q8 0 8 -8v-762q0 -8 -8 -8h-200q-9 0 -9 8zM186 766v762q0 8 9 8h200q8 0 8 -8v-762q0 -8 -8 -8h-200q-9 0 -9 8z" />
<glyph unicode="&#xa7;" d="M41 705q0 88 45.5 153t126.5 103q-90 77 -90 194q0 93 57 163t143 103t185 33q141 0 240.5 -65.5t99.5 -161.5q0 -63 -40.5 -100t-94.5 -37q-48 0 -87.5 27.5t-39.5 72.5q0 47 37 84q-31 24 -99 24q-53 0 -85.5 -26t-32.5 -64t31.5 -67.5t82.5 -50t112 -40t122.5 -44.5 t112.5 -56.5t82.5 -82t31.5 -115.5q0 -80 -44.5 -153.5t-129.5 -117.5q92 -72 92 -182q0 -130 -114.5 -224.5t-311.5 -94.5q-159 0 -257.5 63.5t-98.5 161.5q0 74 48 113.5t109 39.5q51 0 89 -27t38 -81q0 -53 -22 -82q48 -21 106 -21q46 0 83.5 26t37.5 67q0 37 -31 65 t-81 47.5t-110 38.5t-120.5 44.5t-110.5 58.5t-81 87t-31 124zM324 758q0 -20 8 -38t26 -33t35.5 -26t49.5 -24t54 -21t62 -21.5t62 -21.5q44 11 66 39.5t22 59.5q0 18 -7.5 33.5t-24.5 29.5t-34.5 25t-47 23t-51.5 20.5t-60 22t-60 22.5q-40 0 -70 -24t-30 -66z" />
<glyph unicode="&#xa8;" horiz-adv-x="450" d="M-57 1176q0 56 37 93.5t94 37.5q56 0 93.5 -37.5t37.5 -93.5q0 -57 -37.5 -94.5t-93.5 -37.5q-57 0 -94 37.5t-37 94.5zM246 1176q0 56 37 93.5t94 37.5q55 0 93 -37.5t38 -93.5q0 -57 -37.5 -94.5t-93.5 -37.5q-57 0 -94 37.5t-37 94.5z" />
<glyph unicode="&#xa9;" horiz-adv-x="1605" d="M61 717q0 203 100 373t270.5 267t371.5 97q151 0 287.5 -57.5t236 -155.5t158.5 -235t59 -289t-59 -289t-158.5 -235t-236 -155.5t-287.5 -57.5q-201 0 -371.5 97t-270.5 267t-100 373zM195 717q0 -169 80 -313t220 -229t308 -85t308 85t220 229t80 313 q0 126 -47.5 241.5t-128 200t-193.5 134.5t-239 50t-239 -50t-193.5 -134.5t-128 -200t-47.5 -241.5zM522 702q0 110 13 190.5t43 142.5t83 93t130 31q88 0 131 -63l14 39q5 12 20 12h78q8 0 8 -8v-265q0 -8 -8 -8h-88q-25 0 -28 25q-5 42 -12 68.5t-28 49.5t-55 23 q-29 0 -48 -12t-30.5 -32.5t-17.5 -61.5t-8 -85t-2 -116v-125q0 -99 19 -144.5t73 -45.5q48 0 70 27.5t22 88.5v56q0 22 25 22h102q25 0 25 -22v-47q0 -261 -246 -261q-152 0 -218.5 97t-66.5 331z" />
<glyph unicode="&#xaa;" horiz-adv-x="651" d="M55 989q0 66 42.5 106.5t154.5 78.5l84 28v66q0 82 -72 82q-24 0 -39 -9q25 -19 25 -59q0 -36 -27 -60t-63 -24q-38 0 -63 25t-25 61q0 60 71.5 115t175.5 55t162 -61.5t58 -167.5v-236q0 -31 28 -31q23 0 23 -14v-78q0 -11 -10 -14q-40 -14 -105 -14q-90 0 -115 67 q-59 -67 -149 -67q-64 0 -110 35.5t-46 115.5zM72 588v160q0 8 8 8h483q8 0 8 -8v-160q0 -8 -8 -8h-483q-8 0 -8 8zM240 1018q0 -28 14 -42.5t35 -14.5q29 0 47 22v104l-37 -8q-59 -13 -59 -61z" />
<glyph unicode="&#xab;" horiz-adv-x="833" d="M22 444.5q0 10.5 15 32.5l233 309q11 15 31 15h123q10 0 12.5 -7.5t-2.5 -15.5l-190 -334l190 -333q5 -7 2.5 -15t-12.5 -8h-123q-21 0 -31 14l-233 310q-15 22 -15 32.5zM366 444.5q0 10.5 15 32.5l233 309q11 15 31 15h123q10 0 12.5 -7.5t-2.5 -15.5l-190 -334 l190 -333q5 -7 2.5 -15t-12.5 -8h-123q-21 0 -31 14l-233 310q-15 22 -15 32.5z" />
<glyph unicode="&#xac;" d="M61 739v201q0 8 9 8h884q9 0 9 -8v-584q0 -8 -9 -8h-200q-9 0 -9 8v375h-675q-9 0 -9 8z" />
<glyph unicode="&#xad;" horiz-adv-x="0" />
<glyph unicode="&#xae;" horiz-adv-x="741" d="M61 1147q0 128 91 217.5t219 89.5t218.5 -89.5t90.5 -217.5t-90.5 -217.5t-218.5 -89.5t-219 89.5t-91 217.5zM129 1147q0 -104 70 -177t172 -73q101 0 171 73.5t70 176.5q0 102 -70 175t-171 73q-102 0 -172 -73t-70 -175zM254 975v31q0 2 4 6l23 10v250l-23 10 q-4 0 -4 6v29h121q51 0 80.5 -18t29.5 -72q0 -71 -57 -86v-2q19 -5 27.5 -18.5t15.5 -39.5l23 -61l12 -6q6 -2 6 -8v-31h-72q-9 0 -12 10l-33 105q-6 22 -30 22h-13v-90l23 -10q4 -2 4 -6v-31h-125zM352 1161h10q27 0 38.5 11t11.5 40q0 35 -10 46.5t-40 11.5h-10v-109z" />
<glyph unicode="&#xaf;" horiz-adv-x="450" d="M-31 1079v201q0 8 8 8h496q8 0 8 -8v-201q0 -8 -8 -8h-496q-8 0 -8 8z" />
<glyph unicode="&#xb0;" horiz-adv-x="831" d="M39 1079q0 162 109.5 268.5t267.5 106.5t267.5 -106.5t109.5 -268.5t-109.5 -268t-267.5 -106t-267.5 106t-109.5 268zM258 1079q0 -74 43.5 -123t114.5 -49t114 49t43 123t-43 123t-114 49t-114.5 -49t-43.5 -123z" />
<glyph unicode="&#xb1;" d="M61 8v201q0 8 9 8h884q9 0 9 -8v-201q0 -8 -9 -8h-884q-9 0 -9 8zM61 535v200q0 8 9 8h333v375q0 8 9 8h200q9 0 9 -8v-375h333q9 0 9 -8v-200q0 -3 -3 -6t-6 -3h-333v-231q0 -8 -9 -8h-200q-9 0 -9 8v231h-333q-3 0 -6 3t-3 6z" />
<glyph unicode="&#xb2;" horiz-adv-x="696" d="M49 850v121q0 96 44 153.5t163 135.5l37 24q121 82 121 193q0 90 -70 90q-34 0 -52 -18.5t-18 -47.5v-18l11 -8q14 -11 19 -19.5t5 -25.5v-52q0 -16 -16 -16h-211q-19 0 -25 5.5t-6 25.5v57q0 125 83.5 192.5t225.5 67.5q129 0 209 -64.5t80 -179.5q0 -46 -9.5 -81.5 t-24.5 -62.5t-49 -57.5t-65.5 -53.5t-92.5 -64l-31 -21q-65 -43 -85 -73t-20 -72h123q30 0 43.5 11t22.5 40l18 64q5 19 12 25.5t27 6.5h109q12 0 12 -12v-266q0 -8 -8 -8h-574q-8 0 -8 8z" />
<glyph unicode="&#xb3;" horiz-adv-x="696" d="M29 1096v45q0 23 4.5 29t25.5 6h211q13 0 13 -13v-61q0 -15 -4 -21.5t-19 -13.5l-12 -6v-25q0 -29 24.5 -47t65.5 -18q86 0 86 123q0 63 -24.5 89.5t-84.5 26.5h-10q-26 0 -36.5 7t-10.5 28v76q0 23 10.5 31t36.5 8h17q88 0 88 113q0 94 -76 94q-35 0 -57.5 -18 t-22.5 -42l16 -10q8 -5 11 -8t5.5 -10t2.5 -19v-51q0 -12 -10 -12h-189q-47 0 -47 39v30q0 121 85 182.5t216 61.5q129 0 211 -59t82 -166q0 -127 -135 -193q160 -58 160 -205q0 -110 -84 -184t-244 -74q-305 0 -305 267z" />
<glyph unicode="&#xb4;" horiz-adv-x="450" d="M141 1036l119 389q3 9 12 9h226q6 0 7.5 -5.5t-1.5 -11.5l-199 -385q-3 -8 -12 -8h-143q-13 0 -9 12z" />
<glyph unicode="&#xb5;" horiz-adv-x="890" d="M20 723v108q0 3 3 6t6 3h295q18 0 27 -9t9 -32v-537q0 -41 21.5 -66.5t58.5 -25.5q50 0 90 45v444l-51 29q-18 9 -18 35v108q0 9 8 9h295q19 0 28 -9t9 -32v-598q0 -21 8 -32.5t17 -14.5t26 -4q18 0 18 -15v-117q0 -7 -6 -10q-21 -11 -65.5 -19.5t-85.5 -8.5 q-71 0 -115.5 31.5t-54.5 90.5q-47 -62 -99 -92q-44 -21 -84 -26v-291q0 -23 -10 -32t-31 -9h-192q-37 0 -37 41v966l-51 29q-19 10 -19 35z" />
<glyph unicode="&#xb6;" horiz-adv-x="1306" d="M53 1042q0 193 76 292.5t223 99.5h914q8 0 8 -9v-108q0 -25 -19 -35l-51 -29v-1593q0 -8 -8 -8h-317q-9 0 -9 8v104q0 26 19 35l65 35v1405h-198v-1579q0 -8 -8 -8h-318q-8 0 -8 8v104q0 26 18 35l66 35v828h-148q-43 0 -81 8t-80.5 33t-73 65t-50.5 110.5t-20 163.5z M315 1049q0 -43 1.5 -68.5t8.5 -56t19.5 -47t36.5 -28t59 -11.5h66v399h-66q-30 0 -51.5 -5.5t-35 -19t-21.5 -27.5t-11.5 -39t-4.5 -44t-1 -53z" />
<glyph unicode="&#xb7;" horiz-adv-x="471" d="M70 725q0 69 48 117.5t118 48.5q69 0 117 -48.5t48 -117.5q0 -70 -48 -118t-117 -48q-70 0 -118 47.5t-48 118.5z" />
<glyph unicode="&#xb8;" horiz-adv-x="450" d="M17 -334q-2 5 1 12l19 76q5 24 31 15q72 -25 108 -25q30 0 45 7.5t15 27.5q0 25 -14 33t-50 8h-59q-26 0 -36.5 9t-10.5 28q0 35 102 143h154q-41 -58 -50 -72q131 -25 131 -139q0 -86 -62.5 -126t-150.5 -40q-75 0 -157 31l-11 5.5t-5 6.5z" />
<glyph unicode="&#xb9;" horiz-adv-x="468" d="M29 1501v58q0 18 9 25.5t28 10.5q86 15 118 78q11 25 47 25h86q22 0 32.5 -7.5t10.5 -29.5v-686l50 -19q32 -11 32 -34v-72q0 -8 -8 -8h-385q-8 0 -8 8v72q0 14 5.5 21t23.5 13l65 25v483h-61q-24 0 -34.5 8t-10.5 29z" />
<glyph unicode="&#xba;" horiz-adv-x="651" d="M51 1143q0 149 73 228t202 79t200.5 -79t71.5 -228q0 -146 -71.5 -224.5t-200.5 -78.5t-202 78.5t-73 224.5zM66 588v160q0 8 8 8h483q8 0 8 -8v-160q0 -8 -8 -8h-483q-8 0 -8 8zM244 1143q0 -95 17 -136.5t65 -41.5q47 0 63.5 41t16.5 137q0 99 -16.5 140.5t-63.5 41.5 q-48 0 -65 -42t-17 -140z" />
<glyph unicode="&#xbb;" horiz-adv-x="833" d="M53 96q-3 8 2 15l191 333l-191 334q-5 8 -2 15.5t13 7.5h122q20 0 31 -15l234 -309q15 -22 15 -32.5t-15 -32.5l-234 -310q-10 -14 -31 -14h-122q-10 0 -13 8zM397 96q-3 8 2 15l191 333l-191 334q-5 8 -2 15.5t13 7.5h122q20 0 31 -15l234 -309q15 -22 15 -32.5 t-15 -32.5l-234 -310q-10 -14 -31 -14h-122q-10 0 -13 8z" />
<glyph unicode="&#xbc;" horiz-adv-x="1492" d="M29 1237v57q0 31 37 37q86 15 118 78q11 25 47 25h86q22 0 32.5 -7.5t10.5 -29.5v-686l50 -19q32 -11 32 -35v-71q0 -8 -8 -8h-385q-8 0 -8 8v71q0 14 5.5 21.5t23.5 13.5l65 25v483h-61q-24 0 -34.5 8t-10.5 29zM188 -6l674 1452q3 8 10 8h199q4 0 6.5 -3.5t-0.5 -10.5 l-674 -1452q-3 -8 -10 -8h-198q-4 0 -7 3.5t0 10.5zM817 248v65q84 236 260 514q19 29 56 29h165q36 0 47 -12t11 -33v-446h94q8 0 8 -9v-135q0 -8 -8 -8h-94v-80l47 -18q35 -14 35 -35v-72q0 -8 -8 -8h-379q-9 0 -9 8v72q0 15 6.5 22t24.5 13l66 22v76h-275q-26 0 -36.5 7 t-10.5 28zM1006 365h133v278q-76 -137 -133 -278z" />
<glyph unicode="&#xbd;" horiz-adv-x="1492" d="M29 1237v57q0 31 37 37q86 15 118 78q11 25 47 25h86q22 0 32.5 -7.5t10.5 -29.5v-686l50 -19q32 -11 32 -35v-71q0 -8 -8 -8h-385q-8 0 -8 8v71q0 14 5.5 21.5t23.5 13.5l65 25v483h-61q-24 0 -34.5 8t-10.5 29zM188 -6l674 1452q3 8 10 8h199q4 0 6.5 -3.5t-0.5 -10.5 l-674 -1452q-3 -8 -10 -8h-198q-4 0 -7 3.5t0 10.5zM846 8v121q0 96 44 153.5t163 135.5l37 24q57 39 88.5 84t31.5 109q0 90 -69 90q-34 0 -52 -18.5t-18 -47.5v-18l10 -8q25 -19 25 -45v-51q0 -6 -4.5 -11.5t-11.5 -5.5h-211q-19 0 -25 5.5t-6 25.5v57q0 125 83.5 192.5 t225.5 67.5q129 0 209 -64.5t80 -178.5q0 -57 -12 -97t-46.5 -78.5t-71 -66t-112.5 -78.5l-30 -20q-65 -43 -85 -73.5t-20 -72.5h123q30 0 43 11t22 40l19 64q5 20 12 26.5t27 6.5h108q13 0 13 -13v-266q0 -8 -9 -8h-573q-8 0 -8 8z" />
<glyph unicode="&#xbe;" horiz-adv-x="1720" d="M29 831v46q0 23 4.5 28.5t25.5 5.5h211q13 0 13 -12v-61q0 -15 -4 -21.5t-19 -13.5l-12 -6v-25q0 -29 24.5 -47t65.5 -18q86 0 86 122q0 63 -24.5 90t-84.5 27h-10q-26 0 -36.5 7t-10.5 28v76q0 23 10.5 31t36.5 8h17q88 0 88 112q0 95 -76 95q-35 0 -57.5 -18t-22.5 -42 l16 -10q8 -5 11 -8t5.5 -10t2.5 -19v-51q0 -12 -10 -12h-189q-24 0 -35.5 8t-11.5 30v31q0 121 85 182.5t216 61.5q129 0 211 -59t82 -166q0 -127 -135 -193q160 -58 160 -205q0 -110 -84 -184t-244 -74q-305 0 -305 266zM415.5 -16.5q-2.5 3.5 0.5 10.5l674 1452q3 8 10 8 h198q4 0 7 -3.5t0 -10.5l-674 -1452q-3 -8 -10 -8h-199q-4 0 -6.5 3.5zM1044 248v65q82 232 261 514q19 29 55 29h166q36 0 46.5 -11.5t10.5 -33.5v-446h94q3 0 6 -3t3 -6v-135q0 -8 -9 -8h-94v-80l47 -18q35 -14 35 -35v-72q0 -8 -8 -8h-379q-8 0 -8 8v72q0 15 6 22t24 13 l66 22v76h-274q-26 0 -37 7t-11 28zM1233 365h133v278q-76 -137 -133 -278z" />
<glyph unicode="&#xbf;" d="M92 -231q0 64 18.5 121t48 99t65 80t71 72t65 66.5t48 70.5t18.5 78v45q0 9 8 9h174q20 0 29.5 -8.5t9.5 -32.5v-19q0 -79 -25.5 -147.5t-61.5 -118t-72 -97t-61.5 -106.5t-25.5 -125q0 -168 140 -168q69 0 107 38t38 98v26l-29 21q-16 10 -20 21t-4 38v107q0 8 8 8h299 q37 0 37 -41v-92q0 -205 -122.5 -315.5t-326.5 -110.5q-206 0 -321 108t-115 275zM371 694q0 70 48.5 118t117.5 48q70 0 117.5 -47.5t47.5 -118.5q0 -69 -47.5 -117.5t-117.5 -48.5q-69 0 -117.5 48.5t-48.5 117.5z" />
<glyph unicode="&#xc0;" horiz-adv-x="1169" d="M0 8v111q0 26 18 35l72 30l268 1055l-96 41q-18 9 -18 35v110q0 9 8 9h463q23 0 31.5 -7t13.5 -26l321 -1217l72 -30q18 -9 18 -35v-111q0 -8 -8 -8h-491q-8 0 -8 8v111q0 26 18 35l92 39l-49 204h-354l-49 -204l92 -39q18 -9 18 -35v-111q0 -8 -8 -8h-416q-8 0 -8 8z M254.5 1961q1.5 5 7.5 5h225q10 0 13 -8l118 -389q4 -13 -8 -13h-143q-9 0 -12 9l-199 385q-3 6 -1.5 11zM422 600h254l-125 533z" />
<glyph unicode="&#xc1;" horiz-adv-x="1169" d="M0 8v111q0 26 18 35l72 30l268 1055l-96 41q-18 9 -18 35v110q0 9 8 9h463q23 0 31.5 -7t13.5 -26l321 -1217l72 -30q18 -9 18 -35v-111q0 -8 -8 -8h-491q-8 0 -8 8v111q0 26 18 35l92 39l-49 204h-354l-49 -204l92 -39q18 -9 18 -35v-111q0 -8 -8 -8h-416q-8 0 -8 8z M422 600h254l-125 533zM444 1569l119 389q3 8 12 8h226q6 0 7.5 -5t-1.5 -11l-199 -385q-3 -9 -12 -9h-143q-13 0 -9 13z" />
<glyph unicode="&#xc2;" horiz-adv-x="1169" d="M0 8v111q0 26 18 35l72 30l268 1055l-96 41q-18 9 -18 35v110q0 9 8 9h463q23 0 31.5 -7t13.5 -26l321 -1217l72 -30q18 -9 18 -35v-111q0 -8 -8 -8h-491q-8 0 -8 8v111q0 26 18 35l92 39l-49 204h-354l-49 -204l92 -39q18 -9 18 -35v-111q0 -8 -8 -8h-416q-8 0 -8 8z M299 1569l119 389q3 8 12 8h201q7 0 10 -8l117 -389q3 -5 0.5 -9t-6.5 -4h-121q-10 0 -13 9l-90 202l-90 -202q-3 -9 -12 -9h-119q-12 0 -8 13zM422 600h254l-125 533z" />
<glyph unicode="&#xc3;" horiz-adv-x="1169" d="M0 8v111q0 26 18 35l72 30l268 1055l-96 41q-18 9 -18 35v110q0 9 8 9h463q23 0 31.5 -7t13.5 -26l321 -1217l72 -30q18 -9 18 -35v-111q0 -8 -8 -8h-491q-8 0 -8 8v111q0 26 18 35l92 39l-49 204h-354l-49 -204l92 -39q18 -9 18 -35v-111q0 -8 -8 -8h-416q-8 0 -8 8z M291 1710q-4 21 4 37q13 31 53 65.5t82 34.5q31 0 106.5 -31.5t102.5 -31.5q23 0 41.5 14t32 28.5t24.5 14.5t14 -5t5 -19l12 -97q4 -21 -4 -37q-12 -30 -51.5 -66t-83.5 -36q-31 0 -107 32t-104 32q-22 0 -40 -14t-31.5 -28t-24.5 -14q-16 0 -19 25zM422 600h254l-125 533z " />
<glyph unicode="&#xc4;" horiz-adv-x="1169" d="M0 8v111q0 26 18 35l72 30l268 1055l-96 41q-18 9 -18 35v110q0 9 8 9h463q23 0 31.5 -7t13.5 -26l321 -1217l72 -30q18 -9 18 -35v-111q0 -8 -8 -8h-491q-8 0 -8 8v111q0 26 18 35l92 39l-49 204h-354l-49 -204l92 -39q18 -9 18 -35v-111q0 -8 -8 -8h-416q-8 0 -8 8z M246 1708q0 56 37 93.5t94 37.5q55 0 93 -37.5t38 -93.5q0 -57 -37.5 -94t-93.5 -37q-57 0 -94 37t-37 94zM422 600h254l-125 533zM549 1708q0 56 37 93.5t94 37.5q56 0 93.5 -37.5t37.5 -93.5q0 -57 -37.5 -94t-93.5 -37q-57 0 -94 37t-37 94z" />
<glyph unicode="&#xc5;" horiz-adv-x="1169" d="M0 8v111q0 26 18 35l72 30l293 1149q-57 69 -57 166q0 106 74.5 182t181.5 76q106 0 182 -76t76 -182q0 -94 -62 -166l303 -1149l72 -30q18 -9 18 -35v-111q0 -8 -8 -8h-491q-8 0 -8 8v111q0 26 18 35l92 39l-49 204h-354l-49 -204l92 -39q18 -9 18 -35v-111q0 -8 -8 -8 h-416q-8 0 -8 8zM422 600h254l-125 533zM485 1499q0 -41 28 -68.5t69 -27.5q43 0 70.5 27.5t27.5 68.5q0 43 -27.5 70.5t-70.5 27.5q-42 0 -69.5 -27.5t-27.5 -70.5z" />
<glyph unicode="&#xc6;" horiz-adv-x="1644" d="M0 8v111q0 26 18 35l72 30l420 1055l-96 41q-19 10 -19 35v110q0 9 8 9h1160q8 0 8 -9v-434q0 -8 -8 -8h-117q-27 0 -38 9t-17 32l-25 104q-15 60 -36 84.5t-70 24.5h-216v-401h93l37 112q6 21 15.5 28t29.5 7h110q8 0 8 -8v-461q0 -8 -8 -8h-110q-20 0 -29.5 6t-15.5 27 l-37 112h-93v-452h148q79 0 119.5 27t58.5 96l29 120q12 43 49 43h127q8 0 8 -8v-469q0 -8 -8 -8h-936q-8 0 -8 8v111q0 26 18 35l92 39v204h-323l-76 -204l92 -39q19 -10 19 -35v-111q0 -8 -9 -8h-436q-8 0 -8 8zM494 600h247v639h-10z" />
<glyph unicode="&#xc7;" horiz-adv-x="1005" d="M61 692q0 146 13 260t44.5 210.5t82 159t127.5 97.5t180 35q86 0 135.5 -29t83.5 -75l23 63q7 21 34 21h136q8 0 8 -9v-452q0 -8 -8 -8h-154q-24 0 -34 9.5t-13 31.5q-5 41 -10 69t-16.5 62t-27.5 54t-42.5 34t-61.5 14q-40 0 -68.5 -11.5t-48 -41t-31.5 -65.5t-18 -99.5 t-8 -128t-2 -164.5v-207q0 -82 6.5 -138.5t23 -102t47 -67t77.5 -21.5q78 0 114.5 51.5t36.5 154.5v93q0 36 43 36h170q23 0 32 -9t9 -27v-78q0 -195 -77.5 -298.5t-231.5 -127.5q-19 -27 -39 -60q131 -25 131 -139q0 -86 -62.5 -126t-150.5 -40q-76 0 -158 31q-8 3 -10.5 5 t-4.5 7t1 12l18 76q5 24 31 15q72 -25 109 -25q30 0 44.5 7.5t14.5 27.5q0 25 -13.5 33t-49.5 8h-60q-26 0 -36.5 9t-10.5 28q0 34 86 125q-220 17 -317 179.5t-97 530.5z" />
<glyph unicode="&#xc8;" horiz-adv-x="1046" d="M33 8v111q0 26 18 35l92 39v1048l-92 39q-18 9 -18 35v110q0 9 8 9h924q8 0 8 -9v-434q0 -8 -8 -8h-117q-27 0 -38 9t-17 32l-25 104q-15 60 -36 84.5t-70 24.5h-216v-401h93l36 112q6 21 16 28t30 7h110q8 0 8 -8v-461q0 -8 -8 -8h-110q-20 0 -30 6.5t-16 26.5l-36 112 h-93v-452h148q79 0 119.5 27t58.5 96l29 120q12 43 49 43h127q8 0 8 -8v-469q0 -8 -8 -8h-936q-8 0 -8 8zM254.5 1961q1.5 5 7.5 5h225q10 0 13 -8l118 -389q4 -13 -8 -13h-143q-9 0 -12 9l-199 385q-3 6 -1.5 11z" />
<glyph unicode="&#xc9;" horiz-adv-x="1046" d="M33 8v111q0 26 18 35l92 39v1048l-92 39q-18 9 -18 35v110q0 9 8 9h924q8 0 8 -9v-434q0 -8 -8 -8h-117q-27 0 -38 9t-17 32l-25 104q-15 60 -36 84.5t-70 24.5h-216v-401h93l36 112q6 21 16 28t30 7h110q8 0 8 -8v-461q0 -8 -8 -8h-110q-20 0 -30 6.5t-16 26.5l-36 112 h-93v-452h148q79 0 119.5 27t58.5 96l29 120q12 43 49 43h127q8 0 8 -8v-469q0 -8 -8 -8h-936q-8 0 -8 8zM444 1569l119 389q3 8 12 8h226q6 0 7.5 -5t-1.5 -11l-199 -385q-3 -9 -12 -9h-143q-13 0 -9 13z" />
<glyph unicode="&#xca;" horiz-adv-x="1046" d="M33 8v111q0 26 18 35l92 39v1048l-92 39q-18 9 -18 35v110q0 9 8 9h924q8 0 8 -9v-434q0 -8 -8 -8h-117q-27 0 -38 9t-17 32l-25 104q-15 60 -36 84.5t-70 24.5h-216v-401h93l36 112q6 21 16 28t30 7h110q8 0 8 -8v-461q0 -8 -8 -8h-110q-20 0 -30 6.5t-16 26.5l-36 112 h-93v-452h148q79 0 119.5 27t58.5 96l29 120q12 43 49 43h127q8 0 8 -8v-469q0 -8 -8 -8h-936q-8 0 -8 8zM299 1569l119 389q3 8 12 8h201q7 0 10 -8l117 -389q3 -5 0.5 -9t-6.5 -4h-121q-10 0 -13 9l-90 202l-90 -202q-3 -9 -12 -9h-119q-12 0 -8 13z" />
<glyph unicode="&#xcb;" horiz-adv-x="1046" d="M33 8v111q0 26 18 35l92 39v1048l-92 39q-18 9 -18 35v110q0 9 8 9h924q8 0 8 -9v-434q0 -8 -8 -8h-117q-27 0 -38 9t-17 32l-25 104q-15 60 -36 84.5t-70 24.5h-216v-401h93l36 112q6 21 16 28t30 7h110q8 0 8 -8v-461q0 -8 -8 -8h-110q-20 0 -30 6.5t-16 26.5l-36 112 h-93v-452h148q79 0 119.5 27t58.5 96l29 120q12 43 49 43h127q8 0 8 -8v-469q0 -8 -8 -8h-936q-8 0 -8 8zM246 1708q0 56 37 93.5t94 37.5q55 0 93 -37.5t38 -93.5q0 -57 -37.5 -94t-93.5 -37q-57 0 -94 37t-37 94zM549 1708q0 56 37 93.5t94 37.5q56 0 93.5 -37.5 t37.5 -93.5q0 -57 -37.5 -94t-93.5 -37q-57 0 -94 37t-37 94z" />
<glyph unicode="&#xcc;" horiz-adv-x="589" d="M23.5 1961q1.5 5 7.5 5h225q9 0 12 -8l119 -389q4 -13 -8 -13h-143q-10 0 -13 9l-198 385q-3 6 -1.5 11zM33 8v111q0 26 18 35l92 39v1048l-92 39q-18 9 -18 35v110q0 9 8 9h508q8 0 8 -9v-110q0 -26 -18 -35l-93 -39v-1048l93 -39q18 -9 18 -35v-111q0 -8 -8 -8h-508 q-8 0 -8 8z" />
<glyph unicode="&#xcd;" horiz-adv-x="589" d="M33 8v111q0 26 18 35l92 39v1048l-92 39q-18 9 -18 35v110q0 9 8 9h508q8 0 8 -9v-110q0 -26 -18 -35l-93 -39v-1048l93 -39q18 -9 18 -35v-111q0 -8 -8 -8h-508q-8 0 -8 8zM213 1569l119 389q3 8 12 8h225q6 0 7.5 -5t-1.5 -11l-198 -385q-3 -9 -12 -9h-144q-12 0 -8 13 z" />
<glyph unicode="&#xce;" horiz-adv-x="589" d="M33 8v111q0 26 18 35l92 39v1048l-92 39q-18 9 -18 35v110q0 9 8 9h508q8 0 8 -9v-110q0 -26 -18 -35l-93 -39v-1048l93 -39q18 -9 18 -35v-111q0 -8 -8 -8h-508q-8 0 -8 8zM68 1569l118 389q3 8 13 8h200q8 0 11 -8l116 -389q3 -5 0.5 -9t-6.5 -4h-121q-9 0 -12 9 l-90 202l-90 -202q-3 -9 -12 -9h-119q-12 0 -8 13z" />
<glyph unicode="&#xcf;" horiz-adv-x="589" d="M14 1708q0 56 37 93.5t94 37.5q55 0 93 -37.5t38 -93.5q0 -57 -37.5 -94t-93.5 -37q-57 0 -94 37t-37 94zM33 8v111q0 26 18 35l92 39v1048l-92 39q-18 9 -18 35v110q0 9 8 9h508q8 0 8 -9v-110q0 -26 -18 -35l-93 -39v-1048l93 -39q18 -9 18 -35v-111q0 -8 -8 -8h-508 q-8 0 -8 8zM317 1708q0 56 37.5 93.5t94.5 37.5q55 0 93 -37.5t38 -93.5q0 -57 -37.5 -94t-93.5 -37q-57 0 -94.5 37t-37.5 94z" />
<glyph unicode="&#xd0;" horiz-adv-x="1116" d="M33 8v111q0 26 18 35l92 39v436h-102q-8 0 -8 8v207q0 8 8 8h102v389l-92 39q-18 9 -18 35v110q0 9 8 9h569q108 0 187 -35.5t138.5 -116.5t89.5 -221t30 -340q0 -177 -21 -304.5t-58.5 -208t-99.5 -127t-133 -64t-170 -17.5h-532q-8 0 -8 8zM446 209h140q91 0 124 114 t33 396q0 89 -2 149t-7 123.5t-16 103t-28 73t-43 48.5t-61 15h-140v-379h136q8 0 8 -8v-207q0 -8 -8 -8h-136v-420z" />
<glyph unicode="&#xd1;" horiz-adv-x="1187" d="M33 8v111q0 26 18 35l92 39v1048l-92 39q-18 9 -18 35v110q0 9 8 9h383q40 0 59 -48l336 -837v692l-92 39q-18 9 -18 35v110q0 9 8 9h430q8 0 8 -9v-110q0 -26 -18 -35l-93 -39v-1233q0 -8 -8 -8h-245q-22 0 -34 8.5t-20 28.5l-368 899v-743l92 -39q18 -9 18 -35v-111 q0 -8 -8 -8h-430q-8 0 -8 8zM340 1710q-4 21 4 37q13 31 53 65.5t82 34.5q31 0 106.5 -31.5t102.5 -31.5q23 0 41.5 14t32 28.5t24.5 14.5t14 -5t5 -19l12 -97q4 -21 -4 -37q-12 -30 -51.5 -66t-83.5 -36q-31 0 -107 32t-104 32q-29 0 -57 -28t-39 -28q-16 0 -19 25z" />
<glyph unicode="&#xd2;" horiz-adv-x="1122" d="M61 713q0 183 23.5 315.5t64 214t105.5 129.5t137 65t170 17q97 0 169 -17t137 -65t106 -129.5t64.5 -214t23.5 -315.5q0 -173 -22 -300.5t-61.5 -210t-103 -132.5t-138.5 -70t-175 -20q-104 0 -179.5 19.5t-138.5 68.5t-101.5 132t-59.5 210t-21 303zM287.5 1961 q1.5 5 7.5 5h225q9 0 12 -8l119 -389q4 -13 -8 -13h-143q-10 0 -13 9l-198 385q-3 6 -1.5 11zM385 711q0 -302 34.5 -409t141.5 -107q43 0 72.5 16.5t49.5 51.5t31.5 98.5t16 146.5t4.5 207q0 128 -4.5 212t-15.5 148t-32 98t-51 50t-75 16q-53 0 -85.5 -23.5t-52.5 -87 t-27 -160t-7 -257.5z" />
<glyph unicode="&#xd3;" horiz-adv-x="1122" d="M61 713q0 183 23.5 315.5t64 214t105.5 129.5t137 65t170 17q97 0 169 -17t137 -65t106 -129.5t64.5 -214t23.5 -315.5q0 -173 -22 -300.5t-61.5 -210t-103 -132.5t-138.5 -70t-175 -20q-104 0 -179.5 19.5t-138.5 68.5t-101.5 132t-59.5 210t-21 303zM385 711 q0 -302 34.5 -409t141.5 -107q43 0 72.5 16.5t49.5 51.5t31.5 98.5t16 146.5t4.5 207q0 128 -4.5 212t-15.5 148t-32 98t-51 50t-75 16q-53 0 -85.5 -23.5t-52.5 -87t-27 -160t-7 -257.5zM477 1569l119 389q3 8 12 8h226q6 0 7.5 -5t-1.5 -11l-199 -385q-3 -9 -12 -9h-144 q-12 0 -8 13z" />
<glyph unicode="&#xd4;" horiz-adv-x="1122" d="M61 713q0 183 23.5 315.5t64 214t105.5 129.5t137 65t170 17q97 0 169 -17t137 -65t106 -129.5t64.5 -214t23.5 -315.5q0 -173 -22 -300.5t-61.5 -210t-103 -132.5t-138.5 -70t-175 -20q-104 0 -179.5 19.5t-138.5 68.5t-101.5 132t-59.5 210t-21 303zM332 1569l119 389 q3 8 12 8h201q7 0 10 -8l117 -389q3 -5 0 -9t-7 -4h-120q-10 0 -13 9l-90 202l-90 -202q-3 -9 -12 -9h-119q-12 0 -8 13zM385 711q0 -302 34.5 -409t141.5 -107q43 0 72.5 16.5t49.5 51.5t31.5 98.5t16 146.5t4.5 207q0 128 -4.5 212t-15.5 148t-32 98t-51 50t-75 16 q-53 0 -85.5 -23.5t-52.5 -87t-27 -160t-7 -257.5z" />
<glyph unicode="&#xd5;" horiz-adv-x="1122" d="M61 713q0 183 23.5 315.5t64 214t105.5 129.5t137 65t170 17q97 0 169 -17t137 -65t106 -129.5t64.5 -214t23.5 -315.5q0 -173 -22 -300.5t-61.5 -210t-103 -132.5t-138.5 -70t-175 -20q-104 0 -179.5 19.5t-138.5 68.5t-101.5 132t-59.5 210t-21 303zM324 1710 q-4 21 4 37q13 31 53 65.5t82 34.5q31 0 106.5 -31.5t102.5 -31.5q23 0 41.5 14t32 28.5t24.5 14.5q6 0 9.5 -1t5 -5.5t2 -6.5t1.5 -11l13 -97q4 -21 -4 -37q-12 -30 -51.5 -66t-83.5 -36q-31 0 -107 32t-104 32q-22 0 -40.5 -14t-32 -28t-24.5 -14q-15 0 -18 25zM385 711 q0 -302 34.5 -409t141.5 -107q43 0 72.5 16.5t49.5 51.5t31.5 98.5t16 146.5t4.5 207q0 128 -4.5 212t-15.5 148t-32 98t-51 50t-75 16q-53 0 -85.5 -23.5t-52.5 -87t-27 -160t-7 -257.5z" />
<glyph unicode="&#xd6;" horiz-adv-x="1122" d="M61 713q0 183 23.5 315.5t64 214t105.5 129.5t137 65t170 17q97 0 169 -17t137 -65t106 -129.5t64.5 -214t23.5 -315.5q0 -173 -22 -300.5t-61.5 -210t-103 -132.5t-138.5 -70t-175 -20q-104 0 -179.5 19.5t-138.5 68.5t-101.5 132t-59.5 210t-21 303zM279 1708 q0 56 37 93.5t94 37.5q56 0 93.5 -37.5t37.5 -93.5q0 -57 -37.5 -94t-93.5 -37q-57 0 -94 37t-37 94zM385 711q0 -302 34.5 -409t141.5 -107q43 0 72.5 16.5t49.5 51.5t31.5 98.5t16 146.5t4.5 207q0 128 -4.5 212t-15.5 148t-32 98t-51 50t-75 16q-53 0 -85.5 -23.5 t-52.5 -87t-27 -160t-7 -257.5zM582 1708q0 56 37 93.5t94 37.5q55 0 93 -37.5t38 -93.5q0 -57 -37.5 -94t-93.5 -37q-57 0 -94 37t-37 94z" />
<glyph unicode="&#xd7;" d="M48 320q0 4 1 6l309 309l-309 309q-1 2 -1 5t1 5l144 144q1 2 5 2t5 -2l309 -310l309 310q1 2 5 2t5 -2l144 -144q1 -2 1 -5t-1 -5l-309 -309l309 -309q1 -2 1 -6t-1 -5l-144 -143q-1 -2 -5 -2t-5 2l-309 309l-309 -309q-1 -2 -5 -2t-5 2l-144 143q-1 1 -1 5z" />
<glyph unicode="&#xd8;" horiz-adv-x="1122" d="M61 713q0 183 23.5 315.5t64 214t105.5 129.5t137 65t170 17q97 0 169 -17t137 -65t106 -129.5t64.5 -214t23.5 -315.5q0 -173 -22 -300.5t-61.5 -210t-103 -132.5t-138.5 -70t-175 -20q-104 0 -179.5 19.5t-138.5 68.5t-101.5 132t-59.5 210t-21 303zM385 584l305 573 q-38 82 -133 82q-53 0 -85.5 -23.5t-52.5 -87t-27 -160t-7 -257.5v-127zM426 283q20 -47 52.5 -67.5t82.5 -20.5q43 0 72.5 16.5t49.5 51.5t31.5 98.5t16 146.5t4.5 207q0 29 -1 79.5t-1 71.5z" />
<glyph unicode="&#xd9;" horiz-adv-x="1173" d="M33 1315v110q0 9 8 9h508q8 0 8 -9v-110q0 -26 -18 -35l-93 -39v-866q0 -93 47 -136.5t128 -43.5q78 0 128 45t50 141v860l-92 39q-19 10 -19 35v110q0 9 8 9h437q8 0 8 -9v-110q0 -25 -19 -35l-92 -39v-885q0 -189 -119 -282.5t-313 -93.5q-235 0 -345 97.5t-110 272.5 v891l-92 39q-18 9 -18 35zM346.5 1961q1.5 5 7.5 5h226q9 0 12 -8l119 -389q4 -13 -9 -13h-143q-9 0 -12 9l-199 385q-3 6 -1.5 11z" />
<glyph unicode="&#xda;" horiz-adv-x="1173" d="M33 1315v110q0 9 8 9h508q8 0 8 -9v-110q0 -26 -18 -35l-93 -39v-866q0 -93 47 -136.5t128 -43.5q78 0 128 45t50 141v860l-92 39q-19 10 -19 35v110q0 9 8 9h437q8 0 8 -9v-110q0 -25 -19 -35l-92 -39v-885q0 -189 -119 -282.5t-313 -93.5q-235 0 -345 97.5t-110 272.5 v891l-92 39q-18 9 -18 35zM537 1569l118 389q3 8 13 8h225q6 0 7.5 -5t-1.5 -11l-199 -385q-3 -9 -12 -9h-143q-12 0 -8 13z" />
<glyph unicode="&#xdb;" horiz-adv-x="1173" d="M33 1315v110q0 9 8 9h508q8 0 8 -9v-110q0 -26 -18 -35l-93 -39v-866q0 -93 47 -136.5t128 -43.5q78 0 128 45t50 141v860l-92 39q-19 10 -19 35v110q0 9 8 9h437q8 0 8 -9v-110q0 -25 -19 -35l-92 -39v-885q0 -189 -119 -282.5t-313 -93.5q-235 0 -345 97.5t-110 272.5 v891l-92 39q-18 9 -18 35zM391 1569l119 389q3 8 12 8h201q7 0 10 -8l117 -389q3 -5 0.5 -9t-6.5 -4h-121q-9 0 -12 9l-90 202l-91 -202q-3 -9 -12 -9h-119q-12 0 -8 13z" />
<glyph unicode="&#xdc;" horiz-adv-x="1173" d="M33 1315v110q0 9 8 9h508q8 0 8 -9v-110q0 -26 -18 -35l-93 -39v-866q0 -93 47 -136.5t128 -43.5q78 0 128 45t50 141v860l-92 39q-19 10 -19 35v110q0 9 8 9h437q8 0 8 -9v-110q0 -25 -19 -35l-92 -39v-885q0 -189 -119 -282.5t-313 -93.5q-235 0 -345 97.5t-110 272.5 v891l-92 39q-18 9 -18 35zM338 1708q0 56 37 93.5t94 37.5q55 0 93 -37.5t38 -93.5q0 -57 -37.5 -94t-93.5 -37q-57 0 -94 37t-37 94zM641 1708q0 56 37 93.5t94 37.5q56 0 93.5 -37.5t37.5 -93.5q0 -57 -37.5 -94t-93.5 -37q-57 0 -94 37t-37 94z" />
<glyph unicode="&#xdd;" horiz-adv-x="1148" d="M0 1315v110q0 9 8 9h512q8 0 8 -9v-110q0 -26 -18 -35l-86 -37l190 -471l197 469l-92 39q-19 10 -19 35v110q0 3 3 6t6 3h432q8 0 8 -9v-110q0 -25 -19 -35l-77 -29l-326 -749v-309l92 -39q19 -10 19 -35v-111q0 -8 -9 -8h-507q-9 0 -9 8v111q0 25 19 35l92 39v329 l-328 725l-78 33q-18 9 -18 35zM524 1569l119 389q3 8 12 8h226q6 0 7.5 -5t-1.5 -11l-199 -385q-3 -9 -12 -9h-144q-12 0 -8 13z" />
<glyph unicode="&#xde;" horiz-adv-x="1077" d="M33 8v111q0 26 18 35l92 39v1048l-92 39q-18 9 -18 35v110q0 9 8 9h508q8 0 8 -9v-110q0 -26 -18 -35l-93 -39v-74h193q180 0 277.5 -117t97.5 -319q0 -436 -383 -436h-185v-98l117 -41q19 -6 19 -35v-113q0 -8 -9 -8h-532q-8 0 -8 8zM446 489h84q103 0 142 63t39 185 q0 115 -38 171.5t-143 56.5h-84v-476z" />
<glyph unicode="&#xdf;" horiz-adv-x="1073" d="M20 8v111q0 25 19 35l51 28v477l-51 29q-19 10 -19 35v108q0 3 3 6t6 3h61v59q0 256 135 405.5t361 149.5q168 0 264 -81t96 -204q0 -58 -23 -116t-56 -105t-66.5 -91.5t-56.5 -90.5t-23 -86q0 -42 24.5 -75.5t61.5 -55t80 -48.5t80 -54.5t61.5 -75t24.5 -107.5 q0 -123 -94 -203.5t-265 -80.5q-136 0 -216.5 53t-80.5 139q0 63 41 98t94 35q44 0 77.5 -24t33.5 -68t-20 -72q36 -18 82 -18q39 0 67.5 21.5t28.5 58.5t-33.5 70.5t-81 62t-95 60.5t-81 81t-33.5 109q0 53 25.5 106.5t62.5 100.5t74 95t62.5 108t25.5 122 q0 89 -48.5 134.5t-127.5 45.5q-191 0 -191 -272v-1018q0 -8 -8 -8h-323q-9 0 -9 8z" />
<glyph unicode="&#xe0;" horiz-adv-x="786" d="M25 195q0 94 61.5 155t214.5 109l125 39v102q0 121 -113 121q-31 0 -71 -14q39 -36 39 -89q0 -46 -36 -78t-83 -32q-49 0 -82 34t-33 81q0 85 99.5 161t244.5 76t225 -87t80 -236v-338q0 -49 52 -49q18 0 18 -15v-117q0 -7 -6 -10q-72 -28 -152 -28q-140 0 -166 118 q-75 -118 -206 -118q-38 0 -73.5 11.5t-67.5 35t-51 67t-19 101.5zM125.5 1428.5q1.5 5.5 7.5 5.5h225q10 0 13 -9l118 -389q4 -12 -8 -12h-143q-9 0 -12 8l-199 385q-3 6 -1.5 11.5zM266 236q0 -44 23 -66.5t57 -22.5q44 0 80 41v158l-64 -10q-96 -16 -96 -100z" />
<glyph unicode="&#xe1;" horiz-adv-x="786" d="M25 195q0 94 61.5 155t214.5 109l125 39v102q0 121 -113 121q-31 0 -71 -14q39 -36 39 -89q0 -46 -36 -78t-83 -32q-49 0 -82 34t-33 81q0 85 99.5 161t244.5 76t225 -87t80 -236v-338q0 -49 52 -49q18 0 18 -15v-117q0 -7 -6 -10q-72 -28 -152 -28q-140 0 -166 118 q-75 -118 -206 -118q-38 0 -73.5 11.5t-67.5 35t-51 67t-19 101.5zM266 236q0 -44 23 -66.5t57 -22.5q44 0 80 41v158l-64 -10q-96 -16 -96 -100zM315 1036l119 389q3 9 12 9h226q6 0 7.5 -5.5t-1.5 -11.5l-199 -385q-3 -8 -12 -8h-143q-13 0 -9 12z" />
<glyph unicode="&#xe2;" horiz-adv-x="786" d="M25 195q0 94 61.5 155t214.5 109l125 39v102q0 121 -113 121q-31 0 -71 -14q39 -36 39 -89q0 -46 -36 -78t-83 -32q-49 0 -82 34t-33 81q0 85 99.5 161t244.5 76t225 -87t80 -236v-338q0 -49 52 -49q18 0 18 -15v-117q0 -7 -6 -10q-72 -28 -152 -28q-140 0 -166 118 q-75 -118 -206 -118q-38 0 -73.5 11.5t-67.5 35t-51 67t-19 101.5zM170 1036l119 389q3 9 12 9h201q7 0 10 -9l117 -389q3 -5 0.5 -8.5t-6.5 -3.5h-121q-10 0 -13 8l-90 203l-90 -203q-3 -8 -12 -8h-119q-12 0 -8 12zM266 236q0 -44 23 -66.5t57 -22.5q44 0 80 41v158 l-64 -10q-96 -16 -96 -100z" />
<glyph unicode="&#xe3;" horiz-adv-x="786" d="M25 195q0 94 61.5 155t214.5 109l125 39v102q0 121 -113 121q-31 0 -71 -14q39 -36 39 -89q0 -46 -36 -78t-83 -32q-49 0 -82 34t-33 81q0 85 99.5 161t244.5 76t225 -87t80 -236v-338q0 -49 52 -49q18 0 18 -15v-117q0 -7 -6 -10q-72 -28 -152 -28q-140 0 -166 118 q-75 -118 -206 -118q-38 0 -73.5 11.5t-67.5 35t-51 67t-19 101.5zM154 1178q-4 20 4 36q13 32 53 66.5t82 34.5q31 0 106.5 -32t102.5 -32q23 0 41.5 14.5t32 29t24.5 14.5q8 0 11.5 -3.5t4.5 -7t2 -14.5l13 -96q4 -21 -4 -37q-12 -30 -51.5 -66t-83.5 -36q-31 0 -107 31.5 t-104 31.5q-22 0 -40.5 -14t-32 -27.5t-24.5 -13.5q-9 0 -12.5 5t-5.5 19zM266 236q0 -44 23 -66.5t57 -22.5q44 0 80 41v158l-64 -10q-96 -16 -96 -100z" />
<glyph unicode="&#xe4;" horiz-adv-x="786" d="M25 195q0 94 61.5 155t214.5 109l125 39v102q0 121 -113 121q-31 0 -71 -14q39 -36 39 -89q0 -46 -36 -78t-83 -32q-49 0 -82 34t-33 81q0 85 99.5 161t244.5 76t225 -87t80 -236v-338q0 -49 52 -49q18 0 18 -15v-117q0 -7 -6 -10q-72 -28 -152 -28q-140 0 -166 118 q-75 -118 -206 -118q-38 0 -73.5 11.5t-67.5 35t-51 67t-19 101.5zM106 1176q0 56 37.5 93.5t94.5 37.5q56 0 93.5 -37.5t37.5 -93.5q0 -57 -37.5 -94.5t-93.5 -37.5q-57 0 -94.5 37.5t-37.5 94.5zM266 236q0 -44 23 -66.5t57 -22.5q44 0 80 41v158l-64 -10 q-96 -16 -96 -100zM410 1176q0 56 37 93.5t94 37.5q55 0 93 -37.5t38 -93.5q0 -57 -37.5 -94.5t-93.5 -37.5q-57 0 -94 37.5t-37 94.5z" />
<glyph unicode="&#xe5;" horiz-adv-x="786" d="M25 195q0 94 61.5 155t214.5 109l125 39v102q0 121 -113 121q-31 0 -71 -14q39 -36 39 -89q0 -46 -36 -78t-83 -32q-49 0 -82 34t-33 81q0 85 99.5 161t244.5 76t225 -87t80 -236v-338q0 -49 52 -49q18 0 18 -15v-117q0 -7 -6 -10q-72 -28 -152 -28q-140 0 -166 118 q-75 -118 -206 -118q-38 0 -73.5 11.5t-67.5 35t-51 67t-19 101.5zM197 1176q0 82 56 139t138 57t139.5 -57t57.5 -139t-57.5 -138.5t-139.5 -56.5t-138 56.5t-56 138.5zM266 236q0 -44 23 -66.5t57 -22.5q44 0 80 41v158l-64 -10q-96 -16 -96 -100zM301 1176 q0 -38 26 -64.5t64 -26.5q39 0 65.5 26.5t26.5 64.5q0 40 -26 66t-66 26q-38 0 -64 -26t-26 -66z" />
<glyph unicode="&#xe6;" horiz-adv-x="1165" d="M25 195q0 94 61.5 155t214.5 109l125 39v102q0 121 -113 121q-31 0 -71 -14q39 -36 39 -89q0 -46 -36 -78t-83 -32q-49 0 -82 34t-33 81q0 85 99.5 161t244.5 76q125 0 195 -67q86 67 213 67q100 0 174 -43.5t108.5 -110t34.5 -143.5q0 -94 -46.5 -146t-143.5 -52h-244 v-11q0 -90 42 -138t120 -48q100 0 180 68q14 11 25 0l63 -74q14 -14 4 -29q-128 -153 -325 -153q-187 0 -291 131q-85 -131 -264 -131q-38 0 -73.5 11.5t-67.5 35t-51 67t-19 101.5zM266 236q0 -44 23 -66.5t57 -22.5q33 0 60.5 20.5t37.5 45.5q-18 50 -18 133l-64 -10 q-96 -16 -96 -100zM680 496h98q103 0 103 102q0 39 -27.5 66.5t-69.5 27.5q-44 0 -74 -36.5t-30 -104.5v-55z" />
<glyph unicode="&#xe7;" horiz-adv-x="743" d="M47 406q0 215 109 334.5t286 119.5q130 0 201.5 -69t71.5 -168q0 -62 -40.5 -108t-103.5 -46q-53 0 -87.5 26.5t-34.5 79.5q0 66 49 99q-31 24 -68 24q-113 0 -113 -151v-162q0 -110 41 -163.5t115 -53.5q95 0 158 59q17 17 31 0l59 -67q12 -14 0 -29q-87 -107 -203 -139 q-24 -30 -43 -64q131 -25 131 -139q0 -86 -62.5 -126t-150.5 -40q-75 0 -157 31l-11 5.5t-5 6.5t1 12l19 76q5 23 30 15q72 -25 109 -25q30 0 44.5 7.5t14.5 27.5q0 25 -13.5 33t-49.5 8h-60q-26 0 -36.5 9t-10.5 28q0 31 88 129q-134 23 -221.5 133.5t-87.5 286.5z" />
<glyph unicode="&#xe8;" horiz-adv-x="800" d="M47 406q0 199 103.5 326.5t283.5 127.5q100 0 174 -43.5t109 -110t35 -143.5q0 -94 -47 -146t-144 -52h-244q-1 -96 40.5 -146.5t121.5 -50.5q100 0 180 68q14 11 25 0l64 -74q14 -14 4 -29q-128 -153 -326 -153q-166 0 -272.5 110.5t-106.5 315.5zM160.5 1428.5 q1.5 5.5 7.5 5.5h225q10 0 13 -9l118 -389q4 -12 -8 -12h-143q-10 0 -13 8l-198 385q-3 6 -1.5 11.5zM315 496h99q102 0 102 102q0 39 -27 66.5t-69 27.5q-44 0 -74.5 -36.5t-30.5 -104.5v-55z" />
<glyph unicode="&#xe9;" horiz-adv-x="800" d="M47 406q0 199 103.5 326.5t283.5 127.5q100 0 174 -43.5t109 -110t35 -143.5q0 -94 -47 -146t-144 -52h-244q-1 -96 40.5 -146.5t121.5 -50.5q100 0 180 68q14 11 25 0l64 -74q14 -14 4 -29q-128 -153 -326 -153q-166 0 -272.5 110.5t-106.5 315.5zM315 496h99 q102 0 102 102q0 39 -27 66.5t-69 27.5q-44 0 -74.5 -36.5t-30.5 -104.5v-55zM338 1036l119 389q3 9 12 9h225q6 0 7.5 -5.5t-1.5 -11.5l-198 -385q-3 -8 -13 -8h-143q-12 0 -8 12z" />
<glyph unicode="&#xea;" horiz-adv-x="800" d="M47 406q0 199 103.5 326.5t283.5 127.5q100 0 174 -43.5t109 -110t35 -143.5q0 -94 -47 -146t-144 -52h-244q-1 -96 40.5 -146.5t121.5 -50.5q100 0 180 68q14 11 25 0l64 -74q14 -14 4 -29q-128 -153 -326 -153q-166 0 -272.5 110.5t-106.5 315.5zM193 1036l118 389 q3 9 13 9h200q8 0 11 -9l116 -389q3 -5 0.5 -8.5t-6.5 -3.5h-121q-9 0 -12 8l-90 203l-90 -203q-3 -8 -13 -8h-118q-12 0 -8 12zM315 496h99q102 0 102 102q0 39 -27 66.5t-69 27.5q-44 0 -74.5 -36.5t-30.5 -104.5v-55z" />
<glyph unicode="&#xeb;" horiz-adv-x="800" d="M47 406q0 199 103.5 326.5t283.5 127.5q100 0 174 -43.5t109 -110t35 -143.5q0 -94 -47 -146t-144 -52h-244q-1 -96 40.5 -146.5t121.5 -50.5q100 0 180 68q14 11 25 0l64 -74q14 -14 4 -29q-128 -153 -326 -153q-166 0 -272.5 110.5t-106.5 315.5zM137 1176 q0 56 37 93.5t94 37.5q56 0 93.5 -37.5t37.5 -93.5q0 -57 -37.5 -94.5t-93.5 -37.5q-57 0 -94 37.5t-37 94.5zM315 496h99q102 0 102 102q0 39 -27 66.5t-69 27.5q-44 0 -74.5 -36.5t-30.5 -104.5v-55zM440 1176q0 56 37 93.5t94 37.5q55 0 93 -37.5t38 -93.5 q0 -57 -37.5 -94.5t-93.5 -37.5q-57 0 -94 37.5t-37 94.5z" />
<glyph unicode="&#xec;" horiz-adv-x="450" d="M-56.5 1428.5q1.5 5.5 7.5 5.5h225q9 0 12 -9l119 -389q4 -12 -8 -12h-143q-10 0 -13 8l-198 385q-3 6 -1.5 11.5zM20 8v111q0 25 19 35l51 28v477l-51 29q-19 10 -19 35v108q0 3 3 6t6 3h295q18 0 27 -9t9 -32v-617l52 -28q18 -9 18 -35v-111q0 -8 -8 -8h-393q-9 0 -9 8 z" />
<glyph unicode="&#xed;" horiz-adv-x="450" d="M20 8v111q0 25 19 35l51 28v477l-51 29q-19 10 -19 35v108q0 3 3 6t6 3h295q18 0 27 -9t9 -32v-617l52 -28q18 -9 18 -35v-111q0 -8 -8 -8h-393q-9 0 -9 8zM133 1036l119 389q3 9 12 9h225q6 0 8 -5.5t-1 -11.5l-199 -385q-3 -8 -12 -8h-144q-12 0 -8 12z" />
<glyph unicode="&#xee;" horiz-adv-x="450" d="M-12 1036l118 389q3 9 13 9h200q8 0 11 -9l116 -389q3 -5 0.5 -8.5t-6.5 -3.5h-121q-9 0 -12 8l-90 203l-90 -203q-3 -8 -12 -8h-119q-12 0 -8 12zM20 8v111q0 25 19 35l51 28v477l-51 29q-19 10 -19 35v108q0 3 3 6t6 3h295q18 0 27 -9t9 -32v-617l52 -28q18 -9 18 -35 v-111q0 -8 -8 -8h-393q-9 0 -9 8z" />
<glyph unicode="&#xef;" horiz-adv-x="450" d="M-66 1176q0 56 37.5 93.5t94.5 37.5q56 0 93.5 -37.5t37.5 -93.5q0 -57 -37.5 -94.5t-93.5 -37.5q-57 0 -94.5 37.5t-37.5 94.5zM20 8v111q0 25 19 35l51 28v477l-51 29q-19 10 -19 35v108q0 3 3 6t6 3h295q18 0 27 -9t9 -32v-617l52 -28q18 -9 18 -35v-111q0 -8 -8 -8 h-393q-9 0 -9 8zM238 1176q0 56 37 93.5t94 37.5q55 0 93 -37.5t38 -93.5q0 -57 -37.5 -94.5t-93.5 -37.5q-57 0 -94 37.5t-37 94.5z" />
<glyph unicode="&#xf0;" horiz-adv-x="868" d="M47 420q0 214 101 327t286 113q19 0 55 -4q-53 153 -137 254l-139 -139q-4 -8 -12 0l-113 112q-2 1 -2 5t2 6l129 129q-55 34 -141 59q-19 6 -19 35v108q0 3 3 6t6 3q154 0 296 -66l136 135q2 1 5 1t5 -1l113 -112q3 -3 3 -7t-3 -6l-109 -108q149 -132 229.5 -348.5 t79.5 -481.5v-20q0 -214 -101 -327t-286 -113t-286 113t-101 327zM317 420q0 -141 24.5 -200.5t92.5 -59.5t92.5 59.5t24.5 200.5t-24.5 200.5t-92.5 59.5t-92.5 -59.5t-24.5 -200.5z" />
<glyph unicode="&#xf1;" horiz-adv-x="886" d="M20 8v111q0 25 19 35l51 28v477l-51 29q-19 10 -19 35v108q0 3 3 6t6 3h284q19 0 28 -9t9 -32v-58q97 119 223 119q111 0 167.5 -77.5t56.5 -198.5v-402l51 -28q18 -9 18 -35v-111q0 -8 -8 -8h-381q-8 0 -8 8v115q0 26 18 35l39 18v414q0 80 -71 80q-49 0 -95 -52v-442 l39 -18q19 -10 19 -35v-115q0 -8 -8 -8h-381q-9 0 -9 8zM195 1178q-4 20 4 36q13 32 53 66.5t82 34.5q31 0 106.5 -32t102.5 -32q23 0 41.5 14.5t32 29t24.5 14.5q8 0 11.5 -3.5t4.5 -7t2 -14.5l13 -96q4 -21 -4 -37q-12 -30 -52 -66t-84 -36q-31 0 -106.5 31.5t-103.5 31.5 t-57 -27.5t-40 -27.5q-9 0 -12.5 5t-5.5 19z" />
<glyph unicode="&#xf2;" horiz-adv-x="868" d="M47 420q0 214 101 327t286 113t286 -113t101 -327t-101 -327t-286 -113t-286 113t-101 327zM168.5 1428.5q1.5 5.5 7.5 5.5h225q10 0 13 -9l118 -389q4 -12 -8 -12h-143q-9 0 -12 8l-199 385q-3 6 -1.5 11.5zM317 420q0 -141 24.5 -200.5t92.5 -59.5t92.5 59.5 t24.5 200.5t-24.5 200.5t-92.5 59.5t-92.5 -59.5t-24.5 -200.5z" />
<glyph unicode="&#xf3;" horiz-adv-x="868" d="M47 420q0 214 101 327t286 113t286 -113t101 -327t-101 -327t-286 -113t-286 113t-101 327zM317 420q0 -141 24.5 -200.5t92.5 -59.5t92.5 59.5t24.5 200.5t-24.5 200.5t-92.5 59.5t-92.5 -59.5t-24.5 -200.5zM338 1036l119 389q3 9 12 9h225q6 0 7.5 -5.5t-1.5 -11.5 l-198 -385q-3 -8 -13 -8h-143q-12 0 -8 12z" />
<glyph unicode="&#xf4;" horiz-adv-x="868" d="M47 420q0 214 101 327t286 113t286 -113t101 -327t-101 -327t-286 -113t-286 113t-101 327zM205 1036l119 389q3 9 12 9h201q7 0 10 -9l117 -389q3 -5 0 -8.5t-7 -3.5h-120q-10 0 -13 8l-90 203l-90 -203q-3 -8 -12 -8h-119q-12 0 -8 12zM317 420q0 -141 24.5 -200.5 t92.5 -59.5t92.5 59.5t24.5 200.5t-24.5 200.5t-92.5 59.5t-92.5 -59.5t-24.5 -200.5z" />
<glyph unicode="&#xf5;" horiz-adv-x="868" d="M47 420q0 214 101 327t286 113t286 -113t101 -327t-101 -327t-286 -113t-286 113t-101 327zM190 1178q-4 19 5 36q13 32 53 66.5t82 34.5q31 0 106.5 -32t102.5 -32q23 0 41.5 14.5t32 29t24.5 14.5q8 0 11.5 -3.5t4.5 -7t2 -14.5l13 -96q4 -21 -4 -37q-12 -30 -52 -66 t-84 -36q-31 0 -107 31.5t-104 31.5q-29 0 -57 -27.5t-39 -27.5q-9 0 -12.5 5t-5.5 19zM317 420q0 -141 24.5 -200.5t92.5 -59.5t92.5 59.5t24.5 200.5t-24.5 200.5t-92.5 59.5t-92.5 -59.5t-24.5 -200.5z" />
<glyph unicode="&#xf6;" horiz-adv-x="868" d="M47 420q0 214 101 327t286 113t286 -113t101 -327t-101 -327t-286 -113t-286 113t-101 327zM150 1176q0 56 37 93.5t94 37.5q55 0 93 -37.5t38 -93.5q0 -57 -37.5 -94.5t-93.5 -37.5q-57 0 -94 37.5t-37 94.5zM317 420q0 -141 24.5 -200.5t92.5 -59.5t92.5 59.5 t24.5 200.5t-24.5 200.5t-92.5 59.5t-92.5 -59.5t-24.5 -200.5zM453 1176q0 56 37 93.5t94 37.5q56 0 93.5 -37.5t37.5 -93.5q0 -57 -37.5 -94.5t-93.5 -37.5q-57 0 -94 37.5t-37 94.5z" />
<glyph unicode="&#xf7;" d="M61 535v200q0 8 9 8h884q9 0 9 -8v-200q0 -3 -3 -6t-6 -3h-884q-3 0 -6 3t-3 6zM371 283q0 60 40 100.5t101 40.5q60 0 100.5 -40.5t40.5 -100.5t-40.5 -102t-100.5 -42q-61 0 -101 41.5t-40 102.5zM371 987q0 59 40 101t101 42q59 0 100 -42t41 -101q0 -61 -40.5 -101 t-100.5 -40q-62 0 -101.5 40t-39.5 101z" />
<glyph unicode="&#xf8;" horiz-adv-x="868" d="M47 420q0 214 101 327t286 113t286 -113t101 -327t-101 -327t-286 -113t-286 113t-101 327zM315 391l224 201q-12 47 -37 70.5t-68 23.5q-69 0 -94 -61t-25 -205v-29zM328 252q11 -50 36 -74t70 -24q69 0 94 61t25 205v37z" />
<glyph unicode="&#xf9;" horiz-adv-x="890" d="M20 723v108q0 3 3 6t6 3h295q18 0 27 -9t9 -32v-537q0 -41 21.5 -66.5t58.5 -25.5q50 0 90 45v444l-51 29q-18 9 -18 35v108q0 9 8 9h295q19 0 28 -9t9 -32v-598q0 -21 8 -32.5t17 -14.5t26 -4q18 0 18 -15v-117q0 -7 -6 -10q-21 -11 -65.5 -19.5t-85.5 -8.5 q-71 0 -115.5 31.5t-54.5 90.5q-88 -122 -226 -122q-115 0 -171 77t-56 199v403l-51 29q-19 10 -19 35zM160.5 1428.5q1.5 5.5 7.5 5.5h225q10 0 13 -9l118 -389q4 -12 -8 -12h-143q-10 0 -13 8l-198 385q-3 6 -1.5 11.5z" />
<glyph unicode="&#xfa;" horiz-adv-x="890" d="M20 723v108q0 3 3 6t6 3h295q18 0 27 -9t9 -32v-537q0 -41 21.5 -66.5t58.5 -25.5q50 0 90 45v444l-51 29q-18 9 -18 35v108q0 9 8 9h295q19 0 28 -9t9 -32v-598q0 -21 8 -32.5t17 -14.5t26 -4q18 0 18 -15v-117q0 -7 -6 -10q-21 -11 -65.5 -19.5t-85.5 -8.5 q-71 0 -115.5 31.5t-54.5 90.5q-88 -122 -226 -122q-115 0 -171 77t-56 199v403l-51 29q-19 10 -19 35zM350 1036l119 389q3 9 12 9h226q6 0 7.5 -5.5t-1.5 -11.5l-199 -385q-3 -8 -12 -8h-144q-12 0 -8 12z" />
<glyph unicode="&#xfb;" horiz-adv-x="890" d="M20 723v108q0 3 3 6t6 3h295q18 0 27 -9t9 -32v-537q0 -41 21.5 -66.5t58.5 -25.5q50 0 90 45v444l-51 29q-18 9 -18 35v108q0 9 8 9h295q19 0 28 -9t9 -32v-598q0 -21 8 -32.5t17 -14.5t26 -4q18 0 18 -15v-117q0 -7 -6 -10q-21 -11 -65.5 -19.5t-85.5 -8.5 q-71 0 -115.5 31.5t-54.5 90.5q-88 -122 -226 -122q-115 0 -171 77t-56 199v403l-51 29q-19 10 -19 35zM205 1036l119 389q3 9 12 9h201q7 0 10 -9l117 -389q3 -5 0 -8.5t-7 -3.5h-120q-10 0 -13 8l-90 203l-90 -203q-3 -8 -12 -8h-119q-12 0 -8 12z" />
<glyph unicode="&#xfc;" horiz-adv-x="890" d="M20 723v108q0 3 3 6t6 3h295q18 0 27 -9t9 -32v-537q0 -41 21.5 -66.5t58.5 -25.5q50 0 90 45v444l-51 29q-18 9 -18 35v108q0 9 8 9h295q19 0 28 -9t9 -32v-598q0 -21 8 -32.5t17 -14.5t26 -4q18 0 18 -15v-117q0 -7 -6 -10q-21 -11 -65.5 -19.5t-85.5 -8.5 q-71 0 -115.5 31.5t-54.5 90.5q-88 -122 -226 -122q-115 0 -171 77t-56 199v403l-51 29q-19 10 -19 35zM152 1176q0 56 37 93.5t94 37.5q55 0 93 -37.5t38 -93.5q0 -57 -37.5 -94.5t-93.5 -37.5q-57 0 -94 37.5t-37 94.5zM455 1176q0 56 37 93.5t94 37.5q56 0 93.5 -37.5 t37.5 -93.5q0 -57 -37.5 -94.5t-93.5 -37.5q-57 0 -94 37.5t-37 94.5z" />
<glyph unicode="&#xfd;" horiz-adv-x="780" d="M0 -221q0 56 35 88.5t80 32.5q33 0 83 -22.5t70 -22.5q34 0 54 21t34 77l13 47h-136q-9 0 -12 12l-151 647l-52 29q-18 9 -18 35v108q0 9 8 9h373q8 0 8 -9v-104q0 -33 -22 -39l-37 -12l90 -457l94 457l-37 12q-22 6 -22 39v104q0 9 8 9h309q8 0 8 -9v-108q0 -26 -18 -35 l-51 -29l-164 -677q-38 -159 -130.5 -255t-228.5 -96q-89 0 -138.5 41t-49.5 107zM307 1036l119 389q3 9 12 9h226q6 0 7.5 -5.5t-1.5 -11.5l-199 -385q-3 -8 -12 -8h-144q-12 0 -8 12z" />
<glyph unicode="&#xfe;" horiz-adv-x="905" d="M20 -229q0 25 19 34l51 29v1419l-51 29q-19 10 -19 35v108q0 3 3 6t6 3h295q18 0 27 -9t9 -32v-637q31 40 84.5 72t118.5 32q59 0 110.5 -24t93.5 -73.5t66.5 -135.5t24.5 -199q0 -115 -28 -204t-74 -140.5t-101 -77.5t-114 -26q-66 0 -114.5 31t-66.5 61v-238l66 -35 q18 -9 18 -35v-104q0 -8 -8 -8h-407q-9 0 -9 8v111zM360 219q44 -55 103 -55q117 0 117 258q0 82 -10.5 136t-30 78.5t-38.5 33t-44 8.5q-27 0 -54.5 -15t-42.5 -34v-410z" />
<glyph unicode="&#xff;" horiz-adv-x="780" d="M0 -221q0 56 35 88.5t80 32.5q33 0 83 -22.5t70 -22.5q34 0 54 21t34 77l13 47h-136q-9 0 -12 12l-151 647l-52 29q-18 9 -18 35v108q0 9 8 9h373q8 0 8 -9v-104q0 -33 -22 -39l-37 -12l90 -457l94 457l-37 12q-22 6 -22 39v104q0 9 8 9h309q8 0 8 -9v-108q0 -26 -18 -35 l-51 -29l-164 -677q-38 -159 -130.5 -255t-228.5 -96q-89 0 -138.5 41t-49.5 107zM109 1176q0 56 37 93.5t94 37.5q56 0 93.5 -37.5t37.5 -93.5q0 -57 -37.5 -94.5t-93.5 -37.5q-57 0 -94 37.5t-37 94.5zM412 1176q0 56 37 93.5t94 37.5q55 0 93 -37.5t38 -93.5 q0 -57 -37.5 -94.5t-93.5 -37.5q-57 0 -94 37.5t-37 94.5z" />
<glyph unicode="&#x152;" horiz-adv-x="1634" d="M61 721q0 199 33 340t96.5 221t145.5 116t190 36h1026q3 0 6 -3t3 -6v-434q0 -8 -9 -8h-116q-27 0 -38.5 9t-17.5 32l-24 104q-15 59 -36.5 84t-70.5 25h-215v-401h92l37 112q6 21 15.5 28t29.5 7h111q8 0 8 -8v-461q0 -8 -8 -8h-111q-20 0 -29.5 6t-15.5 27l-37 112h-92 v-452h148q79 0 119.5 27t58.5 96l29 120q12 43 49 43h127q8 0 8 -8v-469q0 -8 -8 -8h-1002q-82 0 -145.5 12t-122.5 42t-100 82.5t-72.5 131.5t-46.5 192.5t-15 260.5zM373 719q0 -272 44 -396t138 -124h176v1038h-176q-52 0 -88.5 -35.5t-56.5 -106t-28.5 -161t-8.5 -215.5 z" />
<glyph unicode="&#x153;" horiz-adv-x="1294" d="M47 420q0 214 101 327t286 113q161 0 254 -90q97 90 240 90q100 0 174 -43.5t108.5 -110t34.5 -143.5q0 -94 -46.5 -146t-143.5 -52h-244q-1 -97 41 -147t121 -50q100 0 180 68q14 11 25 0l63 -74q14 -14 4 -29q-128 -153 -325 -153q-146 0 -238 83q-92 -83 -248 -83 q-185 0 -286 113t-101 327zM317 420q0 -141 24.5 -200.5t92.5 -59.5t92.5 59.5t24.5 200.5t-24.5 200.5t-92.5 59.5t-92.5 -59.5t-24.5 -200.5zM809 496h98q103 0 103 102q0 39 -27.5 66.5t-69.5 27.5q-44 0 -74 -36.5t-30 -104.5v-55z" />
<glyph unicode="&#x178;" horiz-adv-x="1148" d="M0 1315v110q0 9 8 9h512q8 0 8 -9v-110q0 -26 -18 -35l-86 -37l190 -471l197 469l-92 39q-19 10 -19 35v110q0 3 3 6t6 3h432q8 0 8 -9v-110q0 -25 -19 -35l-77 -29l-326 -749v-309l92 -39q19 -10 19 -35v-111q0 -8 -9 -8h-507q-9 0 -9 8v111q0 25 19 35l92 39v329 l-328 725l-78 33q-18 9 -18 35zM326 1708q0 56 37 93.5t94 37.5q55 0 93 -37.5t38 -93.5q0 -57 -37.5 -94t-93.5 -37q-57 0 -94 37t-37 94zM629 1708q0 56 37 93.5t94 37.5q56 0 93.5 -37.5t37.5 -93.5q0 -57 -37.5 -94t-93.5 -37q-57 0 -94 37t-37 94z" />
<glyph unicode="&#x2c6;" horiz-adv-x="450" d="M-4 1036l119 389q3 9 12 9h201q7 0 10 -9l117 -389q3 -5 0.5 -8.5t-6.5 -3.5h-121q-10 0 -13 8l-90 203l-90 -203q-3 -8 -12 -8h-119q-12 0 -8 12z" />
<glyph unicode="&#x2dc;" horiz-adv-x="450" d="M-12 1178q-4 20 4 36q13 32 53 66.5t82 34.5q31 0 106.5 -32t102.5 -32q23 0 41.5 14.5t32 29t24.5 14.5t14 -5.5t5 -19.5l12 -96q4 -21 -4 -37q-12 -30 -51.5 -66t-83.5 -36q-31 0 -107 31.5t-104 31.5q-22 0 -40.5 -14t-32 -27.5t-24.5 -13.5q-9 0 -12.5 5t-5.5 19z " />
<glyph unicode="&#x2000;" horiz-adv-x="983" />
<glyph unicode="&#x2001;" horiz-adv-x="1966" />
<glyph unicode="&#x2002;" horiz-adv-x="983" />
<glyph unicode="&#x2003;" horiz-adv-x="1966" />
<glyph unicode="&#x2004;" horiz-adv-x="655" />
<glyph unicode="&#x2005;" horiz-adv-x="491" />
<glyph unicode="&#x2006;" horiz-adv-x="327" />
<glyph unicode="&#x2007;" horiz-adv-x="327" />
<glyph unicode="&#x2008;" horiz-adv-x="245" />
<glyph unicode="&#x2009;" horiz-adv-x="393" />
<glyph unicode="&#x200a;" horiz-adv-x="109" />
<glyph unicode="&#x2010;" horiz-adv-x="491" d="M49 395v201q0 8 8 8h377q8 0 8 -8v-201q0 -8 -8 -8h-377q-8 0 -8 8z" />
<glyph unicode="&#x2011;" horiz-adv-x="491" d="M49 395v201q0 8 8 8h377q8 0 8 -8v-201q0 -8 -8 -8h-377q-8 0 -8 8z" />
<glyph unicode="&#x2012;" horiz-adv-x="491" d="M49 395v201q0 8 8 8h377q8 0 8 -8v-201q0 -8 -8 -8h-377q-8 0 -8 8z" />
<glyph unicode="&#x2013;" d="M49 395v201q0 8 8 8h910q8 0 8 -8v-201q0 -8 -8 -8h-910q-8 0 -8 8z" />
<glyph unicode="&#x2014;" horiz-adv-x="2048" d="M49 395v201q0 8 8 8h1934q8 0 8 -8v-201q0 -8 -8 -8h-1934q-8 0 -8 8z" />
<glyph unicode="&#x2018;" horiz-adv-x="471" d="M70 1032q0 132 75.5 240t186.5 178q9 6 20 -10l56 -84q8 -12 -9 -25q-100 -72 -116 -168q53 -14 84.5 -55t31.5 -96q0 -65 -44.5 -109.5t-110.5 -44.5q-76 0 -125 45t-49 129z" />
<glyph unicode="&#x2019;" horiz-adv-x="471" d="M61 956q-8 12 9 25q100 72 116 168q-53 14 -84.5 55t-31.5 96q0 65 44.5 109.5t110.5 44.5q76 0 125 -45t49 -129q0 -132 -75.5 -240t-186.5 -178q-9 -6 -20 10z" />
<glyph unicode="&#x201a;" horiz-adv-x="471" d="M61 -205q-8 12 9 25q100 72 116 168q-52 13 -84 56.5t-32 100.5q0 69 48 117.5t120 48.5q70 0 115.5 -49.5t45.5 -142.5q0 -132 -75.5 -240t-186.5 -178q-9 -6 -20 10z" />
<glyph unicode="&#x201c;" horiz-adv-x="880" d="M70 1032q0 132 75.5 240t186.5 178q9 6 20 -10l56 -84q8 -12 -9 -25q-100 -72 -116 -168q53 -14 84.5 -55t31.5 -96q0 -65 -44.5 -109.5t-110.5 -44.5q-76 0 -125 45t-49 129zM479 1032q0 132 75.5 240t186.5 178q10 7 21 -10l55 -84q8 -13 -8 -25q-101 -72 -117 -168 q53 -14 85 -55t32 -96q0 -65 -45 -109.5t-111 -44.5q-76 0 -125 45t-49 129z" />
<glyph unicode="&#x201d;" horiz-adv-x="880" d="M61 956q-8 12 9 25q100 72 116 168q-53 14 -84.5 55t-31.5 96q0 65 44.5 109.5t110.5 44.5q76 0 125 -45t49 -129q0 -132 -75.5 -240t-186.5 -178q-9 -6 -20 10zM471 956q-8 13 8 25q101 72 117 168q-53 14 -85 55t-32 96q0 65 45 109.5t111 44.5q76 0 125 -45t49 -129 q0 -132 -75.5 -240t-186.5 -178q-10 -7 -21 10z" />
<glyph unicode="&#x201e;" horiz-adv-x="880" d="M61 -205q-8 12 9 25q100 72 116 168q-52 13 -84 56.5t-32 100.5q0 69 48 117.5t120 48.5q70 0 115.5 -49.5t45.5 -142.5q0 -132 -75.5 -240t-186.5 -178q-9 -6 -20 10zM471 -205q-8 13 8 25q101 72 117 168q-53 14 -85 57t-32 100q0 69 48.5 117.5t119.5 48.5 q70 0 116 -49.5t46 -142.5q0 -132 -75.5 -240t-186.5 -178q-10 -7 -21 10z" />
<glyph unicode="&#x2022;" horiz-adv-x="860" d="M61 729q0 152 108.5 260.5t260.5 108.5t260.5 -108.5t108.5 -260.5t-108.5 -260.5t-260.5 -108.5t-260.5 108.5t-108.5 260.5z" />
<glyph unicode="&#x2026;" horiz-adv-x="1413" d="M70 145q0 69 48 117.5t118 48.5q69 0 117 -48.5t48 -117.5q0 -70 -48 -117.5t-117 -47.5q-71 0 -118.5 47.5t-47.5 117.5zM541 145q0 69 48 117.5t118 48.5q69 0 117 -48.5t48 -117.5q0 -70 -48 -117.5t-117 -47.5q-71 0 -118.5 47.5t-47.5 117.5zM1012 145 q0 69 48 117.5t118 48.5q69 0 117 -48.5t48 -117.5q0 -70 -48 -117.5t-117 -47.5q-71 0 -118.5 47.5t-47.5 117.5z" />
<glyph unicode="&#x202f;" horiz-adv-x="393" />
<glyph unicode="&#x2039;" horiz-adv-x="489" d="M22 444.5q0 10.5 15 32.5l233 309q11 15 31 15h123q10 0 12.5 -7.5t-2.5 -15.5l-190 -334l190 -333q5 -7 2.5 -15t-12.5 -8h-123q-21 0 -31 14l-233 310q-15 22 -15 32.5z" />
<glyph unicode="&#x203a;" horiz-adv-x="489" d="M53 96q-3 8 2 15l191 333l-191 334q-5 8 -2 15.5t13 7.5h122q20 0 31 -15l234 -309q15 -22 15 -32.5t-15 -32.5l-234 -310q-10 -14 -31 -14h-122q-10 0 -13 8z" />
<glyph unicode="&#x205f;" horiz-adv-x="491" />
<glyph unicode="&#x20ac;" d="M20 498v170q0 8 9 8h102v90h-102q-9 0 -9 8v170q0 8 9 8h121q21 134 67.5 233.5t109.5 156.5t133 84.5t148 27.5q164 0 268.5 -96t104.5 -275v-32q0 -41 -37 -41h-258q-8 0 -8 8v88q0 27 4 38t20 21l29 21q-21 34 -46 50.5t-67 16.5q-71 0 -114 -69t-60 -232h263 q8 0 8 -8l-17 -170q0 -8 -8 -8h-254v-90h248q8 0 8 -8l-16 -170q0 -9 -8 -9h-222q17 -164 62 -236.5t119 -72.5q78 0 116 68l-28 20q-16 10 -20.5 21.5t-4.5 38.5v88q0 8 8 8h258q37 0 37 -41v-33q0 -180 -110.5 -275t-290.5 -95q-85 0 -156 27t-131.5 85t-102.5 159 t-59 238h-114q-3 0 -6 3t-3 6z" />
<glyph unicode="&#x2122;" horiz-adv-x="1198" d="M53 1247v187q0 8 8 8h13q13 -8 35 -8h311q26 0 39 8h12q8 0 8 -8v-187q0 -8 -8 -8h-53q-20 0 -23 18l-6 48q-3 27 -10 37t-27 10h-24v-432l39 -17q8 -5 8 -14v-41q0 -8 -8 -8h-201q-8 0 -8 8v41q0 9 8 14l37 17v432h-23q-20 0 -27 -10t-10 -37l-6 -48q-3 -18 -24 -18h-52 q-8 0 -8 8zM545 848v41q0 9 8 14l39 17v434l-39 16q-8 3 -8 14v41q0 9 8 9h201q13 0 16.5 -4t5.5 -15l62 -309l63 309q5 19 21 19h206q3 0 6 -3t3 -6v-41q0 -11 -9 -14l-36 -16v-434l36 -17q9 -6 9 -14v-41q0 -8 -9 -8h-202q-8 0 -8 8v41q0 9 8 14l39 17v368l-99 -430 q-3 -12 -7.5 -15t-16.5 -3h-37q-11 0 -15.5 3t-7.5 15l-96 430v-368l37 -17q8 -4 8 -14v-41q0 -8 -8 -8h-170q-8 0 -8 8z" />
<glyph unicode="&#x25fc;" horiz-adv-x="839" d="M0 0v840h840v-840h-840z" />
</font>
</defs>
</svg>
