<?xml version="1.0" standalone="no"?>
<!DOCTYPE svg PUBLIC "-//W3C//DTD SVG 1.1//EN" "http://www.w3.org/Graphics/SVG/1.1/DTD/svg11.dtd" >
<svg xmlns="http://www.w3.org/2000/svg" xmlns:xlink="http://www.w3.org/1999/xlink" version="1.1">
<metadata></metadata>
<defs>
<font id="tuborg_serifregular" horiz-adv-x="1024" >
<font-face units-per-em="2048" ascent="1638" descent="-410" />
<missing-glyph horiz-adv-x="409" />
<glyph unicode="&#xfb01;" horiz-adv-x="944" d="M49 772v59q0 9 8 9h99v182q0 115 34 202t91 135.5t121.5 71.5t136.5 23q91 0 132.5 -33t41.5 -75q0 -33 -24.5 -57.5t-57.5 -24.5q-31 0 -97 38.5t-108 38.5q-121 0 -121 -215v-286h455q19 0 28 -9t9 -32v-693l51 -28q18 -9 18 -25v-45q0 -8 -8 -8h-272q-8 0 -8 8v45 q0 16 18 25l51 28v631h-342v-628l68 -29q18 -9 18 -37v-35q0 -8 -8 -8h-289q-8 0 -8 8v35q0 26 18 35l52 28v627l-88 17q-19 3 -19 22z" />
<glyph unicode="&#xfb02;" horiz-adv-x="956" d="M49 772v59q0 9 8 9h99v182q0 93 35 175.5t91 137.5t124.5 87t136.5 32q95 0 145 -53l64 43q19 13 32 8t13 -29v-1317l63 -28q19 -10 19 -25v-45q0 -8 -9 -8h-297q-8 0 -8 8v45q0 15 19 25l63 28v1164q-30 2 -103 39t-114 37q-125 0 -125 -220v-286h205q8 0 8 -9v-86 q0 -8 -8 -8h-205v-628l68 -29q18 -9 18 -37v-35q0 -8 -8 -8h-289q-8 0 -8 8v35q0 26 18 35l52 28v627l-88 17q-19 3 -19 22z" />
<glyph unicode="&#xfb03;" horiz-adv-x="1435" d="M49 772v59q0 9 8 9h99v182q0 93 32.5 175.5t85 137.5t118 87t130.5 32q62 0 95.5 -28t33.5 -74q0 -36 -24 -59t-60 -23q-31 0 -85 35.5t-87 35.5q-90 0 -90 -215v-286h342v182q0 115 34 202t91 135.5t121.5 71.5t136.5 23q91 0 132.5 -33t41.5 -75q0 -33 -24.5 -57.5 t-57.5 -24.5q-31 0 -96.5 38.5t-107.5 38.5q-121 0 -121 -215v-286h454q19 0 28 -9t9 -32v-693l51 -28q19 -10 19 -25v-45q0 -8 -8 -8h-273q-8 0 -8 8v45q0 16 18 25l52 28v631h-342v-628l67 -29q19 -10 19 -37v-35q0 -8 -9 -8h-288q-8 0 -8 8v35q0 26 18 35l51 28v631h-342 v-628l68 -29q18 -9 18 -37v-35q0 -8 -8 -8h-289q-8 0 -8 8v35q0 26 18 35l52 28v627l-88 17q-19 3 -19 22z" />
<glyph unicode="&#xfb04;" horiz-adv-x="1447" d="M49 772v59q0 9 8 9h99v182q0 93 32.5 175.5t85 137.5t118 87t130.5 32q62 0 95.5 -28t33.5 -74q0 -36 -24 -59t-60 -23q-31 0 -85 35.5t-87 35.5q-90 0 -90 -215v-286h342v182q0 93 35 175.5t91 137.5t124.5 87t136.5 32q96 0 146 -53l63 43q19 13 32 8t13 -29v-1317 l64 -28q18 -9 18 -25v-45q0 -8 -8 -8h-297q-8 0 -8 8v45q0 16 18 25l64 28v1164q-30 2 -103 39t-114 37q-125 0 -125 -220v-286h204q3 0 6 -3t3 -6v-86q0 -8 -9 -8h-204v-628l67 -29q19 -10 19 -37v-35q0 -8 -9 -8h-288q-8 0 -8 8v35q0 26 18 35l51 28v631h-342v-628l68 -29 q18 -9 18 -37v-35q0 -8 -8 -8h-289q-8 0 -8 8v35q0 26 18 35l52 28v627l-88 17q-19 3 -19 22z" />
<glyph horiz-adv-x="0" />
<glyph horiz-adv-x="0" />
<glyph horiz-adv-x="682" />
<glyph unicode="&#xd;" horiz-adv-x="409" />
<glyph unicode=" "  horiz-adv-x="409" />
<glyph unicode="&#x09;" horiz-adv-x="409" />
<glyph unicode="&#xa0;" horiz-adv-x="409" />
<glyph unicode="!" horiz-adv-x="522" d="M141 100q0 51 33.5 85t85.5 34t86.5 -34t34.5 -85q0 -52 -34 -86t-87 -34q-52 0 -85.5 33.5t-33.5 86.5zM160 1425q0 9 8 9h184q8 0 8 -9l-53 -987q0 -8 -8 -8h-78q-8 0 -8 8z" />
<glyph unicode="&#x22;" horiz-adv-x="753" d="M88 1417q-3 17 10 17h170q10 0 8 -17l-51 -487q0 -8 -8 -8h-72q-8 0 -8 8zM477 1417q-3 17 10 17h170q11 0 9 -17l-52 -487q0 -8 -8 -8h-71q-9 0 -9 8z" />
<glyph unicode="#" d="M61 418v119q0 8 9 8h123l61 344h-184q-9 0 -9 8v119q0 8 9 8h209l71 401q0 9 8 9h119q8 0 8 -9l-71 -401h303l71 401q0 3 3 6t6 3h118q3 0 6 -3t3 -6l-72 -401h102q9 0 9 -8v-119q0 -8 -9 -8h-127l-61 -344h188q9 0 9 -8v-119q0 -8 -9 -8h-211l-71 -402q0 -8 -8 -8h-119 q-8 0 -8 8l71 402h-303l-72 -402q0 -8 -8 -8h-119q-8 0 -8 8l72 402h-100q-9 0 -9 8zM328 545h303l61 344h-303z" />
<glyph unicode="$" d="M53 297q0 61 35.5 96t83.5 35q39 0 69.5 -27t30.5 -69q0 -57 -47 -94q22 -43 82.5 -86.5t141.5 -59.5v572q-47 18 -77.5 31t-72.5 34.5t-69 42t-57 50.5t-47 63t-28.5 77t-11.5 95q0 165 102.5 271.5t266.5 121.5v119q0 8 8 8h112q9 0 9 -8v-119q153 -17 248.5 -93.5 t95.5 -172.5q0 -56 -32 -88.5t-77 -32.5q-40 0 -71 25t-31 67q0 48 43 88q-15 34 -63.5 61.5t-112.5 36.5v-559q47 -18 78 -31t73.5 -35t70 -42.5t58 -51.5t48 -64.5t29 -79t11.5 -97.5q0 -175 -107 -279.5t-267 -117.5v-168q0 -3 -3 -6t-6 -3h-112q-8 0 -8 9v170 q-107 15 -200 67t-144.5 118t-51.5 126zM233 1092q0 -98 57.5 -157t164.5 -104v510q-100 -15 -161 -82.5t-61 -166.5zM578 90q104 13 159.5 83t55.5 169q0 100 -55.5 161t-159.5 111v-524z" />
<glyph unicode="%" horiz-adv-x="1697" d="M68 1049q0 186 95 295.5t240 109.5q149 0 242.5 -109t93.5 -296t-93.5 -296.5t-242.5 -109.5t-242 109.5t-93 296.5zM219 1049q0 -155 45 -227t139 -72q185 0 185 299t-185 299q-84 0 -134 -75t-50 -224zM505.5 -16.5q-2.5 3.5 0.5 10.5l555 1452q3 8 10 8h113 q4 0 6.5 -3.5t-0.5 -10.5l-555 -1452q-3 -8 -10 -8h-113q-4 0 -6.5 3.5zM958 385q0 186 95.5 296t240.5 110q149 0 242.5 -109.5t93.5 -296.5t-93.5 -296t-242.5 -109t-242.5 109t-93.5 296zM1110 385q0 -155 45 -227t139 -72q185 0 185 299t-185 299q-84 0 -134 -75 t-50 -224z" />
<glyph unicode="&#x26;" horiz-adv-x="1382" d="M72 371q0 76 25 141t72.5 117.5t102 93t127.5 80.5q-75 91 -111 165t-36 160q0 147 99.5 236.5t273.5 89.5q168 0 270 -87.5t102 -246.5v-78q0 -21 -4.5 -26.5t-21.5 -5.5h-176q-9 0 -9 8v51q0 23 4 31t21 20l29 21v12q0 84 -61.5 130t-155.5 46q-97 0 -155 -50.5 t-58 -137.5q0 -48 27 -103.5t57 -93.5t90 -108l370 -426q72 100 115 201.5t43 174.5v45q0 9 8 9h185q8 0 8 -9v-38q0 -8 -17 -41q-58 -108 -83 -153.5t-78 -132.5t-99 -149l117 -133q51 -57 90 -75l53 -27q15 -8 15 -25v-49q0 -8 -8 -8h-175q-21 0 -31 6t-28 27l-139 160 q-203 -213 -445 -213q-184 0 -298.5 112t-114.5 279zM231 387q0 -111 76 -196t195 -85q188 0 346 181l-367 424q-42 -26 -69.5 -44.5t-65.5 -51t-60 -63.5t-38.5 -74.5t-16.5 -90.5z" />
<glyph unicode="'" horiz-adv-x="364" d="M88 1417q-3 17 10 17h170q10 0 8 -17l-51 -487q0 -8 -8 -8h-72q-8 0 -8 8z" />
<glyph unicode="(" horiz-adv-x="686" d="M147 635q0 333 141.5 583.5t362.5 350.5q15 5 15 -10v-89q0 -6 -7 -10q-167 -103 -266.5 -328t-99.5 -497q0 -285 98.5 -503t267.5 -322q7 -4 7 -11v-88q0 -15 -15 -10q-224 101 -364 350.5t-140 583.5z" />
<glyph unicode=")" horiz-adv-x="686" d="M20 -201q0 7 7 11q169 104 267.5 322t98.5 503q0 272 -99.5 497t-266.5 328q-7 4 -7 10v89q0 15 15 10q221 -100 362.5 -350.5t141.5 -583.5q0 -334 -140 -583.5t-364 -350.5q-15 -5 -15 10v88z" />
<glyph unicode="*" horiz-adv-x="663" d="M55 1196l33 98q4 8 14 2l209 -108l-39 233q-3 13 9 13h104q9 0 6 -13l-39 -233l209 106q14 7 17 -4l30 -98q3 -8 -10 -10l-233 -35l167 -164q11 -11 3 -16l-84 -60q-10 -7 -15 6l-104 211l-105 -211q-7 -13 -14 -6l-84 62q-6 6 2 14l168 166l-233 35q-14 3 -11 12z" />
<glyph unicode="+" d="M61 580v110q0 8 9 8h379v420q0 8 8 8h110q8 0 8 -8v-420h379q9 0 9 -8v-110q0 -3 -3 -6t-6 -3h-379v-419q0 -9 -8 -9h-110q-8 0 -8 9v419h-379q-3 0 -6 3t-3 6z" />
<glyph unicode="," horiz-adv-x="434" d="M61 -254q-3 8 5 12q53 30 93 89t50 133q-53 0 -86 30t-33 82q0 53 32.5 90t86.5 37q55 0 91 -38.5t36 -110.5t-23.5 -140.5t-59 -117t-73.5 -82t-71 -47.5q-14 -5 -21 10z" />
<glyph unicode="-" horiz-adv-x="524" d="M66 424v123q0 8 8 8h377q8 0 8 -8v-123q0 -8 -8 -8h-377q-8 0 -8 8z" />
<glyph unicode="." horiz-adv-x="434" d="M96 100q0 51 33.5 85t85.5 34t86.5 -34t34.5 -85q0 -52 -34 -86t-87 -34q-52 0 -85.5 33.5t-33.5 86.5z" />
<glyph unicode="/" horiz-adv-x="720" d="M18 -6l555 1452q3 8 11 8h112q4 0 6.5 -3.5t-0.5 -10.5l-555 -1452q-3 -8 -10 -8h-112q-4 0 -7 3.5t0 10.5z" />
<glyph unicode="0" horiz-adv-x="1028" d="M68 713q0 141 18.5 257t52 195t76 137t94 90t101.5 47t104 15q65 0 124.5 -20.5t119.5 -73t104 -133.5t71.5 -213.5t27.5 -300.5q0 -158 -26 -285.5t-69 -209.5t-102 -137t-121 -78t-129 -23q-70 0 -133 22.5t-121 76.5t-100 136.5t-67 209.5t-25 288zM233 711 q0 -314 74.5 -460.5t206.5 -146.5t205.5 146.5t73.5 464.5q0 169 -20.5 290.5t-59 191t-88.5 101t-115 31.5q-60 0 -108 -32t-87 -101t-60.5 -192.5t-21.5 -292.5z" />
<glyph unicode="1" horiz-adv-x="587" d="M27 1169v54q0 12 4.5 18t9.5 7.5t18 4.5q41 9 74 26t55 40.5t34 41t24 40.5q9 19 17.5 26t25.5 7h80q8 0 8 -9v-1302l125 -41q11 -3 14.5 -8.5t3.5 -18.5v-47q0 -8 -8 -8h-440q-9 0 -9 8v49q0 20 19 25l141 45v1030h-184q-12 0 -12 12z" />
<glyph unicode="2" d="M68 41v53q0 160 71 270t271 250l67 48q83 58 133.5 99t93.5 89.5t61.5 98.5t18.5 110q0 49 -15.5 95t-46 86.5t-84.5 64.5t-124 24q-130 0 -210.5 -69.5t-80.5 -180.5v-20l35 -19q21 -10 21 -34v-62q0 -8 -9 -8h-170q-28 0 -28 31v84q0 174 121.5 288.5t328.5 114.5 q184 0 303 -106t119 -291q0 -64 -15 -117.5t-41.5 -98.5t-77.5 -94t-107.5 -92t-147.5 -106l-53 -37q-163 -113 -222 -194t-59 -177v-18h434q76 0 106 19.5t40 95.5l12 88q3 21 9 26.5t24 5.5h74q8 0 8 -8v-342q0 -8 -8 -8h-814q-20 0 -29 8.5t-9 32.5z" />
<glyph unicode="3" d="M43 424v59q0 31 29 31h190q8 0 8 -8v-62q0 -15 -4 -22.5t-16 -11.5l-47 -19v-22q0 -120 75 -193.5t218 -73.5q319 0 319 308q0 127 -91 195.5t-259 68.5h-19q-21 0 -29.5 8t-8.5 31v53q0 24 8.5 33.5t29.5 9.5h27q62 0 118 15t102 45t73 80.5t27 115.5q0 133 -79.5 198.5 t-207.5 65.5q-139 0 -215 -66.5t-76 -164.5v-21l39 -18q20 -10 20 -35v-61q0 -9 -8 -9h-172q-28 0 -28 31v78q0 174 128 282.5t316 108.5q192 0 313 -95t121 -272q0 -235 -248 -325v-4q38 -11 72 -26.5t75 -44.5t70 -65.5t48.5 -92t19.5 -121.5q0 -85 -31.5 -161.5 t-90.5 -136t-152 -95t-207 -35.5q-220 0 -338.5 116.5t-118.5 327.5z" />
<glyph unicode="4" d="M25 465v59q63 194 239 466t295 407q3 3 7 8t6.5 8t6.5 7t7.5 6t8.5 4t10.5 3t12.5 1h103q20 0 32 -4t17 -13.5t6.5 -17t1.5 -21.5v-831h156q8 0 8 -8v-105q0 -8 -8 -8h-156v-305l84 -39q19 -8 19 -35v-39q0 -8 -9 -8h-362q-8 0 -8 8v41q0 27 18 35l105 39v303h-559 q-21 0 -31 8.5t-10 30.5zM172 547h453v729q-92 -92 -253 -349t-200 -380z" />
<glyph unicode="5" d="M68 358v84q0 31 28 31h191q8 0 8 -8v-62q0 -26 -21 -34l-49 -19v-22q0 -94 72.5 -159t200.5 -65q139 0 220 93.5t81 267.5q0 168 -76 256t-205 88q-148 0 -272 -137h-115q-39 0 -39 41l17 712q0 9 8 9h755q3 0 6 -3t3 -6v-112q0 -8 -9 -8h-628l-11 -512q49 53 130 97 t190 44q186 0 299 -125.5t113 -329.5q0 -220 -130 -359.5t-346 -139.5q-104 0 -187 33.5t-132.5 88.5t-75.5 120.5t-26 135.5z" />
<glyph unicode="6" d="M49 705q0 159 26.5 286.5t72 213t110 142.5t136.5 82t155 25q181 0 287 -111.5t106 -273.5v-59q0 -31 -29 -31h-170q-8 0 -8 8v62q0 15 4.5 21.5t16.5 12.5l35 19q0 94 -72 160.5t-180 66.5q-143 0 -235.5 -142.5t-92.5 -412.5v-39q44 64 128.5 113t213.5 49 q181 0 299.5 -118t118.5 -312q0 -132 -52.5 -241.5t-158 -177.5t-246.5 -68q-229 0 -347 184t-118 541zM227 449q0 -162 83 -253.5t214 -91.5q133 0 208 96t75 255q0 160 -74 238.5t-205 78.5q-141 0 -221 -86t-80 -237z" />
<glyph unicode="7" d="M72 1116v309q0 9 8 9h899q8 0 8 -9v-116q-432 -644 -432 -1268q0 -24 -6 -32.5t-23 -8.5h-127q-23 0 -28.5 8t-5.5 35q0 158 49 349t126 362t165.5 318t171.5 241h-576q-56 0 -74.5 -15.5t-27.5 -70.5l-13 -78q-5 -28 -12 -34.5t-33 -6.5h-61q-8 0 -8 8z" />
<glyph unicode="8" d="M39 387q0 152 74 242t188 119v8q-211 80 -211 319q0 180 118 279.5t300 99.5q118 0 213 -41.5t154 -129t59 -208.5q0 -243 -213 -319v-8q114 -27 189 -118t75 -243q0 -82 -27 -150.5t-72.5 -115.5t-106.5 -79t-129 -47t-140 -15q-71 0 -138 15t-127.5 47t-106 79 t-72.5 115.5t-27 150.5zM203 393q0 -74 25 -131t68.5 -91t98 -50.5t117.5 -16.5t117.5 16.5t98 50.5t68.5 91t25 131q0 144 -87.5 218.5t-221.5 74.5t-221.5 -74.5t-87.5 -218.5zM242 1065q0 -127 73.5 -195.5t194.5 -68.5q124 0 198 68.5t74 195.5q0 130 -74.5 197 t-195.5 67t-195.5 -67t-74.5 -197z" />
<glyph unicode="9" d="M35 967q0 132 52.5 241.5t158 177.5t246.5 68q228 0 346 -185.5t118 -543.5q0 -159 -26 -286t-71 -212t-108.5 -141.5t-135 -81t-154.5 -24.5q-181 0 -289.5 111.5t-108.5 273.5v59q0 31 29 31h170q8 0 8 -9v-61q0 -25 -20 -35l-35 -18q-1 -104 75.5 -166t176.5 -62 q143 0 232 139t89 410v43q-40 -57 -134 -104t-214 -47q-180 0 -292.5 113.5t-112.5 308.5zM199 979q0 -159 75.5 -234t208.5 -75q141 0 218 80.5t77 230.5q0 162 -83 255t-214 93q-133 0 -207.5 -95.5t-74.5 -254.5z" />
<glyph unicode=":" horiz-adv-x="434" d="M96 100q0 51 33.5 85t85.5 34t86.5 -34t34.5 -85q0 -52 -34 -86t-87 -34q-52 0 -85.5 33.5t-33.5 86.5zM96 623q0 51 33.5 84.5t85.5 33.5t86.5 -33.5t34.5 -84.5q0 -53 -34 -87t-87 -34q-52 0 -85.5 34t-33.5 87z" />
<glyph unicode=";" horiz-adv-x="434" d="M61 -254q-3 8 5 12q53 30 93 89t50 133q-53 0 -86 30t-33 82q0 53 32.5 90t86.5 37q55 0 91 -38.5t36 -110.5t-23.5 -140.5t-59 -117t-73.5 -82t-71 -47.5q-14 -5 -21 10zM90 623q0 51 33.5 84.5t85.5 33.5t86.5 -33.5t34.5 -84.5q0 -53 -34 -87t-87 -34q-52 0 -85.5 34 t-33.5 87z" />
<glyph unicode="&#x3c;" d="M61 582v106q0 7 9 10l880 439q5 3 9 0t4 -7v-131q0 -9 -9 -12l-739 -350l739 -369q9 -3 9 -12v-109q0 -12 -13 -8l-880 430q-9 3 -9 13z" />
<glyph unicode="=" d="M61 375v110q0 3 3 6t6 3h884q3 0 6 -3t3 -6v-110q0 -8 -9 -8h-884q-9 0 -9 8zM61 784v111q0 8 9 8h884q9 0 9 -8v-111q0 -8 -9 -8h-884q-9 0 -9 8z" />
<glyph unicode="&#x3e;" d="M61 147v109q0 9 9 12l739 369l-739 350q-9 3 -9 12v131q0 4 4 7t9 0l880 -439q9 -3 9 -10v-106q0 -10 -9 -13l-880 -430q-13 -4 -13 8z" />
<glyph unicode="?" horiz-adv-x="1015" d="M96 1008v51q0 174 110 284.5t306 110.5q175 0 285 -91t110 -251q0 -64 -18.5 -119t-48 -95t-65 -76.5t-71 -72.5t-65 -73.5t-48 -88t-18.5 -108.5v-41q0 -8 -8 -8h-96q-14 0 -19.5 6t-5.5 25v26q0 66 17 124t44 100.5t60 81t66 74t60 71t44 79.5t17 93q0 95 -63.5 164 t-188.5 69q-124 0 -188 -67t-64 -166v-10l35 -19q12 -6 16 -12.5t4 -21.5v-62q0 -8 -8 -8h-170q-29 0 -29 31zM389 100q0 51 33.5 85t85.5 34t86.5 -34t34.5 -85q0 -52 -34 -86t-87 -34q-52 0 -85.5 33.5t-33.5 86.5z" />
<glyph unicode="@" horiz-adv-x="1605" d="M61 412q0 210 105.5 380.5t280 263.5t378.5 93q149 0 283 -53t229.5 -143.5t151 -214.5t55.5 -261q0 -114 -39.5 -210.5t-101 -156.5t-130.5 -93t-132 -33q-128 0 -140 137q-63 -69 -118 -104t-133 -35q-63 0 -119.5 21t-106 65.5t-79 125t-29.5 187.5q0 108 30 195 t80.5 140t113.5 81t132 28q81 0 139.5 -35.5t89.5 -78.5v86q0 8 9 8h202q9 0 9 -8v-49q0 -14 -11 -19l-59 -31v-536q0 -49 37 -49q27 0 63.5 24t72.5 66.5t60.5 113.5t24.5 152q0 110 -44 212.5t-120 180t-186 124t-234 46.5q-127 0 -242.5 -49t-198.5 -132.5t-132 -198 t-49 -240.5q0 -168 83 -312t226 -228.5t311 -84.5q152 0 287 74l55 -94q-179 -93 -342 -93q-152 0 -291 55t-243 151t-166 235t-62 297zM567 387q0 -150 63 -218.5t154 -68.5q47 0 93.5 24.5t69.5 47t54 57.5v351q-35 55 -89.5 91t-118.5 36q-104 0 -165 -86.5t-61 -233.5z " />
<glyph unicode="A" horiz-adv-x="1175" d="M0 8v43q0 26 18 35l72 31l354 1198l-79 37q-19 10 -19 24v49q0 9 8 9h287q21 0 29 -21l415 -1296l72 -31q19 -10 19 -35v-43q0 -8 -9 -8h-344q-8 0 -8 8v43q0 25 19 35l81 39l-98 317h-498l-90 -317l82 -39q19 -10 19 -35v-43q0 -8 -8 -8h-314q-8 0 -8 8zM352 561h428 l-223 723z" />
<glyph unicode="B" horiz-adv-x="1175" d="M90 8v45q0 21 19 29l84 39v1192l-84 39q-11 5 -15 10t-4 18v45q0 9 8 9h486q114 0 200.5 -30t136.5 -81t74.5 -113.5t24.5 -134.5q0 -68 -20.5 -124t-55.5 -93.5t-71.5 -62t-77.5 -39.5v-6q278 -82 278 -359q0 -84 -26.5 -150t-73.5 -111t-114.5 -74.5t-145.5 -42.5 t-170 -13h-445q-8 0 -8 8zM354 109h178q375 0 375 292q0 141 -92.5 216t-275.5 75h-185v-583zM354 801h176q328 0 328 264q0 128 -82.5 194t-234.5 66h-187v-524z" />
<glyph unicode="C" horiz-adv-x="1064" d="M102 666q0 211 34 364t100 245.5t156 135.5t208 43q172 0 254 -104l23 63q7 21 34 21h56q8 0 8 -9v-391q0 -8 -8 -8h-62q-44 0 -47 41q-6 56 -21.5 103t-44.5 88t-78 64.5t-114 23.5q-108 0 -179 -66t-109 -216.5t-38 -389.5v-2q0 -140 18 -245t46.5 -167t70.5 -100 t84 -51t93 -13q125 0 197.5 81.5t72.5 230.5v43q0 36 43 36h51q24 0 32.5 -8.5t8.5 -27.5v-29q0 -213 -109.5 -327.5t-306.5 -114.5q-473 0 -473 686z" />
<glyph unicode="D" horiz-adv-x="1193" d="M90 8v47q0 13 4 17.5t15 9.5l84 39v1192l-84 39q-12 5 -15.5 9t-3.5 17v47q0 9 8 9h488q86 0 159 -21.5t138 -73.5t110.5 -132t72 -203.5t26.5 -282.5q0 -174 -29 -304t-77 -208.5t-120 -126.5t-147 -65t-170 -17h-451q-8 0 -8 8zM354 109h207q359 0 359 610 q0 137 -19.5 243t-52.5 173.5t-80 111t-97.5 61t-109.5 17.5h-207v-1216z" />
<glyph unicode="E" horiz-adv-x="1050" d="M90 8v45q0 21 19 29l84 39v1192l-84 39q-11 5 -15 10t-4 18v45q0 9 8 9h828q8 0 8 -9v-309q0 -8 -8 -8h-70q-21 0 -27.5 6.5t-9.5 28.5l-14 94q-7 53 -27 70.5t-67 17.5h-357v-524h260l37 104q7 21 16.5 28t28.5 7h52q8 0 8 -8v-371q0 -8 -8 -8h-52q-19 0 -28.5 7 t-16.5 28l-37 104h-260v-583h322q72 0 104 29t41 100l13 88q3 21 8.5 26.5t23.5 5.5h74q8 0 8 -8v-342q0 -8 -8 -8h-842q-8 0 -8 8z" />
<glyph unicode="F" horiz-adv-x="1040" d="M90 8v45q0 21 19 29l84 39v1192l-84 39q-11 5 -15 10t-4 18v45q0 9 8 9h873q8 0 8 -9v-309q0 -8 -8 -8h-70q-22 0 -28 6t-9 29l-14 94q-7 53 -27 70.5t-67 17.5h-402v-545h299l37 105q8 22 14 28.5t21 6.5h61q3 0 6 -3t3 -6v-370q0 -3 -3 -6t-6 -3h-61q-15 0 -21 6.5 t-14 28.5l-37 105h-299v-547l109 -41q11 -5 14.5 -9.5t3.5 -15.5v-51q0 -8 -8 -8h-375q-8 0 -8 8z" />
<glyph unicode="G" horiz-adv-x="1155" d="M102 694q0 168 26.5 300.5t71.5 217.5t109 140.5t133.5 78.5t149.5 23q183 0 278 -125l17 84q5 21 35 21h55q8 0 8 -9v-391q0 -8 -8 -8h-62q-24 0 -34 9.5t-13 31.5q-7 53 -25.5 100t-49.5 88.5t-81 66t-112 24.5q-70 0 -127.5 -35t-103 -108.5t-70.5 -199.5t-25 -296 q0 -143 20.5 -254t53 -178.5t78 -111t90.5 -59.5t96 -16q132 0 214.5 103.5t82.5 275.5v125l-157 12q-12 2 -16.5 7t-4.5 18v73q0 9 8 9h273q45 0 45 -47v-275q0 -58 20 -78v-35q-79 -136 -199.5 -216t-281.5 -80q-78 0 -147 20.5t-134 72t-111 130.5t-74 204.5t-28 286.5z " />
<glyph unicode="H" horiz-adv-x="1312" d="M90 8v49q0 17 14 23l89 41v1192l-89 41q-14 6 -14 22v49q0 9 8 9h351q8 0 8 -9v-49q0 -16 -15 -22l-88 -41v-510h604v510l-88 41q-14 6 -14 22v49q0 9 8 9h350q3 0 6 -3t3 -6v-49q0 -16 -15 -22l-88 -41v-1192l88 -41q15 -6 15 -23v-49q0 -8 -9 -8h-350q-8 0 -8 8v49 q0 17 14 23l88 41v563h-604v-563l88 -41q15 -6 15 -23v-49q0 -8 -8 -8h-351q-8 0 -8 8z" />
<glyph unicode="I" horiz-adv-x="567" d="M90 8v49q0 17 14 23l99 41v1192l-99 41q-14 6 -14 22v49q0 9 8 9h371q8 0 8 -9v-49q0 -16 -14 -22l-98 -41v-1192l98 -41q14 -6 14 -23v-49q0 -8 -8 -8h-371q-8 0 -8 8z" />
<glyph unicode="J" horiz-adv-x="1003" d="M57 365q0 88 27 215q5 22 12 28t29 6h162q9 0 12.5 -4t3.5 -16v-39q0 -12 -4 -17.5t-23 -13.5l-63 -28q-10 -50 -10 -131q0 -133 61 -205t172 -72q234 0 234 330v895l-105 37q-11 5 -14.5 10t-3.5 18v47q0 9 8 9h371q8 0 8 -9v-47q0 -13 -3.5 -17t-15.5 -9l-84 -39v-885 q0 -100 -21 -178.5t-66.5 -140.5t-124.5 -95.5t-187 -33.5q-174 0 -274.5 100.5t-100.5 284.5z" />
<glyph unicode="K" horiz-adv-x="1230" d="M90 8v49q0 17 14 23l89 41v1192l-89 41q-14 6 -14 22v49q0 9 8 9h351q8 0 8 -9v-49q0 -16 -15 -22l-88 -41v-649l580 661l-88 25q-6 2 -8.5 3t-5.5 3.5t-4 6t-1 9.5v53q0 3 3 6t6 3h350q8 0 8 -9v-49q0 -15 -14 -22l-97 -41l-391 -434l434 -756l88 -41q17 -8 17 -27v-47 q0 -8 -8 -8h-377q-8 0 -8 8v47q0 18 18 27l84 39l-358 633l-228 -258v-375l88 -41q15 -6 15 -23v-49q0 -8 -8 -8h-351q-8 0 -8 8z" />
<glyph unicode="L" horiz-adv-x="993" d="M90 8v45q0 21 19 29l84 39v1192l-84 39q-12 5 -15.5 9t-3.5 17v47q0 9 8 9h351q8 0 8 -9v-47q0 -13 -3.5 -17t-15.5 -9l-84 -39v-1204h305q72 0 104.5 29t41.5 100l12 88q3 21 9 26.5t24 5.5h74q8 0 8 -8v-342q0 -8 -8 -8h-826q-8 0 -8 8z" />
<glyph unicode="M" horiz-adv-x="1609" d="M90 8v45q0 21 19 29l84 39v1192l-84 39q-11 5 -15 10t-4 18v45q0 9 8 9h328q16 0 21 -5t10 -22l336 -1204l368 1214q6 17 19 17h331q3 0 6 -3t3 -6v-45q0 -13 -4 -18t-15 -10l-84 -39v-1192l84 -39q19 -8 19 -29v-45q0 -8 -9 -8h-342q-8 0 -8 8v45q0 21 19 29l84 39v1192 l-406 -1297q-5 -16 -27 -16h-116q-18 0 -23 16l-362 1293v-1188l84 -39q11 -5 14.5 -10.5t3.5 -18.5v-45q0 -8 -8 -8h-326q-8 0 -8 8z" />
<glyph unicode="N" horiz-adv-x="1286" d="M90 8v45q0 21 19 29l84 39v1192l-84 39q-11 5 -15 10t-4 18v45q0 9 8 9h271q13 0 18 -13l569 -1167v1059l-84 39q-11 5 -14.5 10t-3.5 18v45q0 9 8 9h326q8 0 8 -9v-45q0 -13 -3.5 -18t-14.5 -10l-84 -39v-1305q0 -8 -9 -8h-143q-23 0 -33 20l-579 1178v-1077l84 -39 q11 -5 14.5 -10.5t3.5 -18.5v-45q0 -8 -8 -8h-326q-8 0 -8 8z" />
<glyph unicode="O" horiz-adv-x="1208" d="M102 713q0 138 17.5 250.5t46 188t70.5 132.5t84.5 88.5t95.5 50.5t96 25t92 6t91.5 -6t95.5 -25t95.5 -50.5t85 -88.5t71 -132.5t46 -188t17.5 -250.5q0 -131 -17 -238.5t-45 -182t-68.5 -131.5t-83.5 -90.5t-95 -54.5t-97.5 -28.5t-95.5 -7.5q-53 0 -99 7t-98.5 27.5 t-95 54t-82.5 90t-67 131.5t-43.5 183t-16.5 240zM274 711q0 -623 330 -623q328 0 328 627q0 226 -41 368.5t-112.5 202.5t-178.5 60q-326 0 -326 -635z" />
<glyph unicode="P" horiz-adv-x="1120" d="M90 8v47q0 13 4 17.5t15 9.5l84 39v1192l-84 39q-12 5 -15.5 9t-3.5 17v47q0 9 8 9h471q469 0 469 -420q0 -210 -126 -323t-355 -113h-203v-453l109 -41q10 -4 12 -8.5t2 -18.5v-49q0 -8 -4 -8h-375q-8 0 -8 8zM354 688h193q163 0 243 84t80 238q0 315 -327 315h-189 v-637z" />
<glyph unicode="Q" horiz-adv-x="1208" d="M102 713q0 138 17.5 250.5t46 188t70.5 132.5t84.5 88.5t95.5 50.5t96 25t92 6t91.5 -6t95.5 -25t95.5 -50.5t85 -88.5t71 -132.5t46 -188t17.5 -250.5q0 -587 -324 -705q80 -155 232 -155q62 0 116 26q12 6 17.5 1t5.5 -23v-80q0 -22 -20 -31q-68 -29 -140 -29 q-111 0 -205.5 69t-152.5 196q-5 0 -15.5 -1t-15.5 -1q-53 0 -99 7t-98.5 27.5t-95 54t-82.5 90t-67 131.5t-43.5 183t-16.5 240zM274 711q0 -623 330 -623q328 0 328 627q0 226 -41 368.5t-112.5 202.5t-178.5 60q-326 0 -326 -635z" />
<glyph unicode="R" horiz-adv-x="1202" d="M90 8v45q0 21 19 29l84 39v1192l-84 39q-11 5 -15 10t-4 18v45q0 9 8 9h451q239 0 359 -98t120 -287q0 -66 -19 -123t-47.5 -96t-66.5 -70t-72 -48.5t-67 -27.5v-4q52 -26 96 -79t94 -159l154 -323l67 -31q18 -7 21.5 -12t3.5 -23v-45q0 -8 -8 -8h-189q-22 0 -33.5 8.5 t-17.5 28.5l-174 416q-43 104 -98.5 136t-179.5 32h-138v-500l84 -39q19 -8 19 -29v-45q0 -8 -8 -8h-351q-8 0 -8 8zM354 727h152q168 0 261 76.5t93 238.5q0 145 -91.5 214t-246.5 69h-168v-598z" />
<glyph unicode="S" horiz-adv-x="1069" d="M102 8v410q0 8 9 8h65q17 0 23 -7t14 -34q13 -43 28 -78t43.5 -78t63 -72t89 -49t120.5 -20q122 0 191 74t69 184q0 63 -24 112t-65 81t-94.5 58t-112 47.5t-117 45t-112 56t-94.5 74t-65 105t-24 144.5q0 172 113 278.5t296 106.5q97 0 163.5 -31.5t102.5 -74.5l23 65 q5 13 8.5 17t13.5 4h66q8 0 8 -9v-338q0 -8 -8 -8h-76q-14 0 -20.5 8t-12.5 35q-8 34 -17.5 60t-30 59t-48 54t-72.5 36t-102 15q-108 0 -183 -68.5t-75 -173.5q0 -63 24.5 -112t66 -81.5t95.5 -59t113 -48.5t118.5 -45.5t113.5 -55.5t95.5 -72.5t66 -102.5t24.5 -140 q0 -99 -36 -178.5t-96.5 -128.5t-135 -74.5t-156.5 -25.5q-115 0 -197.5 39t-124.5 83l-34 -84q-6 -11 -11 -14.5t-16 -3.5h-57q-9 0 -9 8z" />
<glyph unicode="T" horiz-adv-x="1099" d="M61 1096v350q0 8 9 8h24q39 -20 90 -20h731q52 0 91 20h24q8 0 8 -8v-350q0 -9 -8 -9h-72q-21 0 -26 6t-8 29l-15 115q-7 53 -27 70.5t-67 17.5h-184v-1200l108 -41q19 -8 19 -29v-47q0 -8 -8 -8h-400q-8 0 -8 8v47q0 13 3.5 18.5t14.5 10.5l109 41v1200h-184 q-47 0 -67.5 -17.5t-27.5 -70.5l-14 -115q-3 -23 -8.5 -29t-26.5 -6h-71q-3 0 -6 3t-3 6z" />
<glyph unicode="U" horiz-adv-x="1275" d="M86 1380v45q0 9 8 9h350q3 0 6 -3t3 -6v-45q0 -13 -4 -18t-15 -10l-84 -39v-918q0 -147 75 -225t220 -78q130 0 213.5 80t83.5 229v912l-84 39q-11 5 -14.5 10t-3.5 18v45q0 9 8 9h334q8 0 8 -9v-45q0 -13 -4 -18t-15 -10l-84 -39v-936q0 -127 -63 -219t-163.5 -135 t-225.5 -43q-212 0 -329.5 112t-117.5 279v942l-84 39q-11 5 -14.5 10t-3.5 18z" />
<glyph unicode="V" horiz-adv-x="1148" d="M0 1378v47q0 9 8 9h359q8 0 8 -9v-45q0 -13 -3.5 -17t-15.5 -9l-92 -37l338 -1135l320 1131l-97 41q-9 5 -11.5 9t-2.5 17v45q0 9 8 9h322q8 0 8 -9v-43q0 -14 -4 -19.5t-15 -10.5l-79 -37l-369 -1284q-6 -21 -13 -26t-28 -5h-117q-20 0 -27.5 6t-13.5 27l-385 1282 l-80 37q-18 9 -18 26z" />
<glyph unicode="W" horiz-adv-x="1603" d="M16 1386v39q0 3 3 6t6 3h358q8 0 8 -9v-39q0 -25 -18 -34l-92 -39l256 -1133l204 1133l-84 39q-18 9 -18 34v39q0 9 8 9h359q8 0 8 -9v-39q0 -16 -4.5 -22.5t-14.5 -11.5l-92 -39l240 -1133l219 1131l-100 41q-19 6 -19 34v39q0 9 8 9h328q8 0 8 -9v-39q0 -25 -18 -34 l-84 -39l-256 -1268q-6 -28 -18 -36.5t-44 -8.5h-84q-30 0 -40.5 8t-16.5 37l-211 1059l-192 -1059q-4 -28 -17 -36.5t-45 -8.5h-86q-30 0 -41.5 8.5t-17.5 36.5l-301 1268l-80 39q-10 5 -14.5 11.5t-4.5 22.5z" />
<glyph unicode="X" horiz-adv-x="1107" d="M0 8v39q0 27 18 35l84 39l365 604l-354 588l-84 39q-19 8 -19 34v39q0 9 8 9h359q8 0 8 -9v-39q0 -26 -18 -34l-84 -39l278 -463l285 463l-84 39q-19 8 -19 34v39q0 3 3 6t6 3h338q8 0 8 -9v-39q0 -26 -19 -34l-84 -39l-360 -584l371 -608l84 -39q18 -8 18 -35v-39 q0 -8 -8 -8h-359q-8 0 -8 8v39q0 27 19 35l84 39l-295 483l-289 -483l84 -39q18 -8 18 -35v-39q0 -8 -8 -8h-338q-8 0 -8 8z" />
<glyph unicode="Y" horiz-adv-x="1148" d="M0 1386v39q0 9 8 9h354q3 0 6 -3t3 -6v-39q0 -16 -4.5 -22.5t-14.5 -11.5l-86 -37l330 -572l315 570l-94 41q-9 4 -10.5 7.5t-1.5 14.5v49q0 9 8 9h328q8 0 8 -9v-47q0 -11 -4 -16t-15 -10l-77 -33l-398 -705v-493l84 -39q19 -8 19 -29v-45q0 -8 -8 -8h-351q-8 0 -8 8v45 q0 21 19 29l84 39v504l-398 690l-78 37q-18 9 -18 34z" />
<glyph unicode="Z" horiz-adv-x="1054" d="M86 41v59l700 1225h-464q-47 0 -67.5 -17.5t-27.5 -70.5l-14 -94q-3 -22 -9 -28.5t-26 -6.5h-72q-8 0 -8 8v309q0 9 8 9h809q20 0 28.5 -8.5t8.5 -30.5v-80l-682 -1206h422q74 0 106 26t44 103l12 88q3 21 9 26.5t24 5.5h74q8 0 8 -8v-342q0 -8 -8 -8h-836q-21 0 -30 9 t-9 32z" />
<glyph unicode="[" horiz-adv-x="686" d="M238 -258v1786q0 8 8 8h391q8 0 8 -8v-98q0 -9 -8 -9h-256v-1573h256q8 0 8 -8v-98q0 -8 -8 -8h-391q-8 0 -8 8z" />
<glyph unicode="\" horiz-adv-x="688" d="M1.5 1450.5q2.5 3.5 6.5 3.5h113q7 0 10 -8l555 -1452q3 -7 0.5 -10.5t-6.5 -3.5h-113q-7 0 -10 8l-555 1452q-3 7 -0.5 10.5z" />
<glyph unicode="]" horiz-adv-x="686" d="M41 -160q0 8 8 8h256v1573h-256q-8 0 -8 9v98q0 8 8 8h391q9 0 9 -8v-1786q0 -8 -9 -8h-391q-8 0 -8 8v98z" />
<glyph unicode="^" horiz-adv-x="614" d="M20 852l183 573q3 9 12 9h184q10 0 13 -9l182 -573q4 -12 -8 -12h-78q-9 0 -12 8l-189 469l-188 -469q-3 -8 -13 -8h-77q-13 0 -9 12z" />
<glyph unicode="_" horiz-adv-x="704" d="M-8 -190q0 8 8 8h705q8 0 8 -8v-103q0 -8 -8 -8h-705q-8 0 -8 8v103z" />
<glyph unicode="`" horiz-adv-x="450" d="M10.5 1428.5q1.5 5.5 7.5 5.5h144q9 0 12 -9l121 -389q4 -12 -8 -12h-88q-10 0 -13 8l-174 385q-3 6 -1.5 11.5z" />
<glyph unicode="a" horiz-adv-x="856" d="M86 203q0 96 61 162t199 98l201 47v80q0 74 -50 122t-120 48q-78 0 -139 -45q51 -25 51 -82q0 -40 -25.5 -62t-62.5 -22q-41 0 -66.5 27.5t-25.5 68.5q0 87 87.5 151t217.5 64q129 0 205.5 -75.5t76.5 -206.5v-435q0 -36 16.5 -51.5t55.5 -9.5q18 3 18 -14v-33 q0 -24 -12 -31q-36 -22 -88 -22q-55 0 -90 30.5t-39 91.5q-34 -51 -97 -87.5t-136 -36.5q-32 0 -64.5 7.5t-64 25t-55.5 42.5t-39 63.5t-15 84.5zM231 217q0 -61 39 -95t95 -34t103 33.5t79 77.5v209l-129 -23q-93 -17 -140 -61t-47 -107z" />
<glyph unicode="b" horiz-adv-x="993" d="M70 1382v43q0 9 8 9h182q19 0 28 -9t9 -32v-645q22 24 52 45.5t91.5 44t128.5 22.5q58 0 113.5 -23t106 -70.5t81.5 -133t31 -197.5q0 -106 -26 -188.5t-66 -132t-93.5 -81t-103.5 -43t-102 -11.5q-72 0 -135 24.5t-115 75t-82.5 138t-30.5 202.5v907l-59 27 q-13 6 -15.5 10.5t-2.5 17.5zM297 414q0 -164 63 -246t162 -82q36 0 72.5 16t73 51.5t59.5 105t23 163.5q0 80 -16 140.5t-39.5 93.5t-56 53t-59 26t-55.5 6q-119 0 -227 -104v-223z" />
<glyph unicode="c" horiz-adv-x="811" d="M92 408q0 206 101 329t268 123q111 0 186.5 -57.5t75.5 -132.5q0 -48 -28.5 -76.5t-69.5 -28.5q-37 0 -65 23t-28 61q0 40 33 78q-41 29 -106 29q-102 0 -158.5 -79.5t-56.5 -219.5v-47q0 -85 23.5 -155.5t73 -115.5t116.5 -45q122 0 229 111q7 7 14 0l50 -55q9 -9 2 -19 q-125 -151 -303 -151q-69 0 -131 24.5t-113.5 74t-82 134.5t-30.5 195z" />
<glyph unicode="d" horiz-adv-x="1013" d="M92 399q0 107 32 196.5t84 146t116 87.5t131 31q84 0 147.5 -36.5t93.5 -78.5v582l-71 25q-19 7 -19 26v47q0 9 8 9h195q19 0 28 -9t9 -32v-1246q0 -36 16.5 -51.5t55.5 -9.5q18 3 18 -14v-37q0 -24 -12 -31q-36 -22 -95 -22q-58 0 -93 37t-40 100q-60 -65 -121.5 -102 t-140.5 -37q-49 0 -96.5 14t-92.5 46.5t-78.5 80t-54 119t-20.5 159.5zM244 408q0 -155 67.5 -232.5t157.5 -77.5q116 0 227 127v389q-35 55 -95 91t-126 36q-101 0 -166 -95t-65 -238z" />
<glyph unicode="e" horiz-adv-x="866" d="M92 406q0 211 104 332.5t279 121.5q141 0 225 -77t84 -193q0 -107 -73.5 -161t-200.5 -54h-266q2 -129 68.5 -206t183.5 -77q67 0 117.5 23t105.5 65q8 6 14 0l47 -59q6 -9 -2 -17q-127 -124 -315 -124q-167 0 -269 109.5t-102 316.5zM244 475h252q71 0 109 26.5t38 90.5 q0 73 -49 118.5t-131 45.5q-100 0 -159.5 -83.5t-59.5 -195.5v-2z" />
<glyph unicode="f" horiz-adv-x="536" d="M49 772v59q0 9 8 9h99v182q0 93 32.5 175.5t85 137.5t118 87t130.5 32q62 0 95.5 -28t33.5 -74q0 -36 -24 -59t-60 -23q-31 0 -85 35.5t-87 35.5q-90 0 -90 -215v-286h205q8 0 8 -9v-86q0 -8 -8 -8h-205v-628l68 -29q18 -9 18 -37v-35q0 -8 -8 -8h-289q-8 0 -8 8v35 q0 26 18 35l52 28v627l-88 17q-19 3 -19 22z" />
<glyph unicode="g" horiz-adv-x="870" d="M90 47l115 295q-103 87 -103 217q0 124 94 210t232 91q1 117 56 180.5t145 63.5q57 0 91 -32t34 -75q0 -37 -27 -64.5t-68 -27.5q-32 0 -55.5 19.5t-32.5 50.5q-43 -19 -43 -125q115 -26 186.5 -106t71.5 -183q0 -129 -100 -214t-244 -85q-78 0 -149 27l-55 -166 q96 22 219 22q185 0 289 -64.5t104 -174.5q0 -128 -118 -201.5t-292 -73.5q-144 0 -245 57.5t-101 141.5q0 45 28.5 73.5t67.5 28.5q34 0 58 -21t24 -58q0 -38 -30 -68q28 -30 87.5 -45.5t112.5 -15.5q104 0 182 40.5t78 110.5t-73.5 103.5t-192.5 33.5q-68 0 -182.5 -13 t-120.5 -13q-27 0 -40 17.5t-3 43.5zM250 561q0 -97 55.5 -148t140.5 -51q82 0 137.5 51t55.5 148q0 95 -55.5 145t-139.5 50q-83 0 -138.5 -50.5t-55.5 -144.5z" />
<glyph unicode="h" horiz-adv-x="952" d="M78 8v45q0 16 18 25l51 28v1221l-59 31q-10 5 -10 18v49q0 9 8 9h174q19 0 28 -9t9 -32v-668q120 135 258 135q111 0 180.5 -73t69.5 -183v-498l51 -28q18 -9 18 -25v-45q0 -8 -8 -8h-272q-8 0 -8 8v45q0 16 18 25l51 28v490q0 68 -37 107.5t-106 39.5q-62 0 -119 -39.5 t-96 -89.5v-508l51 -28q19 -10 19 -25v-45q0 -8 -9 -8h-272q-8 0 -8 8z" />
<glyph unicode="i" horiz-adv-x="444" d="M78 8v45q0 16 18 25l51 28v627l-59 31q-10 5 -10 18v49q0 9 8 9h174q19 0 28 -9t9 -32v-693l51 -28q19 -10 19 -25v-45q0 -8 -9 -8h-272q-8 0 -8 8zM102 1176q0 46 31 77t78 31t79 -31t32 -77q0 -47 -32 -79t-79 -32t-78 32t-31 79z" />
<glyph unicode="j" horiz-adv-x="444" d="M-121 -281q0 34 22 58t54 24q29 0 64 -19.5t59 -19.5q27 0 48 36t21 114v821l-59 31q-10 5 -10 18v49q0 9 8 9h174q19 0 28 -9t9 -32v-736q0 -82 -21.5 -154t-56 -121.5t-77.5 -86t-85.5 -53.5t-79.5 -17q-40 0 -69 24t-29 64zM102 1176q0 46 31 77t78 31t79 -31t32 -77 q0 -47 -32 -79t-79 -32t-78 32t-31 79z" />
<glyph unicode="k" horiz-adv-x="886" d="M78 8v45q0 16 18 25l51 28v1221l-59 31q-10 5 -10 18v49q0 9 8 9h174q19 0 28 -9t9 -32v-916l209 187q46 41 67 69.5t21 54.5v43q0 9 8 9h215q8 0 8 -9v-53q0 -17 -22 -24l-76 -29l-285 -248l334 -364l55 -27q23 -10 23 -25v-53q0 -8 -8 -8h-158q-12 0 -24 12l-367 418 v-324l51 -28q19 -10 19 -25v-45q0 -8 -9 -8h-272q-8 0 -8 8z" />
<glyph unicode="l" horiz-adv-x="468" d="M78 8v45q0 16 18 25l64 28v1221l-72 31q-10 5 -10 18v49q0 9 8 9h186q19 0 28 -9t9 -32v-1287l64 -28q18 -9 18 -25v-45q0 -8 -8 -8h-297q-8 0 -8 8z" />
<glyph unicode="m" horiz-adv-x="1427" d="M78 8v45q0 16 18 25l51 28v627l-59 31q-10 5 -10 18v49q0 9 8 9h203q8 0 8 -9v-106q32 36 59 60.5t80 49.5t111 25q76 0 132 -40.5t85 -108.5q127 149 274 149q110 0 176 -72.5t66 -183.5v-498l51 -28q19 -10 19 -25v-45q0 -8 -9 -8h-264q-8 0 -8 8v45q0 18 16 27l45 26 v490q0 68 -33.5 106.5t-101.5 38.5q-60 0 -114 -38t-93 -89v-508l46 -26q16 -10 16 -27v-45q0 -8 -8 -8h-256q-8 0 -8 8v45q0 17 16 27l45 26v490q0 68 -33.5 106.5t-101.5 38.5q-109 0 -207 -127v-508l51 -28q19 -10 19 -25v-45q0 -8 -9 -8h-272q-8 0 -8 8z" />
<glyph unicode="n" horiz-adv-x="952" d="M78 8v45q0 16 18 25l51 28v627l-59 31q-10 5 -10 18v49q0 9 8 9h203q8 0 8 -9v-106q120 135 258 135q111 0 180.5 -73t69.5 -183v-498l51 -28q18 -9 18 -25v-45q0 -8 -8 -8h-272q-8 0 -8 8v45q0 16 18 25l51 28v490q0 68 -36 107.5t-105 39.5q-62 0 -120.5 -39.5 t-96.5 -89.5v-508l51 -28q19 -10 19 -25v-45q0 -8 -9 -8h-272q-8 0 -8 8z" />
<glyph unicode="o" horiz-adv-x="944" d="M92 420q0 204 107 322t272 118t273 -118t108 -322t-108 -322t-273 -118t-272 118t-107 322zM244 420q0 -160 63 -248t164 -88q102 0 165.5 88t63.5 248t-63.5 248t-165.5 88q-101 0 -164 -88t-63 -248z" />
<glyph unicode="p" horiz-adv-x="993" d="M78 -295q0 16 18 25l51 28v975l-59 31q-10 5 -10 18v49q0 9 8 9h174q19 0 28 -9t9 -32v-60q34 40 110 80.5t162 40.5q58 0 113.5 -23t106 -70.5t81.5 -133t31 -197.5q0 -111 -31.5 -200t-83 -143.5t-113 -83.5t-126.5 -29q-71 0 -147.5 40.5t-102.5 81.5v-342l68 -28 q12 -6 15 -11t3 -16v-45q0 -8 -8 -8h-289q-8 0 -8 8v45zM297 229q33 -52 99 -91.5t126 -39.5q37 0 72.5 14t72.5 47t60 101t23 162q0 80 -16.5 140.5t-40 93.5t-56.5 53t-59.5 26t-55.5 6q-54 0 -121.5 -36.5t-103.5 -79.5v-396z" />
<glyph unicode="q" horiz-adv-x="993" d="M92 399q0 111 32.5 201t86 145.5t117.5 85t131 29.5q78 0 142.5 -38.5t94.5 -80.5v58q0 23 9 32t28 9h174q8 0 8 -9v-49q0 -13 -10 -18l-59 -31v-975l51 -28q18 -9 18 -25v-45q0 -8 -8 -8h-289q-8 0 -8 8v45q0 11 3.5 16t15.5 11l67 28v357q-38 -49 -107.5 -93 t-158.5 -44q-46 0 -91 13.5t-90.5 46t-79.5 79t-55.5 119.5t-21.5 161zM244 401q0 -141 65 -223t156 -82q65 0 127 39.5t104 87.5v395q-34 54 -93.5 88.5t-129.5 34.5q-101 0 -165 -93t-64 -247z" />
<glyph unicode="r" horiz-adv-x="694" d="M78 8v45q0 16 18 25l51 28v627l-59 31q-10 5 -10 18v49q0 9 8 9h203q8 0 8 -9v-147q113 176 270 176q49 0 78 -29t29 -77q0 -45 -27 -73t-67 -28q-44 0 -69.5 27.5t-25.5 64.5q-99 -31 -188 -192v-444l68 -29q12 -6 15 -11t3 -16v-45q0 -8 -8 -8h-289q-8 0 -8 8z" />
<glyph unicode="s" horiz-adv-x="800" d="M86 182q0 50 28.5 78.5t67.5 28.5q34 0 58 -22t24 -60q0 -39 -37 -76q50 -47 166 -47q73 0 122.5 35t49.5 96q0 36 -25.5 62.5t-66.5 44t-90 33.5t-98.5 36.5t-90.5 46.5t-66.5 70t-25.5 102q0 118 87 184t231 66q122 0 193 -57t71 -131q0 -46 -26 -72.5t-64 -26.5 q-34 0 -60 20t-26 54t35 74q-50 35 -135 35q-69 0 -115.5 -28.5t-46.5 -86.5q0 -53 48.5 -89t117.5 -59.5t137.5 -49.5t117 -75t48.5 -120q0 -111 -91 -189.5t-245 -78.5q-127 0 -210 59.5t-83 142.5z" />
<glyph unicode="t" horiz-adv-x="587" d="M37 774v57q0 9 8 9h102v286q0 41 37 41h72q21 0 31 -9t10 -32v-286h233q3 0 6 -3t3 -6v-86q0 -8 -9 -8h-233v-528q0 -54 29 -85.5t80 -31.5q49 0 116 41q9 7 19 2.5t10 -20.5v-35q0 -31 -16 -43q-29 -22 -77.5 -39.5t-101.5 -17.5q-98 0 -153.5 60t-55.5 163v530l-92 17 q-18 3 -18 24z" />
<glyph unicode="u" horiz-adv-x="968" d="M78 797v34q0 9 8 9h203q8 0 8 -9v-587q0 -67 40.5 -106.5t106.5 -39.5q60 0 121 36.5t94 80.5v518l-51 29q-18 9 -18 35v34q0 9 8 9h203q8 0 8 -9v-684q0 -36 16.5 -51.5t55.5 -9.5q18 3 18 -14v-37q0 -24 -12 -31q-36 -22 -94 -22q-59 0 -94.5 33.5t-39.5 95.5 q-42 -51 -115.5 -91t-154.5 -40q-109 0 -175.5 74t-66.5 182v497l-51 29q-18 9 -18 35z" />
<glyph unicode="v" horiz-adv-x="813" d="M16 791v40q0 3 3 6t6 3h278q8 0 8 -9v-40q0 -20 -12 -27l-57 -31l184 -612l197 614l-56 31q-10 5 -10 22v43q0 9 8 9h223q3 0 6 -3t3 -6v-45q0 -12 -15 -22l-47 -27l-241 -727q-3 -10 -13 -10h-149q-10 0 -13 12l-233 721l-59 31q-11 6 -11 27z" />
<glyph unicode="w" horiz-adv-x="1243" d="M16 791v40q0 3 3 6t6 3h284q8 0 8 -9v-40q0 -18 -12 -25l-57 -31l153 -606l152 588q8 24 8 74v40q0 9 8 9h142q8 0 8 -9v-40q0 -54 6 -74l147 -576l181 594l-54 33q-12 7 -12 23v40q0 9 8 9h224q8 0 8 -9v-40q0 -17 -15 -27l-49 -31l-223 -723q-3 -10 -12 -10h-142 q-9 0 -12 12l-149 592l-154 -594q-3 -10 -12 -10h-148q-9 0 -12 12l-207 721l-65 33q-11 6 -11 25z" />
<glyph unicode="x" horiz-adv-x="823" d="M29 8v41q0 27 20 37l55 31l234 297l-238 327l-39 19q-16 8 -16 22v49q0 9 8 9h269q8 0 8 -9v-40q0 -19 -17 -29l-43 -23l164 -225l160 219l-49 29q-19 12 -19 29v40q0 3 3 6t6 3h245q8 0 8 -9v-38q0 -22 -14 -29l-53 -29l-229 -299l249 -338l39 -22q15 -8 15 -27v-41 q0 -8 -9 -8h-262q-8 0 -8 8v45q0 15 14 23l41 22l-174 234l-166 -221l41 -25q17 -10 17 -39v-39q0 -8 -8 -8h-244q-8 0 -8 8z" />
<glyph unicode="y" horiz-adv-x="813" d="M14 -272q0 38 22.5 64t59.5 26q33 0 72.5 -25.5t58.5 -25.5q37 0 77.5 53.5t66.5 130.5l16 49h-74q-9 0 -12 12l-209 721l-65 33q-11 6 -11 25v40q0 3 3 6t6 3h288q9 0 9 -9v-40q0 -17 -13 -25l-57 -31l166 -629l207 629l-54 33q-12 7 -12 23v40q0 9 8 9h221q3 0 6 -3 t3 -6v-40q0 -17 -15 -27l-49 -31l-248 -749q-60 -183 -144.5 -268t-195.5 -85q-46 0 -88.5 28t-42.5 69z" />
<glyph unicode="z" horiz-adv-x="794" d="M74 8v72q0 20 12 35l453 626h-271q-36 0 -54 -12t-24 -43l-6 -37q-2 -11 -6 -14.5t-14 -3.5h-70q-8 0 -8 8v192q0 9 8 9h600q8 0 8 -9v-65q0 -23 -12 -41l-448 -627h274q49 0 69 14.5t29 55.5l9 39q3 13 6.5 16.5t13.5 3.5h66q8 0 8 -8v-211q0 -8 -8 -8h-627q-8 0 -8 8z " />
<glyph unicode="{" horiz-adv-x="686" d="M51 602v117q0 8 8 8h37q100 0 151.5 69.5t51.5 194.5v164q0 213 78 297t266 84h14q9 0 9 -8v-98q0 -3 -3 -6t-6 -3h-14q-110 0 -155.5 -62.5t-45.5 -209.5v-176q0 -68 -18.5 -123.5t-49.5 -91.5t-64 -58.5t-68 -33.5v-11q35 -11 68 -33.5t64 -58.5t49.5 -91.5 t18.5 -123.5v-227q0 -147 45.5 -210t155.5 -63h14q9 0 9 -8v-98q0 -8 -9 -8h-14q-188 0 -266 84t-78 297v215q0 125 -51.5 194.5t-151.5 69.5h-37q-8 0 -8 8z" />
<glyph unicode="|" horiz-adv-x="622" d="M203 -258v1786q0 8 8 8h119q8 0 8 -8v-1786q0 -8 -8 -8h-119q-8 0 -8 8z" />
<glyph unicode="}" horiz-adv-x="686" d="M20 -160q0 8 9 8h14q110 0 155.5 63t45.5 210v227q0 68 18.5 123.5t49.5 91.5t64 58.5t68 33.5v11q-35 11 -68 33.5t-64 58.5t-49.5 91.5t-18.5 123.5v176q0 147 -45.5 209.5t-155.5 62.5h-14q-3 0 -6 3t-3 6v98q0 8 9 8h14q188 0 266 -84t78 -297v-164 q0 -125 51.5 -194.5t151.5 -69.5h37q8 0 8 -8v-117q0 -8 -8 -8h-37q-100 0 -151.5 -69.5t-51.5 -194.5v-215q0 -213 -78 -297t-266 -84h-14q-9 0 -9 8v98z" />
<glyph unicode="~" d="M61 545v84q0 21 9 30q38 38 107.5 72.5t129.5 34.5q63 0 219 -52t219 -52q84 0 201 106q4 5 10.5 4t6.5 -8v-84q0 -22 -9 -31q-117 -123 -237 -123q-59 0 -215 52.5t-223 52.5q-54 0 -108 -27t-93 -63q-4 -5 -10.5 -4t-6.5 8z" />
<glyph unicode="&#xa1;" horiz-adv-x="522" d="M141 739q0 53 33.5 87t85.5 34t86.5 -34t34.5 -87q0 -51 -34.5 -84.5t-86.5 -33.5t-85.5 33.5t-33.5 84.5zM160 -586l53 987q0 9 8 9h78q8 0 8 -9l53 -987q0 -8 -8 -8h-184q-8 0 -8 8z" />
<glyph unicode="&#xa2;" horiz-adv-x="817" d="M82 1040q0 159 73 257.5t203 125.5v146q0 8 9 8h118q9 0 9 -8v-137q107 -9 174 -68.5t67 -134.5q0 -48 -28.5 -76.5t-69.5 -28.5q-37 0 -64.5 23t-27.5 61q0 44 35 82q-41 35 -125 35q-105 0 -163.5 -72t-58.5 -200v-11q0 -120 58 -196t162 -76q79 0 127 41 q-33 38 -33 78q0 38 27.5 61t64.5 23q41 0 69.5 -28.5t28.5 -76.5q0 -74 -67.5 -133.5t-175.5 -72.5v-142q0 -8 -9 -8h-118q-9 0 -9 8v148q-122 22 -199 113t-77 259z" />
<glyph unicode="&#xa3;" d="M55 670v102q0 8 8 8h152v295q0 172 97.5 275.5t262.5 103.5q155 0 247.5 -98t92.5 -266v-84q0 -31 -28 -31h-166q-8 0 -8 8v61q0 25 20 35l35 19v20q0 98 -52 154.5t-149 56.5q-91 0 -140.5 -68.5t-49.5 -195.5v-285h375q8 0 8 -8v-102q0 -8 -8 -8h-375v-553h305 q72 0 104 29t41 100l13 88q3 21 8.5 26.5t23.5 5.5h74q8 0 8 -8v-342q0 -8 -8 -8h-825q-8 0 -8 8v45q0 13 3.5 18.5t14.5 10.5l84 39v541h-152q-8 0 -8 8z" />
<glyph unicode="&#xa4;" d="M96 369q-3 6 0 12l94 94q-71 99 -71 230q0 127 74 231l-97 96q-3 6 0 12l78 78q6 3 12 0l95 -96q99 74 229 74q127 0 231 -74l97 96q6 3 12 0l78 -78q3 -6 0 -12l-97 -96q74 -104 74 -231q0 -126 -74 -230l97 -94q3 -6 0 -12l-78 -78q-6 -3 -12 0l-97 94 q-104 -74 -231 -74q-130 0 -229 74l-95 -94q-6 -3 -12 0zM252 705q0 -109 75 -187t183 -78t185 78t77 187t-77 187.5t-185 78.5t-183 -78t-75 -188z" />
<glyph unicode="&#xa5;" d="M0 1386v39q0 9 8 9h346q8 0 8 -9v-39q0 -25 -18 -34l-86 -37l277 -557l253 555l-94 41q-9 4 -10.5 7.5t-1.5 14.5v49q0 9 8 9h328q8 0 8 -9v-47q0 -17 -18 -26l-78 -33l-285 -594h268q9 0 9 -8v-103q0 -8 -9 -8h-319v-153h319q3 0 6 -3t3 -6v-102q0 -8 -9 -8h-319v-213 l84 -39q11 -5 14.5 -10.5t3.5 -18.5v-45q0 -8 -8 -8h-350q-8 0 -8 8v45q0 13 3.5 18.5t14.5 10.5l84 39v213h-321q-9 0 -9 8v102q0 3 3 6t6 3h321v153h-321q-9 0 -9 8v103q0 8 9 8h272l-287 590l-78 37q-18 9 -18 34z" />
<glyph unicode="&#xa6;" horiz-adv-x="622" d="M203 -258v762q0 8 8 8h119q8 0 8 -8v-762q0 -8 -8 -8h-119q-8 0 -8 8zM203 766v762q0 8 8 8h119q8 0 8 -8v-762q0 -8 -8 -8h-119q-8 0 -8 8z" />
<glyph unicode="&#xa7;" d="M92 733q0 86 57.5 154.5t147.5 103.5q-102 75 -102 191q0 120 96.5 196t238.5 76q125 0 206 -58t81 -134q0 -42 -26 -68.5t-64 -26.5q-34 0 -60 20t-26 54t35 74q-17 12 -60.5 23.5t-87.5 11.5q-77 0 -133.5 -38.5t-56.5 -101.5q0 -46 34 -82.5t87.5 -61.5t119 -47.5 t131 -48.5t119 -57t87.5 -79.5t34 -110.5q0 -86 -59.5 -158t-157.5 -108q115 -76 115 -187q0 -114 -101 -202t-255 -88q-128 0 -221 60t-93 144q0 47 28.5 76t67.5 29q35 0 58.5 -22t23.5 -58q0 -41 -37 -78q23 -23 75.5 -35t99.5 -12q88 0 146 45t58 109q0 45 -33.5 80.5 t-87 60t-118 48t-129 50.5t-118 59.5t-87 82.5t-33.5 114zM236 760q0 -31 17 -57.5t42.5 -45.5t67.5 -39t78 -33.5t89.5 -33.5t87.5 -35q76 9 129.5 62t53.5 114q0 39 -22.5 69t-67.5 53t-88.5 39.5t-109.5 39t-107 39.5q-66 -16 -118 -65t-52 -107z" />
<glyph unicode="&#xa8;" horiz-adv-x="450" d="M-35 1176q0 46 31 77t78 31t78.5 -31t31.5 -77q0 -47 -31.5 -79t-78.5 -32t-78 32t-31 79zM268 1176q0 46 31 77t78 31t78.5 -31t31.5 -77q0 -47 -31.5 -79t-78.5 -32t-78 32t-31 79z" />
<glyph unicode="&#xa9;" horiz-adv-x="1605" d="M61 717q0 203 100 373t270.5 267t371.5 97q151 0 287.5 -57.5t236 -155.5t158.5 -235t59 -289t-59 -289t-158.5 -235t-236 -155.5t-287.5 -57.5q-201 0 -371.5 97t-270.5 267t-100 373zM178 717q0 -174 82 -322t226.5 -235.5t316.5 -87.5t316 87.5t226 235.5t82 322 t-82 322t-226 235.5t-316 87.5t-316.5 -87.5t-226.5 -235.5t-82 -322zM518 686q0 247 82 362t223 115q83 0 144 -61l10 31q5 14 27 14h49q8 0 8 -8v-242q0 -8 -8 -8h-56q-19 0 -23.5 6.5t-6.5 26.5q-16 153 -144 153q-94 0 -137 -87.5t-43 -289.5v-8q0 -99 13 -166 t37.5 -101t53.5 -47.5t68 -13.5q75 0 113.5 44.5t38.5 128.5v24q0 19 8 27t31 8h28q23 0 30 -8t7 -27v-16q0 -132 -68 -202.5t-194 -70.5q-51 0 -92.5 11.5t-79.5 41t-63.5 76t-40.5 119.5t-15 168z" />
<glyph unicode="&#xaa;" horiz-adv-x="651" d="M72 664v84q0 8 8 8h483q8 0 8 -8v-84q0 -9 -8 -9h-483q-8 0 -8 9zM78 991q0 69 42.5 116t141.5 71l131 32v52q0 51 -31.5 81.5t-78.5 30.5q-56 0 -90 -24q32 -18 32 -60q0 -28 -19 -44.5t-46 -16.5q-29 0 -47.5 19.5t-18.5 49.5q0 63 61 109.5t154 46.5q91 0 146 -54 t55 -147v-303q0 -21 10 -30.5t35 -6.5q18 3 18 -14v-20q0 -21 -12 -27q-28 -16 -63 -16q-38 0 -65.5 19.5t-33.5 55.5q-63 -75 -153 -75q-65 0 -116.5 39.5t-51.5 115.5zM193 1001q0 -41 22 -62t59 -21q64 0 119 73v139l-80 -16q-61 -12 -90.5 -41.5t-29.5 -71.5z" />
<glyph unicode="&#xab;" horiz-adv-x="866" d="M100 444.5q0 10.5 15 32.5l233 309q11 15 31 15h61q10 0 13 -7.5t-2 -15.5l-191 -334l191 -333q5 -7 2 -15t-13 -8h-61q-21 0 -31 14l-233 310q-15 22 -15 32.5zM444 444.5q0 10.5 15 32.5l233 309q11 15 31 15h61q10 0 13 -7.5t-2 -15.5l-191 -334l191 -333q5 -7 2 -15 t-13 -8h-61q-21 0 -31 14l-233 310q-15 22 -15 32.5z" />
<glyph unicode="&#xac;" d="M61 784v111q0 8 9 8h884q9 0 9 -8v-539q0 -8 -9 -8h-110q-8 0 -8 8v420h-766q-9 0 -9 8z" />
<glyph unicode="&#xad;" horiz-adv-x="0" />
<glyph unicode="&#xae;" horiz-adv-x="739" d="M61 1147q0 128 91 217.5t219 89.5q127 0 217 -89.5t90 -217.5t-90 -217.5t-217 -89.5q-128 0 -219 89.5t-91 217.5zM119 1147q0 -107 73 -183.5t179 -76.5q105 0 178.5 76.5t73.5 183.5q0 108 -73.5 184t-178.5 76q-106 0 -179 -76t-73 -184zM258 975v14q0 5 8 10l13 9 v276l-13 8q-8 3 -8 13v16h107q112 0 112 -96q0 -61 -57 -88v-2q24 -13 41 -52l33 -73l10 -6q10 -6 10 -15v-14h-47q-11 0 -16 10l-43 98q-7 22 -19 28.5t-37 6.5h-22v-110l12 -9q8 -5 8 -10v-14h-92zM330 1153h24q74 0 74 70q0 32 -19.5 47.5t-50.5 15.5h-28v-133z" />
<glyph unicode="&#xaf;" horiz-adv-x="450" d="M-10 1130v95q0 8 8 8h455q8 0 8 -8v-95q0 -8 -8 -8h-455q-8 0 -8 8z" />
<glyph unicode="&#xb0;" horiz-adv-x="831" d="M57 1098q0 154 104.5 255t254.5 101t254 -101t104 -255q0 -155 -104 -256t-254 -101t-254.5 101.5t-104.5 255.5zM199 1098q0 -100 60.5 -168t156.5 -68t156.5 68t60.5 168t-60 167.5t-157 67.5t-157 -67.5t-60 -167.5z" />
<glyph unicode="&#xb1;" d="M61 8v111q0 8 9 8h884q9 0 9 -8v-111q0 -8 -9 -8h-884q-9 0 -9 8zM61 580v110q0 8 9 8h379v420q0 8 8 8h110q8 0 8 -8v-420h379q9 0 9 -8v-110q0 -3 -3 -6t-6 -3h-379v-358q0 -8 -8 -8h-110q-8 0 -8 8v358h-379q-3 0 -6 3t-3 6z" />
<glyph unicode="&#xb2;" horiz-adv-x="696" d="M51 850v57q0 94 47.5 161.5t177.5 152.5l48 30q96 62 137 108t41 105q0 60 -39.5 105t-120.5 45q-71 0 -113.5 -36.5t-42.5 -94.5v-8l19 -7q14 -4 18 -10t4 -20v-45q0 -9 -8 -9h-158q-8 0 -8 9v65q0 107 80 179.5t215 72.5q126 0 208.5 -65t82.5 -185q0 -86 -49 -138.5 t-191 -147.5q-5 -4 -8.5 -6.5t-7.5 -4.5l-31 -20q-96 -63 -132 -105t-36 -96h256q36 0 51 9.5t21 41.5l8 51q3 18 9 23.5t26 5.5h66q8 0 8 -8v-215q0 -8 -8 -8h-562q-8 0 -8 8z" />
<glyph unicode="&#xb3;" horiz-adv-x="696" d="M33 1096v59q0 8 8 8h158q8 0 8 -8v-45q0 -14 -4.5 -20.5t-18.5 -10.5l-18 -6v-8q0 -62 45.5 -101.5t126.5 -39.5q182 0 182 168q0 67 -53 104t-150 37h-47q-8 0 -8 8v86q0 8 8 8h54q75 0 128.5 35.5t53.5 102.5q0 70 -45 105.5t-117 35.5q-79 0 -121.5 -33.5t-42.5 -85.5 l19 -6q14 -4 18 -10.5t4 -20.5v-45q0 -8 -8 -8h-158q-8 0 -8 8v64q0 103 86.5 168t212.5 65q128 0 209.5 -59t81.5 -166q0 -127 -135 -193q160 -58 160 -202q0 -108 -86.5 -184.5t-237.5 -76.5q-148 0 -226.5 70t-78.5 197z" />
<glyph unicode="&#xb4;" horiz-adv-x="450" d="M166 1036l121 389q3 9 12 9h143q6 0 8 -5.5t-1 -11.5l-175 -385q-3 -8 -12 -8h-88q-12 0 -8 12z" />
<glyph unicode="&#xb5;" horiz-adv-x="956" d="M78 797v34q0 9 8 9h203q8 0 8 -9v-587q0 -67 40.5 -106.5t106.5 -39.5q60 0 121 36.5t94 80.5v518l-51 29q-18 9 -18 35v34q0 9 8 9h203q8 0 8 -9v-684q0 -36 16.5 -51.5t55.5 -9.5q18 3 18 -14v-37q0 -24 -12 -31q-36 -22 -94 -22q-59 0 -94.5 33.5t-39.5 95.5 q-42 -51 -115.5 -91t-154.5 -40q-49 0 -92 16v-336q0 -8 -8 -8h-133q-9 0 -9 8v1073l-51 29q-18 9 -18 35z" />
<glyph unicode="&#xb6;" horiz-adv-x="1306" d="M53 1042q0 194 91.5 293t295.5 99h783q8 0 8 -9v-49q0 -16 -14 -22l-99 -41v-1653q0 -8 -8 -8h-229q-9 0 -9 8v49q0 17 15 23l69 41v1552h-288v-1665q0 -8 -9 -8h-229q-8 0 -8 8v49q0 17 14 23l70 41v889h-109q-54 0 -98.5 8t-92 32.5t-79.5 65t-53 110.5t-21 164z M223 1049q0 -153 48 -216t169 -63h66v555h-66q-112 0 -164.5 -66.5t-52.5 -209.5z" />
<glyph unicode="&#xb7;" horiz-adv-x="503" d="M133 725q0 51 33.5 85t85.5 34t86.5 -34t34.5 -85q0 -53 -34.5 -87t-86.5 -34t-85.5 34t-33.5 87z" />
<glyph unicode="&#xb8;" horiz-adv-x="450" d="M39 -336l12 55q1 7 6.5 10t10.5 1q78 -25 110 -25q82 0 82 57q0 30 -23.5 46t-62.5 16h-59q-27 0 -27 18q0 15 39 67t74 91h108q-66 -77 -78 -100q61 0 110.5 -36.5t49.5 -90.5q0 -78 -57.5 -114t-140.5 -36q-69 0 -146 25q-11 4 -8 16z" />
<glyph unicode="&#xb9;" horiz-adv-x="428" d="M33 1522v41q0 17 5 21t28 9q43 10 66 29t40 51q8 15 14.5 20t20.5 5h63q19 0 19 -19v-739l71 -25q19 -7 19 -24v-41q0 -8 -8 -8h-308q-8 0 -8 8v41q0 20 21 27l80 24v569h-113q-10 0 -10 11z" />
<glyph unicode="&#xba;" horiz-adv-x="651" d="M57 1143q0 144 75.5 227.5t191.5 83.5q117 0 193.5 -83.5t76.5 -227.5t-76 -225.5t-194 -81.5q-116 0 -191.5 82t-75.5 225zM72 664v84q0 8 8 8h483q8 0 8 -8v-84q0 -9 -8 -9h-483q-8 0 -8 9zM176 1143q0 -111 40 -168t108 -57q70 0 109.5 57t39.5 168q0 110 -40 167.5 t-109 57.5q-68 0 -108 -57.5t-40 -167.5z" />
<glyph unicode="&#xbb;" horiz-adv-x="866" d="M69.5 96q-2.5 8 2.5 15l190 333l-190 334q-5 8 -2.5 15.5t12.5 7.5h61q20 0 31 -15l234 -309q15 -22 15 -32.5t-15 -32.5l-234 -310q-10 -14 -31 -14h-61q-10 0 -12.5 8zM413.5 96q-2.5 8 2.5 15l190 333l-190 334q-5 8 -2.5 15.5t12.5 7.5h61q20 0 31 -15l234 -309 q15 -22 15 -32.5t-15 -32.5l-234 -310q-10 -14 -31 -14h-61q-10 0 -12.5 8z" />
<glyph unicode="&#xbc;" horiz-adv-x="1329" d="M33 1257v41q0 17 5.5 21.5t27.5 9.5q43 10 66 29t40 51q8 15 14.5 20t20.5 5h63q19 0 19 -19v-739l71 -25q19 -7 19 -24v-41q0 -8 -8 -8h-308q-8 0 -8 8v41q0 19 21 26l80 25v569h-113q-10 0 -10 10zM85.5 -16.5q-2.5 3.5 0.5 10.5l752 1452q3 8 10 8h121q4 0 6.5 -3.5 t-0.5 -10.5l-752 -1452q-3 -8 -10 -8h-121q-4 0 -6.5 3.5zM666 283v36q40 114 153 275t187 235q12 12 16.5 16t14 7.5t22.5 3.5h106q9 0 9 -8v-506h94q8 0 8 -8v-82q0 -8 -8 -8h-94v-150l45 -18q18 -7 18 -27v-41q0 -8 -8 -8h-256q-8 0 -8 8v41q0 20 20 27l55 20v148h-329 q-24 0 -34.5 9t-10.5 30zM795 342h245v375q-61 -74 -140 -193t-105 -182z" />
<glyph unicode="&#xbd;" horiz-adv-x="1329" d="M33 1257v41q0 17 5.5 21.5t27.5 9.5q43 10 66 29t40 51q8 15 14.5 20t20.5 5h63q19 0 19 -19v-739l71 -25q19 -7 19 -24v-41q0 -8 -8 -8h-308q-8 0 -8 8v41q0 19 21 26l80 25v569h-113q-10 0 -10 10zM85.5 -16.5q-2.5 3.5 0.5 10.5l752 1452q3 8 10 8h121q4 0 6.5 -3.5 t-0.5 -10.5l-752 -1452q-3 -8 -10 -8h-121q-4 0 -6.5 3.5zM684 8v58q0 94 47.5 161t177.5 152l47 31q96 63 137.5 108.5t41.5 104.5q0 60 -39.5 104.5t-120.5 44.5q-71 0 -113.5 -36.5t-42.5 -94.5v-8l19 -6q14 -4 18 -10.5t4 -20.5v-45q0 -8 -8 -8h-158q-8 0 -8 8v65 q0 107 80 179.5t215 72.5q126 0 208.5 -65t82.5 -185q0 -86 -48.5 -137.5t-188.5 -145.5q-12 -9 -19 -13l-31 -21q-96 -63 -132 -105t-36 -96h256q36 0 51 10t21 42l8 51q3 18 9 23t26 5h65q9 0 9 -8v-215q0 -8 -9 -8h-561q-8 0 -8 8z" />
<glyph unicode="&#xbe;" horiz-adv-x="1597" d="M33 831v60q0 8 8 8h158q8 0 8 -8v-45q0 -14 -4.5 -20.5t-18.5 -10.5l-18 -6v-8q0 -62 45.5 -102t126.5 -40q182 0 182 168q0 68 -53 105t-150 37h-47q-8 0 -8 8v86q0 8 8 8h54q75 0 128.5 35t53.5 102q0 70 -45 106t-117 36q-79 0 -121.5 -33.5t-42.5 -85.5l19 -6 q14 -4 18 -10.5t4 -20.5v-45q0 -8 -8 -8h-158q-8 0 -8 8v63q0 104 86.5 169t212.5 65q128 0 209.5 -59t81.5 -166q0 -127 -135 -193q160 -58 160 -203q0 -108 -86.5 -184t-237.5 -76q-148 0 -226.5 69.5t-78.5 196.5zM353.5 -16.5q-2.5 3.5 0.5 10.5l752 1452q3 8 10 8h121 q4 0 6.5 -3.5t-0.5 -10.5l-751 -1452q-3 -8 -11 -8h-121q-4 0 -6.5 3.5zM934 283v36q40 114 153 275t187 235q12 12 16.5 16t14 7.5t22.5 3.5h107q8 0 8 -8v-506h94q8 0 8 -8v-82q0 -8 -8 -8h-94v-150l45 -18q18 -7 18 -27v-41q0 -8 -8 -8h-256q-8 0 -8 8v41q0 20 20 27 l56 20v148h-330q-24 0 -34.5 9t-10.5 30zM1063 342h246v375q-61 -74 -140.5 -193t-105.5 -182z" />
<glyph unicode="&#xbf;" horiz-adv-x="1015" d="M111 -272q0 87 34.5 157.5t83.5 120t97.5 97.5t83 113t34.5 144v41q0 3 3 6t6 3h96q14 0 19 -6t5 -25v-27q0 -66 -17 -124t-44 -100t-59.5 -80.5t-65.5 -74t-60 -71t-44 -79.5t-17 -93q0 -95 63.5 -164.5t188.5 -69.5q123 0 187.5 67t64.5 167v10l-35 18q-20 10 -20 35 v62q0 8 8 8h170q29 0 29 -31v-51q0 -174 -110 -284.5t-306 -110.5q-175 0 -285 91t-110 251zM389 739q0 53 34.5 87t86.5 34t85.5 -34t33.5 -87q0 -51 -33.5 -84.5t-85.5 -33.5t-86.5 33.5t-34.5 84.5z" />
<glyph unicode="&#xc0;" horiz-adv-x="1175" d="M0 8v43q0 26 18 35l72 31l354 1198l-79 37q-19 10 -19 24v49q0 9 8 9h287q21 0 29 -21l415 -1296l72 -31q19 -10 19 -35v-43q0 -8 -9 -8h-344q-8 0 -8 8v43q0 25 19 35l81 39l-98 317h-498l-90 -317l82 -39q19 -10 19 -35v-43q0 -8 -8 -8h-314q-8 0 -8 8zM342.5 1961 q1.5 5 7.5 5h144q9 0 12 -8l121 -389q4 -13 -9 -13h-88q-9 0 -12 9l-174 385q-3 6 -1.5 11zM352 561h428l-223 723z" />
<glyph unicode="&#xc1;" horiz-adv-x="1175" d="M0 8v43q0 26 18 35l72 31l354 1198l-79 37q-19 10 -19 24v49q0 9 8 9h287q21 0 29 -21l415 -1296l72 -31q19 -10 19 -35v-43q0 -8 -9 -8h-344q-8 0 -8 8v43q0 25 19 35l81 39l-98 317h-498l-90 -317l82 -39q19 -10 19 -35v-43q0 -8 -8 -8h-314q-8 0 -8 8zM352 561h428 l-223 723zM498 1569l120 389q3 8 13 8h143q6 0 7.5 -5t-1.5 -11l-174 -385q-3 -9 -12 -9h-88q-12 0 -8 13z" />
<glyph unicode="&#xc2;" horiz-adv-x="1175" d="M0 8v43q0 26 18 35l72 31l354 1198l-79 37q-19 10 -19 24v49q0 9 8 9h287q21 0 29 -21l415 -1296l72 -31q19 -10 19 -35v-43q0 -8 -9 -8h-344q-8 0 -8 8v43q0 25 19 35l81 39l-98 317h-498l-90 -317l82 -39q19 -10 19 -35v-43q0 -8 -8 -8h-314q-8 0 -8 8zM328 1569 l125 389q3 8 12 8h184q10 0 13 -8l124 -389q4 -13 -8 -13h-78q-9 0 -12 9l-131 284l-131 -284q-3 -9 -12 -9h-78q-12 0 -8 13zM352 561h428l-223 723z" />
<glyph unicode="&#xc3;" horiz-adv-x="1175" d="M0 8v43q0 26 18 35l72 31l354 1198l-79 37q-19 10 -19 24v49q0 9 8 9h287q21 0 29 -21l415 -1296l72 -31q19 -10 19 -35v-43q0 -8 -9 -8h-344q-8 0 -8 8v43q0 25 19 35l81 39l-98 317h-498l-90 -317l82 -39q19 -10 19 -35v-43q0 -8 -8 -8h-314q-8 0 -8 8zM319 1671 q-5 16 5 37q13 31 53 65.5t82 34.5q31 0 106.5 -42t102.5 -42q23 0 41.5 19.5t32 39t24.5 19.5q12 0 18 -18l13 -41q5 -18 -4 -37q-12 -30 -52 -66t-84 -36q-31 0 -107 42t-104 42q-22 0 -40 -19t-31.5 -38t-24.5 -19q-12 0 -18 18zM352 561h428l-223 723z" />
<glyph unicode="&#xc4;" horiz-adv-x="1175" d="M0 8v43q0 26 18 35l72 31l354 1198l-79 37q-19 10 -19 24v49q0 9 8 9h287q21 0 29 -21l415 -1296l72 -31q19 -10 19 -35v-43q0 -8 -9 -8h-344q-8 0 -8 8v43q0 25 19 35l81 39l-98 317h-498l-90 -317l82 -39q19 -10 19 -35v-43q0 -8 -8 -8h-314q-8 0 -8 8zM297 1708 q0 46 31 77.5t78 31.5t78.5 -31.5t31.5 -77.5q0 -47 -31.5 -79t-78.5 -32t-78 32t-31 79zM352 561h428l-223 723zM600 1708q0 46 31 77.5t78 31.5t78.5 -31.5t31.5 -77.5q0 -47 -31.5 -79t-78.5 -32t-78 32t-31 79z" />
<glyph unicode="&#xc5;" horiz-adv-x="1175" d="M0 8v43q0 26 18 35l72 31l350 1181q-43 30 -68.5 77t-25.5 100q0 88 62 151.5t151 63.5q88 0 151.5 -63.5t63.5 -151.5q0 -93 -72 -162l383 -1196l72 -31q19 -10 19 -35v-43q0 -8 -9 -8h-344q-8 0 -8 8v43q0 25 19 35l81 39l-98 317h-498l-90 -317l82 -39q19 -10 19 -35 v-43q0 -8 -8 -8h-314q-8 0 -8 8zM352 561h428l-223 723zM451 1475q0 -47 31.5 -79t78.5 -32q46 0 77.5 32t31.5 79t-32 78.5t-79 31.5q-46 0 -77 -31.5t-31 -78.5z" />
<glyph unicode="&#xc6;" horiz-adv-x="1619" d="M0 8v43q0 26 18 35l72 31l518 1183l-80 41q-18 9 -18 35v49q0 9 8 9h981q8 0 8 -9v-317q0 -8 -8 -8h-51q-27 0 -35.5 6.5t-11.5 28.5l-15 94q-7 53 -27 70.5t-67 17.5h-352v-512h229l37 104q7 21 16.5 28t28.5 7h43q9 0 9 -8v-379q0 -8 -9 -8h-43q-19 0 -28.5 7t-16.5 28 l-37 104h-229v-571h313q72 0 104.5 29t41.5 100l12 88q3 21 9 27t24 6h65q3 0 6 -3t3 -6v-350q0 -8 -9 -8h-817q-8 0 -8 8v39q0 27 18 35l84 39v317h-409l-133 -313l82 -39q18 -9 18 -35v-43q0 -8 -8 -8h-328q-8 0 -8 8zM432 569h354v748h-36z" />
<glyph unicode="&#xc7;" horiz-adv-x="1064" d="M102 666q0 211 34 364t100 245.5t156 135.5t208 43q172 0 254 -104l23 63q7 21 34 21h56q8 0 8 -9v-391q0 -8 -8 -8h-62q-44 0 -47 41q-6 56 -21.5 103t-44.5 88t-78 64.5t-114 23.5q-108 0 -179 -66t-109 -216.5t-38 -389.5v-2q0 -140 18 -245t46.5 -167t70.5 -100 t84 -51t93 -13q125 0 197.5 81.5t72.5 230.5v43q0 36 43 36h51q24 0 32.5 -8.5t8.5 -27.5v-29q0 -185 -83 -296t-236 -138q-64 -79 -68 -88q61 0 110.5 -36.5t49.5 -90.5q0 -78 -58 -114t-141 -36q-68 0 -145 25q-10 4 -8 16l12 55q3 15 16 11q78 -25 111 -25q82 0 82 57 q0 30 -23.5 46t-62.5 16h-60q-26 0 -26 18q0 12 31 55.5t65 82.5q-455 15 -455 686z" />
<glyph unicode="&#xc8;" horiz-adv-x="1050" d="M90 8v45q0 21 19 29l84 39v1192l-84 39q-11 5 -15 10t-4 18v45q0 9 8 9h828q8 0 8 -9v-309q0 -8 -8 -8h-70q-21 0 -27.5 6.5t-9.5 28.5l-14 94q-7 53 -27 70.5t-67 17.5h-357v-524h260l37 104q7 21 16.5 28t28.5 7h52q8 0 8 -8v-371q0 -8 -8 -8h-52q-19 0 -28.5 7 t-16.5 28l-37 104h-260v-583h322q72 0 104 29t41 100l13 88q3 21 8.5 26.5t23.5 5.5h74q8 0 8 -8v-342q0 -8 -8 -8h-842q-8 0 -8 8zM342.5 1961q1.5 5 7.5 5h144q9 0 12 -8l121 -389q4 -13 -9 -13h-88q-9 0 -12 9l-174 385q-3 6 -1.5 11z" />
<glyph unicode="&#xc9;" horiz-adv-x="1050" d="M90 8v45q0 21 19 29l84 39v1192l-84 39q-11 5 -15 10t-4 18v45q0 9 8 9h828q8 0 8 -9v-309q0 -8 -8 -8h-70q-21 0 -27.5 6.5t-9.5 28.5l-14 94q-7 53 -27 70.5t-67 17.5h-357v-524h260l37 104q7 21 16.5 28t28.5 7h52q8 0 8 -8v-371q0 -8 -8 -8h-52q-19 0 -28.5 7 t-16.5 28l-37 104h-260v-583h322q72 0 104 29t41 100l13 88q3 21 8.5 26.5t23.5 5.5h74q8 0 8 -8v-342q0 -8 -8 -8h-842q-8 0 -8 8zM477 1569l121 389q3 8 12 8h144q6 0 7.5 -5t-1.5 -11l-174 -385q-3 -9 -13 -9h-88q-12 0 -8 13z" />
<glyph unicode="&#xca;" horiz-adv-x="1050" d="M90 8v45q0 21 19 29l84 39v1192l-84 39q-11 5 -15 10t-4 18v45q0 9 8 9h828q8 0 8 -9v-309q0 -8 -8 -8h-70q-21 0 -27.5 6.5t-9.5 28.5l-14 94q-7 53 -27 70.5t-67 17.5h-357v-524h260l37 104q7 21 16.5 28t28.5 7h52q8 0 8 -8v-371q0 -8 -8 -8h-52q-19 0 -28.5 7 t-16.5 28l-37 104h-260v-583h322q72 0 104 29t41 100l13 88q3 21 8.5 26.5t23.5 5.5h74q8 0 8 -8v-342q0 -8 -8 -8h-842q-8 0 -8 8zM328 1569l125 389q3 8 12 8h184q10 0 13 -8l124 -389q4 -13 -8 -13h-78q-9 0 -12 9l-131 284l-131 -284q-3 -9 -12 -9h-78q-12 0 -8 13z" />
<glyph unicode="&#xcb;" horiz-adv-x="1050" d="M90 8v45q0 21 19 29l84 39v1192l-84 39q-11 5 -15 10t-4 18v45q0 9 8 9h828q8 0 8 -9v-309q0 -8 -8 -8h-70q-21 0 -27.5 6.5t-9.5 28.5l-14 94q-7 53 -27 70.5t-67 17.5h-357v-524h260l37 104q7 21 16.5 28t28.5 7h52q8 0 8 -8v-371q0 -8 -8 -8h-52q-19 0 -28.5 7 t-16.5 28l-37 104h-260v-583h322q72 0 104 29t41 100l13 88q3 21 8.5 26.5t23.5 5.5h74q8 0 8 -8v-342q0 -8 -8 -8h-842q-8 0 -8 8zM297 1708q0 46 31 77.5t78 31.5t78.5 -31.5t31.5 -77.5q0 -47 -31.5 -79t-78.5 -32t-78 32t-31 79zM600 1708q0 46 31 77.5t78 31.5 t78.5 -31.5t31.5 -77.5q0 -47 -31.5 -79t-78.5 -32t-78 32t-31 79z" />
<glyph unicode="&#xcc;" horiz-adv-x="567" d="M68.5 1961q1.5 5 7.5 5h143q9 0 12 -8l121 -389q4 -13 -8 -13h-88q-9 0 -12 9l-174 385q-3 6 -1.5 11zM90 8v49q0 17 14 23l99 41v1192l-99 41q-14 6 -14 22v49q0 9 8 9h371q8 0 8 -9v-49q0 -16 -14 -22l-98 -41v-1192l98 -41q14 -6 14 -23v-49q0 -8 -8 -8h-371 q-8 0 -8 8z" />
<glyph unicode="&#xcd;" horiz-adv-x="567" d="M90 8v49q0 17 14 23l99 41v1192l-99 41q-14 6 -14 22v49q0 9 8 9h371q8 0 8 -9v-49q0 -16 -14 -22l-98 -41v-1192l98 -41q14 -6 14 -23v-49q0 -8 -8 -8h-371q-8 0 -8 8zM223 1569l121 389q3 8 12 8h144q6 0 7.5 -5t-1.5 -11l-174 -385q-3 -9 -13 -9h-88q-12 0 -8 13z" />
<glyph unicode="&#xce;" horiz-adv-x="567" d="M53 1569l125 389q3 8 12 8h185q9 0 12 -8l125 -389q4 -13 -8 -13h-78q-9 0 -12 9l-131 284l-131 -284q-3 -9 -13 -9h-78q-12 0 -8 13zM90 8v49q0 17 14 23l99 41v1192l-99 41q-14 6 -14 22v49q0 9 8 9h371q8 0 8 -9v-49q0 -16 -14 -22l-98 -41v-1192l98 -41q14 -6 14 -23 v-49q0 -8 -8 -8h-371q-8 0 -8 8z" />
<glyph unicode="&#xcf;" horiz-adv-x="567" d="M23 1708q0 46 30.5 77.5t77.5 31.5t79 -31.5t32 -77.5q0 -47 -32 -79t-79 -32t-77.5 31.5t-30.5 79.5zM90 8v49q0 17 14 23l99 41v1192l-99 41q-14 6 -14 22v49q0 9 8 9h371q8 0 8 -9v-49q0 -16 -14 -22l-98 -41v-1192l98 -41q14 -6 14 -23v-49q0 -8 -8 -8h-371 q-8 0 -8 8zM326 1708q0 46 30.5 77.5t77.5 31.5t79 -31.5t32 -77.5q0 -47 -32 -79t-79 -32t-77.5 31.5t-30.5 79.5z" />
<glyph unicode="&#xd0;" horiz-adv-x="1193" d="M90 8v47q0 13 4 17.5t15 9.5l84 39v563h-95q-8 0 -8 8v103q0 8 8 8h95v510l-84 39q-12 5 -15.5 9t-3.5 17v47q0 9 8 9h488q86 0 159 -21.5t138 -73.5t110.5 -132t72 -203.5t26.5 -282.5q0 -174 -29 -304t-77 -208.5t-120 -126.5t-147 -65t-170 -17h-451q-8 0 -8 8z M354 109h207q359 0 359 610q0 137 -19.5 243t-52.5 173.5t-80 111t-97.5 61t-109.5 17.5h-207v-522h285q8 0 8 -8v-103q0 -8 -8 -8h-285v-575z" />
<glyph unicode="&#xd1;" horiz-adv-x="1286" d="M90 8v45q0 21 19 29l84 39v1192l-84 39q-11 5 -15 10t-4 18v45q0 9 8 9h271q13 0 18 -13l569 -1167v1059l-84 39q-11 5 -14.5 10t-3.5 18v45q0 9 8 9h326q8 0 8 -9v-45q0 -13 -3.5 -18t-14.5 -10l-84 -39v-1305q0 -8 -9 -8h-143q-23 0 -33 20l-579 1178v-1077l84 -39 q11 -5 14.5 -10.5t3.5 -18.5v-45q0 -8 -8 -8h-326q-8 0 -8 8zM430 1671q-6 17 4 37q13 31 53 65.5t82 34.5q31 0 106.5 -42t102.5 -42q23 0 42 19.5t32.5 39t24.5 19.5q12 0 18 -18l12 -41q5 -18 -4 -37q-12 -30 -51.5 -66t-83.5 -36q-31 0 -107 42t-104 42q-22 0 -40 -19 t-31.5 -38t-24.5 -19q-13 0 -19 18z" />
<glyph unicode="&#xd2;" horiz-adv-x="1208" d="M102 713q0 138 17.5 250.5t46 188t70.5 132.5t84.5 88.5t95.5 50.5t96 25t92 6t91.5 -6t95.5 -25t95.5 -50.5t85 -88.5t71 -132.5t46 -188t17.5 -250.5q0 -131 -17 -238.5t-45 -182t-68.5 -131.5t-83.5 -90.5t-95 -54.5t-97.5 -28.5t-95.5 -7.5q-53 0 -99 7t-98.5 27.5 t-95 54t-82.5 90t-67 131.5t-43.5 183t-16.5 240zM274 711q0 -623 330 -623q328 0 328 627q0 226 -41 368.5t-112.5 202.5t-178.5 60q-326 0 -326 -635zM387.5 1961q1.5 5 7.5 5h144q9 0 12 -8l121 -389q4 -13 -8 -13h-89q-9 0 -12 9l-174 385q-3 6 -1.5 11z" />
<glyph unicode="&#xd3;" horiz-adv-x="1208" d="M102 713q0 138 17.5 250.5t46 188t70.5 132.5t84.5 88.5t95.5 50.5t96 25t92 6t91.5 -6t95.5 -25t95.5 -50.5t85 -88.5t71 -132.5t46 -188t17.5 -250.5q0 -131 -17 -238.5t-45 -182t-68.5 -131.5t-83.5 -90.5t-95 -54.5t-97.5 -28.5t-95.5 -7.5q-53 0 -99 7t-98.5 27.5 t-95 54t-82.5 90t-67 131.5t-43.5 183t-16.5 240zM274 711q0 -623 330 -623q328 0 328 627q0 226 -41 368.5t-112.5 202.5t-178.5 60q-326 0 -326 -635zM543 1569l121 389q3 8 12 8h143q6 0 7.5 -5t-1.5 -11l-174 -385q-3 -9 -12 -9h-88q-12 0 -8 13z" />
<glyph unicode="&#xd4;" horiz-adv-x="1208" d="M102 713q0 138 17.5 250.5t46 188t70.5 132.5t84.5 88.5t95.5 50.5t96 25t92 6t91.5 -6t95.5 -25t95.5 -50.5t85 -88.5t71 -132.5t46 -188t17.5 -250.5q0 -131 -17 -238.5t-45 -182t-68.5 -131.5t-83.5 -90.5t-95 -54.5t-97.5 -28.5t-95.5 -7.5q-53 0 -99 7t-98.5 27.5 t-95 54t-82.5 90t-67 131.5t-43.5 183t-16.5 240zM274 711q0 -623 330 -623q328 0 328 627q0 226 -41 368.5t-112.5 202.5t-178.5 60q-326 0 -326 -635zM373 1569l125 389q3 8 12 8h184q10 0 13 -8l124 -389q4 -13 -8 -13h-78q-9 0 -12 9l-131 284l-131 -284q-3 -9 -12 -9 h-78q-12 0 -8 13z" />
<glyph unicode="&#xd5;" horiz-adv-x="1208" d="M102 713q0 138 17.5 250.5t46 188t70.5 132.5t84.5 88.5t95.5 50.5t96 25t92 6t91.5 -6t95.5 -25t95.5 -50.5t85 -88.5t71 -132.5t46 -188t17.5 -250.5q0 -131 -17 -238.5t-45 -182t-68.5 -131.5t-83.5 -90.5t-95 -54.5t-97.5 -28.5t-95.5 -7.5q-53 0 -99 7t-98.5 27.5 t-95 54t-82.5 90t-67 131.5t-43.5 183t-16.5 240zM274 711q0 -623 330 -623q328 0 328 627q0 226 -41 368.5t-112.5 202.5t-178.5 60q-326 0 -326 -635zM365 1671q-6 17 4 37q13 31 53 65.5t82 34.5q31 0 106.5 -42t102.5 -42q23 0 41.5 19.5t32 39t24.5 19.5q12 0 18 -18 l13 -41q5 -18 -4 -37q-12 -30 -52 -66t-84 -36q-31 0 -106.5 42t-103.5 42q-22 0 -40.5 -19t-32 -38t-24.5 -19q-12 0 -18 18z" />
<glyph unicode="&#xd6;" horiz-adv-x="1208" d="M102 713q0 138 17.5 250.5t46 188t70.5 132.5t84.5 88.5t95.5 50.5t96 25t92 6t91.5 -6t95.5 -25t95.5 -50.5t85 -88.5t71 -132.5t46 -188t17.5 -250.5q0 -131 -17 -238.5t-45 -182t-68.5 -131.5t-83.5 -90.5t-95 -54.5t-97.5 -28.5t-95.5 -7.5q-53 0 -99 7t-98.5 27.5 t-95 54t-82.5 90t-67 131.5t-43.5 183t-16.5 240zM274 711q0 -623 330 -623q328 0 328 627q0 226 -41 368.5t-112.5 202.5t-178.5 60q-326 0 -326 -635zM342 1708q0 46 31 77.5t78 31.5t78.5 -31.5t31.5 -77.5q0 -47 -31.5 -79t-78.5 -32t-78 32t-31 79zM645 1708 q0 46 31 77.5t78 31.5t78.5 -31.5t31.5 -77.5q0 -47 -31.5 -79t-78.5 -32t-78 32t-31 79z" />
<glyph unicode="&#xd7;" d="M96 297q-3 6 0 12l326 326l-326 326q-3 6 0 12l78 78q6 3 12 0l326 -326l326 326q6 3 12 0l78 -78q3 -6 0 -12l-326 -326l326 -326q3 -6 0 -12l-78 -78q-6 -3 -12 0l-326 326l-326 -326q-6 -3 -12 0z" />
<glyph unicode="&#xd8;" horiz-adv-x="1208" d="M102 713q0 138 17.5 250.5t46 188t70.5 132.5t84.5 88.5t95.5 50.5t96 25t92 6t91.5 -6t95.5 -25t95.5 -50.5t85 -88.5t71 -132.5t46 -188t17.5 -250.5q0 -131 -17 -238.5t-45 -182t-68.5 -131.5t-83.5 -90.5t-95 -54.5t-97.5 -28.5t-95.5 -7.5q-53 0 -99 7t-98.5 27.5 t-95 54t-82.5 90t-67 131.5t-43.5 183t-16.5 240zM274 711q0 -243 45 -379l504 901q-80 113 -223 113q-326 0 -326 -635zM379 207q80 -119 225 -119q328 0 328 627q0 254 -49 397z" />
<glyph unicode="&#xd9;" horiz-adv-x="1275" d="M86 1380v45q0 9 8 9h350q3 0 6 -3t3 -6v-45q0 -13 -4 -18t-15 -10l-84 -39v-918q0 -147 75 -225t220 -78q130 0 213.5 80t83.5 229v912l-84 39q-11 5 -14.5 10t-3.5 18v45q0 9 8 9h334q8 0 8 -9v-45q0 -13 -4 -18t-15 -10l-84 -39v-936q0 -127 -63 -219t-163.5 -135 t-225.5 -43q-212 0 -329.5 112t-117.5 279v942l-84 39q-11 5 -14.5 10t-3.5 18zM422.5 1961q1.5 5 7.5 5h143q10 0 13 -8l121 -389q4 -13 -9 -13h-88q-9 0 -12 9l-174 385q-3 6 -1.5 11z" />
<glyph unicode="&#xda;" horiz-adv-x="1275" d="M86 1380v45q0 9 8 9h350q3 0 6 -3t3 -6v-45q0 -13 -4 -18t-15 -10l-84 -39v-918q0 -147 75 -225t220 -78q130 0 213.5 80t83.5 229v912l-84 39q-11 5 -14.5 10t-3.5 18v45q0 9 8 9h334q8 0 8 -9v-45q0 -13 -4 -18t-15 -10l-84 -39v-936q0 -127 -63 -219t-163.5 -135 t-225.5 -43q-212 0 -329.5 112t-117.5 279v942l-84 39q-11 5 -14.5 10t-3.5 18zM578 1569l120 389q3 8 13 8h143q6 0 7.5 -5t-1.5 -11l-174 -385q-3 -9 -12 -9h-88q-12 0 -8 13z" />
<glyph unicode="&#xdb;" horiz-adv-x="1275" d="M86 1380v45q0 9 8 9h350q3 0 6 -3t3 -6v-45q0 -13 -4 -18t-15 -10l-84 -39v-918q0 -147 75 -225t220 -78q130 0 213.5 80t83.5 229v912l-84 39q-11 5 -14.5 10t-3.5 18v45q0 9 8 9h334q8 0 8 -9v-45q0 -13 -4 -18t-15 -10l-84 -39v-936q0 -127 -63 -219t-163.5 -135 t-225.5 -43q-212 0 -329.5 112t-117.5 279v942l-84 39q-11 5 -14.5 10t-3.5 18zM408 1569l124 389q3 8 13 8h184q9 0 12 -8l125 -389q4 -13 -8 -13h-78q-9 0 -12 9l-131 284l-131 -284q-3 -9 -12 -9h-78q-12 0 -8 13z" />
<glyph unicode="&#xdc;" horiz-adv-x="1275" d="M86 1380v45q0 9 8 9h350q3 0 6 -3t3 -6v-45q0 -13 -4 -18t-15 -10l-84 -39v-918q0 -147 75 -225t220 -78q130 0 213.5 80t83.5 229v912l-84 39q-11 5 -14.5 10t-3.5 18v45q0 9 8 9h334q8 0 8 -9v-45q0 -13 -4 -18t-15 -10l-84 -39v-936q0 -127 -63 -219t-163.5 -135 t-225.5 -43q-212 0 -329.5 112t-117.5 279v942l-84 39q-11 5 -14.5 10t-3.5 18zM377 1708q0 46 30.5 77.5t77.5 31.5t79 -31.5t32 -77.5q0 -47 -32 -79t-79 -32t-77.5 31.5t-30.5 79.5zM680 1708q0 46 30.5 77.5t77.5 31.5t79 -31.5t32 -77.5q0 -47 -32 -79t-79 -32 t-77.5 31.5t-30.5 79.5z" />
<glyph unicode="&#xdd;" horiz-adv-x="1148" d="M0 1386v39q0 9 8 9h354q3 0 6 -3t3 -6v-39q0 -16 -4.5 -22.5t-14.5 -11.5l-86 -37l330 -572l315 570l-94 41q-9 4 -10.5 7.5t-1.5 14.5v49q0 9 8 9h328q8 0 8 -9v-47q0 -11 -4 -16t-15 -10l-77 -33l-398 -705v-493l84 -39q19 -8 19 -29v-45q0 -8 -8 -8h-351q-8 0 -8 8v45 q0 21 19 29l84 39v504l-398 690l-78 37q-18 9 -18 34zM520 1569l121 389q3 8 12 8h144q6 0 7.5 -5t-1.5 -11l-174 -385q-3 -9 -13 -9h-88q-12 0 -8 13z" />
<glyph unicode="&#xde;" horiz-adv-x="1132" d="M90 8v47q0 13 4 17.5t15 9.5l84 39v1192l-84 39q-12 5 -15.5 9t-3.5 17v47q0 9 8 9h375q4 0 4 -9v-49q0 -14 -2 -18t-12 -8l-109 -41v-135h215q469 0 469 -420q0 -210 -126.5 -323.5t-354.5 -113.5h-203v-192l109 -41q10 -4 12 -8.5t2 -18.5v-49q0 -8 -4 -8h-375 q-8 0 -8 8zM354 428h193q163 0 243 84t80 238q0 315 -327 315h-189v-637z" />
<glyph unicode="&#xdf;" horiz-adv-x="1122" d="M49 772v59q0 9 8 9h99v182q0 203 118 317.5t301 114.5q147 0 237.5 -77.5t90.5 -205.5q0 -70 -26 -135t-63.5 -114t-75 -93.5t-63.5 -91.5t-26 -90q0 -40 21.5 -70.5t55.5 -50.5t75.5 -37.5t82.5 -38t75 -45t55.5 -64t21.5 -91.5q0 -112 -90 -191t-241 -79 q-130 0 -213.5 59t-83.5 143q0 50 28.5 78.5t67.5 28.5q33 0 57.5 -22t24.5 -58q0 -41 -37 -78q47 -47 156 -47q87 0 134.5 36t47.5 93q0 36 -21 63.5t-54.5 46t-74.5 35.5t-81.5 37.5t-74 46.5t-54.5 68t-21 96q0 62 27 123.5t65 111t76 98t65 102t27 104.5 q0 85 -56.5 136.5t-150.5 51.5q-116 0 -185 -81.5t-69 -215.5v-1028q0 -8 -8 -8h-203q-8 0 -8 8v35q0 26 18 35l52 28v627l-88 17q-19 3 -19 22z" />
<glyph unicode="&#xe0;" horiz-adv-x="856" d="M86 203q0 96 61 162t199 98l201 47v80q0 74 -50 122t-120 48q-78 0 -139 -45q51 -25 51 -82q0 -40 -25.5 -62t-62.5 -22q-41 0 -66.5 27.5t-25.5 68.5q0 87 87.5 151t217.5 64q129 0 205.5 -75.5t76.5 -206.5v-435q0 -36 16.5 -51.5t55.5 -9.5q18 3 18 -14v-33 q0 -24 -12 -31q-36 -22 -88 -22q-55 0 -90 30.5t-39 91.5q-34 -51 -97 -87.5t-136 -36.5q-32 0 -64.5 7.5t-64 25t-55.5 42.5t-39 63.5t-15 84.5zM203.5 1428.5q1.5 5.5 7.5 5.5h143q10 0 13 -9l120 -389q4 -12 -8 -12h-88q-9 0 -12 8l-174 385q-3 6 -1.5 11.5zM231 217 q0 -61 39 -95t95 -34t103 33.5t79 77.5v209l-129 -23q-93 -17 -140 -61t-47 -107z" />
<glyph unicode="&#xe1;" horiz-adv-x="856" d="M86 203q0 96 61 162t199 98l201 47v80q0 74 -50 122t-120 48q-78 0 -139 -45q51 -25 51 -82q0 -40 -25.5 -62t-62.5 -22q-41 0 -66.5 27.5t-25.5 68.5q0 87 87.5 151t217.5 64q129 0 205.5 -75.5t76.5 -206.5v-435q0 -36 16.5 -51.5t55.5 -9.5q18 3 18 -14v-33 q0 -24 -12 -31q-36 -22 -88 -22q-55 0 -90 30.5t-39 91.5q-34 -51 -97 -87.5t-136 -36.5q-32 0 -64.5 7.5t-64 25t-55.5 42.5t-39 63.5t-15 84.5zM231 217q0 -61 39 -95t95 -34t103 33.5t79 77.5v209l-129 -23q-93 -17 -140 -61t-47 -107zM358 1036l121 389q3 9 13 9h143 q6 0 7.5 -5.5t-1.5 -11.5l-174 -385q-3 -8 -12 -8h-88q-13 0 -9 12z" />
<glyph unicode="&#xe2;" horiz-adv-x="856" d="M86 203q0 96 61 162t199 98l201 47v80q0 74 -50 122t-120 48q-78 0 -139 -45q51 -25 51 -82q0 -40 -25.5 -62t-62.5 -22q-41 0 -66.5 27.5t-25.5 68.5q0 87 87.5 151t217.5 64q129 0 205.5 -75.5t76.5 -206.5v-435q0 -36 16.5 -51.5t55.5 -9.5q18 3 18 -14v-33 q0 -24 -12 -31q-36 -22 -88 -22q-55 0 -90 30.5t-39 91.5q-34 -51 -97 -87.5t-136 -36.5q-32 0 -64.5 7.5t-64 25t-55.5 42.5t-39 63.5t-15 84.5zM188 1036l125 389q3 9 13 9h184q9 0 12 -9l125 -389q4 -12 -8 -12h-78q-9 0 -12 8l-131 285l-131 -285q-3 -8 -13 -8h-77 q-13 0 -9 12zM231 217q0 -61 39 -95t95 -34t103 33.5t79 77.5v209l-129 -23q-93 -17 -140 -61t-47 -107z" />
<glyph unicode="&#xe3;" horiz-adv-x="856" d="M86 203q0 96 61 162t199 98l201 47v80q0 74 -50 122t-120 48q-78 0 -139 -45q51 -25 51 -82q0 -40 -25.5 -62t-62.5 -22q-41 0 -66.5 27.5t-25.5 68.5q0 87 87.5 151t217.5 64q129 0 205.5 -75.5t76.5 -206.5v-435q0 -36 16.5 -51.5t55.5 -9.5q18 3 18 -14v-33 q0 -24 -12 -31q-36 -22 -88 -22q-55 0 -90 30.5t-39 91.5q-34 -51 -97 -87.5t-136 -36.5q-32 0 -64.5 7.5t-64 25t-55.5 42.5t-39 63.5t-15 84.5zM180 1139q-6 17 4 37q13 31 53 65.5t82 34.5q31 0 106.5 -42t102.5 -42q23 0 42 19.5t32.5 39t24.5 19.5q12 0 18 -19l12 -41 q5 -18 -4 -36q-13 -30 -52 -66.5t-83 -36.5q-31 0 -107 42t-104 42q-22 0 -40 -19t-31.5 -38t-24.5 -19q-12 0 -18 19zM231 217q0 -61 39 -95t95 -34t103 33.5t79 77.5v209l-129 -23q-93 -17 -140 -61t-47 -107z" />
<glyph unicode="&#xe4;" horiz-adv-x="856" d="M86 203q0 96 61 162t199 98l201 47v80q0 74 -50 122t-120 48q-78 0 -139 -45q51 -25 51 -82q0 -40 -25.5 -62t-62.5 -22q-41 0 -66.5 27.5t-25.5 68.5q0 87 87.5 151t217.5 64q129 0 205.5 -75.5t76.5 -206.5v-435q0 -36 16.5 -51.5t55.5 -9.5q18 3 18 -14v-33 q0 -24 -12 -31q-36 -22 -88 -22q-55 0 -90 30.5t-39 91.5q-34 -51 -97 -87.5t-136 -36.5q-32 0 -64.5 7.5t-64 25t-55.5 42.5t-39 63.5t-15 84.5zM158 1176q0 46 30.5 77t77.5 31t79 -31t32 -77q0 -47 -32 -79t-79 -32t-77.5 31.5t-30.5 79.5zM231 217q0 -61 39 -95t95 -34 t103 33.5t79 77.5v209l-129 -23q-93 -17 -140 -61t-47 -107zM461 1176q0 46 30.5 77t77.5 31t79 -31t32 -77q0 -47 -32 -79t-79 -32t-77.5 31.5t-30.5 79.5z" />
<glyph unicode="&#xe5;" horiz-adv-x="856" d="M86 203q0 96 61 162t199 98l201 47v80q0 74 -50 122t-120 48q-78 0 -139 -45q51 -25 51 -82q0 -40 -25.5 -62t-62.5 -22q-41 0 -66.5 27.5t-25.5 68.5q0 87 87.5 151t217.5 64q129 0 205.5 -75.5t76.5 -206.5v-435q0 -36 16.5 -51.5t55.5 -9.5q18 3 18 -14v-33 q0 -24 -12 -31q-36 -22 -88 -22q-55 0 -90 30.5t-39 91.5q-34 -51 -97 -87.5t-136 -36.5q-32 0 -64.5 7.5t-64 25t-55.5 42.5t-39 63.5t-15 84.5zM231 217q0 -61 39 -95t95 -34t103 33.5t79 77.5v209l-129 -23q-93 -17 -140 -61t-47 -107zM233 1176q0 77 54.5 131.5 t130.5 54.5t131 -55t55 -131t-54.5 -130.5t-131.5 -54.5q-76 0 -130.5 54.5t-54.5 130.5zM319 1176q0 -41 29 -70t70 -29q42 0 71 28.5t29 70.5q0 43 -28.5 71.5t-71.5 28.5q-42 0 -70.5 -29t-28.5 -71z" />
<glyph unicode="&#xe6;" horiz-adv-x="1347" d="M86 217q0 254 369 254h133v119q0 74 -52.5 120t-123.5 46q-79 0 -140 -45q52 -25 52 -80q0 -41 -25.5 -63.5t-62.5 -22.5q-41 0 -67 27.5t-26 70.5q0 85 87.5 151t215.5 66q172 0 242 -125q98 125 268 125q126 0 215 -70.5t89 -191.5q0 -223 -306 -223h-219v-8 q0 -132 65.5 -204.5t172.5 -72.5q39 0 74.5 10.5t65 30t46.5 34t39 36.5q7 7 14 0l50 -56q10 -10 2 -18q-61 -73 -144.5 -110t-175.5 -37q-215 0 -303 180q-45 -82 -121.5 -131t-177.5 -49q-113 0 -184.5 60t-71.5 177zM231 215q0 -62 42 -94.5t102 -32.5q82 0 147.5 56 t65.5 155v76h-121q-122 0 -179 -45t-57 -115zM735 471h205q176 0 176 129q0 69 -44 112.5t-118 43.5q-103 0 -161 -83t-58 -194v-8z" />
<glyph unicode="&#xe7;" horiz-adv-x="811" d="M92 408q0 206 101 329t268 123q111 0 186.5 -57.5t75.5 -132.5q0 -48 -28.5 -76.5t-69.5 -28.5q-37 0 -65 23t-28 61q0 40 33 78q-41 29 -106 29q-102 0 -158.5 -79.5t-56.5 -219.5v-47q0 -85 23.5 -155.5t73 -115.5t116.5 -45q122 0 229 111q7 7 14 0l50 -55q9 -9 2 -19 q-92 -116 -226 -143q-53 -61 -67 -88q60 0 109.5 -36.5t49.5 -90.5q0 -78 -57.5 -114t-140.5 -36q-69 0 -146 25q-10 4 -8 16l13 55q3 15 16 11q78 -25 111 -25q81 0 81 57q0 30 -23.5 46t-62.5 16h-59q-27 0 -27 18q0 22 97 140q-65 6 -120.5 34t-101 77.5t-72 130.5 t-26.5 184z" />
<glyph unicode="&#xe8;" horiz-adv-x="866" d="M92 406q0 211 104 332.5t279 121.5q141 0 225 -77t84 -193q0 -107 -73.5 -161t-200.5 -54h-266q2 -129 68.5 -206t183.5 -77q67 0 117.5 23t105.5 65q8 6 14 0l47 -59q6 -9 -2 -17q-127 -124 -315 -124q-167 0 -269 109.5t-102 316.5zM244 475h252q71 0 109 26.5t38 90.5 q0 73 -49 118.5t-131 45.5q-100 0 -159.5 -83.5t-59.5 -195.5v-2zM244.5 1428.5q1.5 5.5 7.5 5.5h143q10 0 13 -9l120 -389q4 -12 -8 -12h-88q-9 0 -12 8l-174 385q-3 6 -1.5 11.5z" />
<glyph unicode="&#xe9;" horiz-adv-x="866" d="M92 406q0 211 104 332.5t279 121.5q141 0 225 -77t84 -193q0 -107 -73.5 -161t-200.5 -54h-266q2 -129 68.5 -206t183.5 -77q67 0 117.5 23t105.5 65q8 6 14 0l47 -59q6 -9 -2 -17q-127 -124 -315 -124q-167 0 -269 109.5t-102 316.5zM244 475h252q71 0 109 26.5t38 90.5 q0 73 -49 118.5t-131 45.5q-100 0 -159.5 -83.5t-59.5 -195.5v-2zM399 1036l121 389q3 9 12 9h144q6 0 7.5 -5.5t-1.5 -11.5l-174 -385q-3 -8 -12 -8h-88q-13 0 -9 12z" />
<glyph unicode="&#xea;" horiz-adv-x="866" d="M92 406q0 211 104 332.5t279 121.5q141 0 225 -77t84 -193q0 -107 -73.5 -161t-200.5 -54h-266q2 -129 68.5 -206t183.5 -77q67 0 117.5 23t105.5 65q8 6 14 0l47 -59q6 -9 -2 -17q-127 -124 -315 -124q-167 0 -269 109.5t-102 316.5zM229 1036l125 389q3 9 13 9h184 q9 0 12 -9l125 -389q4 -12 -8 -12h-78q-9 0 -12 8l-131 285l-131 -285q-3 -8 -13 -8h-77q-13 0 -9 12zM244 475h252q71 0 109 26.5t38 90.5q0 73 -49 118.5t-131 45.5q-100 0 -159.5 -83.5t-59.5 -195.5v-2z" />
<glyph unicode="&#xeb;" horiz-adv-x="866" d="M92 406q0 211 104 332.5t279 121.5q141 0 225 -77t84 -193q0 -107 -73.5 -161t-200.5 -54h-266q2 -129 68.5 -206t183.5 -77q67 0 117.5 23t105.5 65q8 6 14 0l47 -59q6 -9 -2 -17q-127 -124 -315 -124q-167 0 -269 109.5t-102 316.5zM199 1176q0 46 30.5 77t77.5 31 t79 -31t32 -77q0 -47 -32 -79t-79 -32t-77.5 31.5t-30.5 79.5zM244 475h252q71 0 109 26.5t38 90.5q0 73 -49 118.5t-131 45.5q-100 0 -159.5 -83.5t-59.5 -195.5v-2zM502 1176q0 46 30.5 77t77.5 31t79 -31t32 -77q0 -47 -32 -79t-79 -32t-77.5 31.5t-30.5 79.5z" />
<glyph unicode="&#xec;" horiz-adv-x="444" d="M6.5 1428.5q1.5 5.5 7.5 5.5h144q9 0 12 -9l121 -389q4 -12 -8 -12h-88q-10 0 -13 8l-174 385q-3 6 -1.5 11.5zM78 8v45q0 16 18 25l51 28v627l-59 31q-10 5 -10 18v49q0 9 8 9h174q19 0 28 -9t9 -32v-693l51 -28q19 -10 19 -25v-45q0 -8 -9 -8h-272q-8 0 -8 8z" />
<glyph unicode="&#xed;" horiz-adv-x="444" d="M78 8v45q0 16 18 25l51 28v627l-59 31q-10 5 -10 18v49q0 9 8 9h174q19 0 28 -9t9 -32v-693l51 -28q19 -10 19 -25v-45q0 -8 -9 -8h-272q-8 0 -8 8zM162 1036l121 389q3 9 12 9h143q6 0 7.5 -5.5t-1.5 -11.5l-174 -385q-3 -8 -12 -8h-88q-12 0 -8 12z" />
<glyph unicode="&#xee;" horiz-adv-x="444" d="M-8 1036l125 389q3 9 12 9h184q10 0 13 -9l125 -389q4 -12 -9 -12h-77q-10 0 -13 8l-131 285l-131 -285q-3 -8 -12 -8h-78q-12 0 -8 12zM78 8v45q0 16 18 25l51 28v627l-59 31q-10 5 -10 18v49q0 9 8 9h174q19 0 28 -9t9 -32v-693l51 -28q19 -10 19 -25v-45q0 -8 -9 -8 h-272q-8 0 -8 8z" />
<glyph unicode="&#xef;" horiz-adv-x="444" d="M-39 1176q0 46 31 77t78 31t78.5 -31t31.5 -77q0 -47 -31.5 -79t-78.5 -32t-78 32t-31 79zM78 8v45q0 16 18 25l51 28v627l-59 31q-10 5 -10 18v49q0 9 8 9h174q19 0 28 -9t9 -32v-693l51 -28q19 -10 19 -25v-45q0 -8 -9 -8h-272q-8 0 -8 8zM264 1176q0 46 31 77t78 31 t78.5 -31t31.5 -77q0 -47 -31.5 -79t-78.5 -32t-78 32t-31 79z" />
<glyph unicode="&#xf0;" horiz-adv-x="944" d="M92 420q0 204 107 322t272 118q57 0 110.5 -16.5t84.5 -42.5q-23 109 -79.5 210t-135.5 175l-156 -121q-1 -1 -5 -1t-5 1l-60 76q-2 1 -1.5 5t3.5 5l135 104q-92 59 -194 68q-18 0 -18 16v86q0 9 8 9q163 0 309 -97l119 95q1 2 5 1.5t7 -3.5l57 -74q4 -7 -2 -13l-98 -75 q139 -133 218 -348t79 -478v-8q0 -214 -107.5 -334t-273.5 -120q-165 0 -272 118t-107 322zM244 420q0 -160 63 -248t164 -88q102 0 165.5 88t63.5 248t-63.5 248t-165.5 88q-101 0 -164 -88t-63 -248z" />
<glyph unicode="&#xf1;" horiz-adv-x="952" d="M78 8v45q0 16 18 25l51 28v627l-59 31q-10 5 -10 18v49q0 9 8 9h203q8 0 8 -9v-106q120 135 258 135q111 0 180.5 -73t69.5 -183v-498l51 -28q18 -9 18 -25v-45q0 -8 -8 -8h-272q-8 0 -8 8v45q0 16 18 25l51 28v490q0 68 -36 107.5t-105 39.5q-62 0 -120.5 -39.5 t-96.5 -89.5v-508l51 -28q19 -10 19 -25v-45q0 -8 -9 -8h-272q-8 0 -8 8zM227 1139q-6 17 4 37q13 31 53.5 65.5t82.5 34.5q31 0 106 -42t102 -42q23 0 42 19.5t32.5 39t24.5 19.5q12 0 18 -19l13 -41q5 -17 -5 -36q-13 -30 -52 -66.5t-83 -36.5q-31 0 -107 42t-104 42 q-22 0 -40 -19t-31.5 -38t-24.5 -19q-12 0 -18 19z" />
<glyph unicode="&#xf2;" horiz-adv-x="944" d="M92 420q0 204 107 322t272 118t273 -118t108 -322t-108 -322t-273 -118t-272 118t-107 322zM244 420q0 -160 63 -248t164 -88q102 0 165.5 88t63.5 248t-63.5 248t-165.5 88q-101 0 -164 -88t-63 -248zM254.5 1428.5q1.5 5.5 7.5 5.5h144q9 0 12 -9l121 -389 q4 -12 -9 -12h-88q-9 0 -12 8l-174 385q-3 6 -1.5 11.5z" />
<glyph unicode="&#xf3;" horiz-adv-x="944" d="M92 420q0 204 107 322t272 118t273 -118t108 -322t-108 -322t-273 -118t-272 118t-107 322zM244 420q0 -160 63 -248t164 -88q102 0 165.5 88t63.5 248t-63.5 248t-165.5 88q-101 0 -164 -88t-63 -248zM410 1036l120 389q3 9 13 9h143q6 0 7.5 -5.5t-1.5 -11.5l-174 -385 q-3 -8 -12 -8h-88q-12 0 -8 12z" />
<glyph unicode="&#xf4;" horiz-adv-x="944" d="M92 420q0 204 107 322t272 118t273 -118t108 -322t-108 -322t-273 -118t-272 118t-107 322zM240 1036l125 389q3 9 12 9h184q9 0 12 -9l125 -389q4 -12 -8 -12h-78q-9 0 -12 8l-131 285l-131 -285q-3 -8 -12 -8h-78q-12 0 -8 12zM244 420q0 -160 63 -248t164 -88 q102 0 165.5 88t63.5 248t-63.5 248t-165.5 88q-101 0 -164 -88t-63 -248z" />
<glyph unicode="&#xf5;" horiz-adv-x="944" d="M92 420q0 204 107 322t272 118t273 -118t108 -322t-108 -322t-273 -118t-272 118t-107 322zM231 1139q-5 16 5 37q13 31 53 65.5t82 34.5q31 0 106.5 -42t102.5 -42q23 0 41.5 19.5t32 39t24.5 19.5q12 0 18 -19l13 -41q5 -18 -4 -36q-13 -30 -52.5 -66.5t-83.5 -36.5 q-31 0 -107 42t-104 42q-22 0 -40 -19t-31.5 -38t-24.5 -19q-12 0 -18 19zM244 420q0 -160 63 -248t164 -88q102 0 165.5 88t63.5 248t-63.5 248t-165.5 88q-101 0 -164 -88t-63 -248z" />
<glyph unicode="&#xf6;" horiz-adv-x="944" d="M92 420q0 204 107 322t272 118t273 -118t108 -322t-108 -322t-273 -118t-272 118t-107 322zM209 1176q0 46 30.5 77t77.5 31t79 -31t32 -77q0 -47 -32 -79t-79 -32t-77.5 31.5t-30.5 79.5zM244 420q0 -160 63 -248t164 -88q102 0 165.5 88t63.5 248t-63.5 248t-165.5 88 q-101 0 -164 -88t-63 -248zM512 1176q0 46 31 77t78 31t78.5 -31t31.5 -77q0 -47 -31.5 -79t-78.5 -32t-78 32t-31 79z" />
<glyph unicode="&#xf7;" d="M61 580v110q0 8 9 8h884q9 0 9 -8v-110q0 -3 -3 -6t-6 -3h-884q-3 0 -6 3t-3 6zM403 266q0 46 30 76.5t77 30.5t77.5 -30.5t30.5 -76.5q0 -47 -30.5 -77.5t-77.5 -30.5t-77 30.5t-30 77.5zM403 993q0 46 30 76.5t77 30.5t77.5 -30.5t30.5 -76.5q0 -47 -30.5 -77.5 t-77.5 -30.5t-77 30.5t-30 77.5z" />
<glyph unicode="&#xf8;" horiz-adv-x="944" d="M92 420q0 204 107 322t272 118t273 -118t108 -322t-108 -322t-273 -118t-272 118t-107 322zM244 420q0 -133 41 -213l317 498q-54 51 -131 51q-101 0 -164 -88t-63 -248zM344 129q54 -45 127 -45q102 0 165.5 88t63.5 248q0 127 -41 207z" />
<glyph unicode="&#xf9;" horiz-adv-x="968" d="M78 797v34q0 9 8 9h203q8 0 8 -9v-587q0 -67 40.5 -106.5t106.5 -39.5q60 0 121 36.5t94 80.5v518l-51 29q-18 9 -18 35v34q0 9 8 9h203q8 0 8 -9v-684q0 -36 16.5 -51.5t55.5 -9.5q18 3 18 -14v-37q0 -24 -12 -31q-36 -22 -94 -22q-59 0 -94.5 33.5t-39.5 95.5 q-42 -51 -115.5 -91t-154.5 -40q-109 0 -175.5 74t-66.5 182v497l-51 29q-18 9 -18 35zM246.5 1428.5q1.5 5.5 7.5 5.5h143q10 0 13 -9l120 -389q4 -12 -8 -12h-88q-9 0 -12 8l-174 385q-3 6 -1.5 11.5z" />
<glyph unicode="&#xfa;" horiz-adv-x="968" d="M78 797v34q0 9 8 9h203q8 0 8 -9v-587q0 -67 40.5 -106.5t106.5 -39.5q60 0 121 36.5t94 80.5v518l-51 29q-18 9 -18 35v34q0 9 8 9h203q8 0 8 -9v-684q0 -36 16.5 -51.5t55.5 -9.5q18 3 18 -14v-37q0 -24 -12 -31q-36 -22 -94 -22q-59 0 -94.5 33.5t-39.5 95.5 q-42 -51 -115.5 -91t-154.5 -40q-109 0 -175.5 74t-66.5 182v497l-51 29q-18 9 -18 35zM401 1036l121 389q3 9 13 9h143q6 0 7.5 -5.5t-1.5 -11.5l-174 -385q-3 -8 -12 -8h-88q-13 0 -9 12z" />
<glyph unicode="&#xfb;" horiz-adv-x="968" d="M78 797v34q0 9 8 9h203q8 0 8 -9v-587q0 -67 40.5 -106.5t106.5 -39.5q60 0 121 36.5t94 80.5v518l-51 29q-18 9 -18 35v34q0 9 8 9h203q8 0 8 -9v-684q0 -36 16.5 -51.5t55.5 -9.5q18 3 18 -14v-37q0 -24 -12 -31q-36 -22 -94 -22q-59 0 -94.5 33.5t-39.5 95.5 q-42 -51 -115.5 -91t-154.5 -40q-109 0 -175.5 74t-66.5 182v497l-51 29q-18 9 -18 35zM231 1036l125 389q3 9 13 9h184q9 0 12 -9l125 -389q4 -12 -8 -12h-78q-9 0 -12 8l-131 285l-131 -285q-3 -8 -13 -8h-77q-13 0 -9 12z" />
<glyph unicode="&#xfc;" horiz-adv-x="968" d="M78 797v34q0 9 8 9h203q8 0 8 -9v-587q0 -67 40.5 -106.5t106.5 -39.5q60 0 121 36.5t94 80.5v518l-51 29q-18 9 -18 35v34q0 9 8 9h203q8 0 8 -9v-684q0 -36 16.5 -51.5t55.5 -9.5q18 3 18 -14v-37q0 -24 -12 -31q-36 -22 -94 -22q-59 0 -94.5 33.5t-39.5 95.5 q-42 -51 -115.5 -91t-154.5 -40q-109 0 -175.5 74t-66.5 182v497l-51 29q-18 9 -18 35zM201 1176q0 46 30.5 77t77.5 31t79 -31t32 -77q0 -47 -32 -79t-79 -32t-77.5 31.5t-30.5 79.5zM504 1176q0 46 30.5 77t77.5 31t79 -31t32 -77q0 -47 -32 -79t-79 -32t-77.5 31.5 t-30.5 79.5z" />
<glyph unicode="&#xfd;" horiz-adv-x="813" d="M14 -272q0 38 22.5 64t59.5 26q33 0 72.5 -25.5t58.5 -25.5q37 0 77.5 53.5t66.5 130.5l16 49h-74q-9 0 -12 12l-209 721l-65 33q-11 6 -11 25v40q0 3 3 6t6 3h288q9 0 9 -9v-40q0 -17 -13 -25l-57 -31l166 -629l207 629l-54 33q-12 7 -12 23v40q0 9 8 9h221q3 0 6 -3 t3 -6v-40q0 -17 -15 -27l-49 -31l-248 -749q-60 -183 -144.5 -268t-195.5 -85q-46 0 -88.5 28t-42.5 69zM373 1036l121 389q3 9 12 9h143q6 0 7.5 -5.5t-1.5 -11.5l-174 -385q-3 -8 -12 -8h-88q-12 0 -8 12z" />
<glyph unicode="&#xfe;" horiz-adv-x="1005" d="M78 1376v49q0 9 8 9h186q19 0 28 -9t9 -32v-654q34 40 110.5 80.5t162.5 40.5q46 0 90.5 -13.5t88.5 -46t77.5 -80t54 -121t20.5 -163.5q0 -111 -31.5 -200t-83 -143.5t-113 -83.5t-126.5 -29q-71 0 -147.5 40.5t-102.5 81.5v-342l68 -28q12 -6 15 -11t3 -16v-45 q0 -8 -8 -8h-289q-8 0 -8 8v45q0 15 19 25l51 28v1569l-72 31q-10 5 -10 18zM309 229q33 -52 99.5 -91.5t126.5 -39.5q29 0 57 8t59.5 30t55.5 56.5t39.5 94t15.5 135.5q0 80 -16 140.5t-39.5 93.5t-56.5 53t-59.5 26t-55.5 6q-54 0 -122 -36.5t-104 -79.5v-396z" />
<glyph unicode="&#xff;" horiz-adv-x="813" d="M14 -272q0 38 22.5 64t59.5 26q33 0 72.5 -25.5t58.5 -25.5q37 0 77.5 53.5t66.5 130.5l16 49h-74q-9 0 -12 12l-209 721l-65 33q-11 6 -11 25v40q0 3 3 6t6 3h288q9 0 9 -9v-40q0 -17 -13 -25l-57 -31l166 -629l207 629l-54 33q-12 7 -12 23v40q0 9 8 9h221q3 0 6 -3 t3 -6v-40q0 -17 -15 -27l-49 -31l-248 -749q-60 -183 -144.5 -268t-195.5 -85q-46 0 -88.5 28t-42.5 69zM172 1176q0 46 31 77t78 31t78.5 -31t31.5 -77q0 -47 -31.5 -79t-78.5 -32t-78 32t-31 79zM475 1176q0 46 31 77t78 31t78.5 -31t31.5 -77q0 -47 -31.5 -79t-78.5 -32 t-78 32t-31 79z" />
<glyph unicode="&#x152;" horiz-adv-x="1697" d="M102 713q0 174 29 304t77 208.5t120 126.5t147 65t170 17h928q8 0 8 -9v-309q0 -8 -8 -8h-70q-21 0 -27.5 6.5t-9.5 28.5l-14 94q-7 53 -27 70.5t-67 17.5h-357v-524h261l36 104q7 21 16.5 28t28.5 7h52q8 0 8 -8v-371q0 -8 -8 -8h-52q-19 0 -28.5 7t-16.5 28l-36 104 h-261v-583h322q72 0 104 29t41 100l13 88q3 21 8.5 26.5t23.5 5.5h74q8 0 8 -8v-342q0 -8 -8 -8h-979q-86 0 -159 21.5t-138 73.5t-110.5 132t-72 203.5t-26.5 282.5zM274 715q0 -137 19.5 -243t52.5 -173.5t80 -111t97.5 -61t109.5 -17.5h207v1216h-207q-359 0 -359 -610z " />
<glyph unicode="&#x153;" horiz-adv-x="1466" d="M92 420q0 204 107 322t272 118q96 0 174 -42.5t127 -121.5q48 79 125.5 121.5t177.5 42.5q141 0 225 -77t84 -193q0 -107 -73.5 -161t-200.5 -54h-266q2 -129 68.5 -206t183.5 -77q67 0 117.5 23t105.5 65q8 6 14 0l47 -59q6 -9 -2 -17q-127 -124 -315 -124 q-205 0 -297 153q-104 -153 -295 -153q-165 0 -272 118t-107 322zM244 420q0 -160 63 -248t164 -88q102 0 165.5 88t63.5 248t-63.5 248t-165.5 88q-101 0 -164 -88t-63 -248zM844 475h252q71 0 109 26.5t38 90.5q0 73 -49 118.5t-131 45.5q-100 0 -159.5 -83.5 t-59.5 -195.5v-2z" />
<glyph unicode="&#x178;" horiz-adv-x="1148" d="M0 1386v39q0 9 8 9h354q3 0 6 -3t3 -6v-39q0 -16 -4.5 -22.5t-14.5 -11.5l-86 -37l330 -572l315 570l-94 41q-9 4 -10.5 7.5t-1.5 14.5v49q0 9 8 9h328q8 0 8 -9v-47q0 -11 -4 -16t-15 -10l-77 -33l-398 -705v-493l84 -39q19 -8 19 -29v-45q0 -8 -8 -8h-351q-8 0 -8 8v45 q0 21 19 29l84 39v504l-398 690l-78 37q-18 9 -18 34zM319 1708q0 46 31 77.5t78 31.5t79 -31.5t32 -77.5q0 -47 -32 -79t-79 -32t-78 32t-31 79zM623 1708q0 46 30.5 77.5t77.5 31.5t79 -31.5t32 -77.5q0 -47 -32 -79t-79 -32t-77.5 31.5t-30.5 79.5z" />
<glyph unicode="&#x2c6;" horiz-adv-x="450" d="M-4 1036l125 389q3 9 12 9h184q10 0 13 -9l125 -389q4 -12 -9 -12h-77q-10 0 -13 8l-131 285l-131 -285q-3 -8 -12 -8h-78q-12 0 -8 12z" />
<glyph unicode="&#x2dc;" horiz-adv-x="450" d="M-12 1139q-6 17 4 37q13 31 53 65.5t82 34.5q31 0 106.5 -42t102.5 -42q23 0 41.5 19.5t32 39t24.5 19.5q13 0 19 -19l12 -41q5 -18 -4 -36q-13 -30 -52 -66.5t-83 -36.5q-31 0 -107 42t-104 42q-22 0 -40.5 -19t-32 -38t-24.5 -19q-12 0 -18 19z" />
<glyph unicode="&#x2000;" horiz-adv-x="983" />
<glyph unicode="&#x2001;" horiz-adv-x="1966" />
<glyph unicode="&#x2002;" horiz-adv-x="983" />
<glyph unicode="&#x2003;" horiz-adv-x="1966" />
<glyph unicode="&#x2004;" horiz-adv-x="655" />
<glyph unicode="&#x2005;" horiz-adv-x="491" />
<glyph unicode="&#x2006;" horiz-adv-x="327" />
<glyph unicode="&#x2007;" horiz-adv-x="327" />
<glyph unicode="&#x2008;" horiz-adv-x="245" />
<glyph unicode="&#x2009;" horiz-adv-x="393" />
<glyph unicode="&#x200a;" horiz-adv-x="109" />
<glyph unicode="&#x2010;" horiz-adv-x="524" d="M66 424v123q0 8 8 8h377q8 0 8 -8v-123q0 -8 -8 -8h-377q-8 0 -8 8z" />
<glyph unicode="&#x2011;" horiz-adv-x="524" d="M66 424v123q0 8 8 8h377q8 0 8 -8v-123q0 -8 -8 -8h-377q-8 0 -8 8z" />
<glyph unicode="&#x2012;" horiz-adv-x="524" d="M66 424v123q0 8 8 8h377q8 0 8 -8v-123q0 -8 -8 -8h-377q-8 0 -8 8z" />
<glyph unicode="&#x2013;" d="M49 465v102q0 8 8 8h910q8 0 8 -8v-102q0 -8 -8 -8h-910q-8 0 -8 8z" />
<glyph unicode="&#x2014;" horiz-adv-x="2048" d="M49 465v102q0 8 8 8h1934q8 0 8 -8v-102q0 -8 -8 -8h-1934q-8 0 -8 8z" />
<glyph unicode="&#x2018;" horiz-adv-x="434" d="M98 1065q0 72 23.5 140.5t59.5 117t73.5 82t71.5 47.5q13 4 20 -10l27 -53q3 -9 -4 -13q-53 -30 -93.5 -88.5t-50.5 -132.5q53 0 86 -30.5t33 -82.5q0 -53 -32.5 -90t-86.5 -37q-55 0 -91 39t-36 111z" />
<glyph unicode="&#x2019;" horiz-adv-x="434" d="M61 981q-3 8 5 12q53 30 93 88.5t50 132.5q-53 0 -86 30.5t-33 82.5q0 53 32.5 90t86.5 37q55 0 91 -38.5t36 -110.5t-23.5 -140.5t-59 -117t-73.5 -82t-71 -47.5q-14 -5 -21 10z" />
<glyph unicode="&#x201a;" horiz-adv-x="434" d="M61 -254q-3 8 5 12q53 30 93 89t50 133q-53 0 -86 30t-33 82q0 53 32.5 90t86.5 37q55 0 91 -38.5t36 -110.5t-23.5 -140.5t-59 -117t-73.5 -82t-71 -47.5q-14 -5 -21 10z" />
<glyph unicode="&#x201c;" horiz-adv-x="823" d="M98 1065q0 72 23.5 140.5t59.5 117t73.5 82t71.5 47.5q13 4 20 -10l27 -53q3 -9 -4 -13q-53 -30 -93.5 -88.5t-50.5 -132.5q53 0 86 -30.5t33 -82.5q0 -53 -32.5 -90t-86.5 -37q-55 0 -91 39t-36 111zM487 1065q0 72 23.5 140.5t59.5 117t73.5 82t71.5 47.5q13 4 20 -10 l27 -53q3 -9 -4 -13q-53 -30 -93.5 -88.5t-50.5 -132.5q53 0 86 -30.5t33 -82.5q0 -53 -32.5 -90t-86.5 -37q-55 0 -91 39t-36 111z" />
<glyph unicode="&#x201d;" horiz-adv-x="823" d="M61 981q-3 8 5 12q53 30 93 88.5t50 132.5q-53 0 -86 30.5t-33 82.5q0 53 32.5 90t86.5 37q55 0 91 -38.5t36 -110.5t-23.5 -140.5t-59 -117t-73.5 -82t-71 -47.5q-14 -5 -21 10zM451 981q-3 9 4 12q53 30 93 88.5t50 132.5q-53 0 -86 30.5t-33 82.5q0 53 32.5 90 t86.5 37q55 0 91 -38.5t36 -110.5t-23.5 -140.5t-59 -117t-73.5 -82t-71 -47.5q-14 -5 -21 10z" />
<glyph unicode="&#x201e;" horiz-adv-x="823" d="M61 -254q-3 8 5 12q53 30 93 89t50 133q-53 0 -86 30t-33 82q0 53 32.5 90t86.5 37q55 0 91 -38.5t36 -110.5t-23.5 -140.5t-59 -117t-73.5 -82t-71 -47.5q-14 -5 -21 10zM451 -254q-3 9 4 12q53 30 93 89t50 133q-53 0 -86 30t-33 82q0 53 32.5 90t86.5 37 q55 0 91 -38.5t36 -110.5t-23.5 -140.5t-59 -117t-73.5 -82t-71 -47.5q-14 -5 -21 10z" />
<glyph unicode="&#x2022;" horiz-adv-x="892" d="M78 729q0 152 108 260.5t260 108.5t260.5 -108.5t108.5 -260.5t-108.5 -260.5t-260.5 -108.5t-260 108.5t-108 260.5z" />
<glyph unicode="&#x2026;" horiz-adv-x="1445" d="M86 100q0 51 33.5 85t85.5 34t86.5 -34t34.5 -85q0 -52 -34 -86t-87 -34q-52 0 -85.5 33.5t-33.5 86.5zM557 100q0 51 33.5 85t85.5 34t86.5 -34t34.5 -85q0 -52 -34 -86t-87 -34q-52 0 -85.5 33.5t-33.5 86.5zM1028 100q0 51 33.5 85t85.5 34t86.5 -34t34.5 -85 q0 -52 -34 -86t-87 -34q-52 0 -85.5 33.5t-33.5 86.5z" />
<glyph unicode="&#x202f;" horiz-adv-x="393" />
<glyph unicode="&#x2039;" horiz-adv-x="522" d="M100 444.5q0 10.5 15 32.5l233 309q11 15 31 15h61q10 0 13 -7.5t-2 -15.5l-191 -334l191 -333q5 -7 2 -15t-13 -8h-61q-21 0 -31 14l-233 310q-15 22 -15 32.5z" />
<glyph unicode="&#x203a;" horiz-adv-x="522" d="M69.5 96q-2.5 8 2.5 15l190 333l-190 334q-5 8 -2.5 15.5t12.5 7.5h61q20 0 31 -15l234 -309q15 -22 15 -32.5t-15 -32.5l-234 -310q-10 -14 -31 -14h-61q-10 0 -12.5 8z" />
<glyph unicode="&#x205f;" horiz-adv-x="491" />
<glyph unicode="&#x20ac;" d="M20 526v103q0 8 9 8h102q-6 82 0 170h-102q-9 0 -9 8v103q0 8 9 8h112q18 145 64 251t110 164.5t134 85.5t149 27q160 0 264.5 -99.5t104.5 -264.5v-50q0 -30 -29 -30h-166q-8 0 -8 8v61q0 25 20 35l35 19q-14 87 -71 141.5t-146 54.5q-51 0 -95.5 -20.5t-85.5 -65 t-71 -125.5t-45 -192h397q9 0 9 -8l-9 -103q0 -8 -8 -8h-399q-2 -33 -2 -170h387q8 0 8 -8l-8 -103q0 -8 -8 -8h-371q44 -414 289 -414q95 0 164 57t75 140l-34 18q-12 6 -16.5 13t-4.5 22v62q0 8 8 8h168q29 0 29 -31v-47q0 -164 -115 -265t-276 -101q-63 0 -120 17 t-112 57t-97.5 101t-74 153.5t-45.5 209.5h-110q-9 0 -9 8z" />
<glyph unicode="&#x2122;" horiz-adv-x="1294" d="M66 1278v160q0 4 4 4h10q13 -8 37 -8h354q24 0 37 8h10q4 0 4 -4v-160q0 -6 -6 -6h-41q-7 0 -10 2.5t-4 11.5l-6 47q-3 23 -10.5 30t-28.5 7h-78v-461l35 -14q18 -9 18 -25v-22q0 -8 -8 -8h-178q-8 0 -8 8v22q0 16 18 25l35 14v461h-78q-21 0 -28.5 -7t-10.5 -30l-6 -47 q-2 -9 -4.5 -11.5t-11.5 -2.5h-39q-6 0 -6 6zM584 848v22q0 16 18 25l25 12v459l-25 12q-18 9 -18 25v22q0 9 4 9h178q9 0 12 -13l121 -479l135 483q3 9 8 9h177q8 0 8 -9v-22q0 -9 -3.5 -13t-15.5 -12l-24 -14v-455l24 -14q12 -8 15.5 -12t3.5 -13v-22q0 -8 -8 -8h-156 q-8 0 -8 8v22q0 16 18 25l25 12v459l-154 -520q-3 -6 -10 -6h-86q-8 0 -10 6l-133 518v-455l24 -14q12 -8 15.5 -12t3.5 -13v-22q0 -8 -9 -8h-147q-8 0 -8 8z" />
<glyph unicode="&#x25fc;" horiz-adv-x="839" d="M0 0v840h840v-840h-840z" />
</font>
</defs>
</svg>
